<?xml version="1.0" encoding="utf-8"?>
<!-- Generator: Adobe Illustrator 18.0.0, SVG Export Plug-In . SVG Version: 6.00 Build 0)  -->
<!DOCTYPE svg PUBLIC "-//W3C//DTD SVG 1.1//EN" "http://www.w3.org/Graphics/SVG/1.1/DTD/svg11.dtd">
<svg version="1.1" id="Layer_1" xmlns="http://www.w3.org/2000/svg" xmlns:xlink="http://www.w3.org/1999/xlink" x="0px" y="0px"
	 viewBox="0 0 600 600" enable-background="new 0 0 600 600" xml:space="preserve">
<circle fill="#65BFB4" cx="301.7" cy="300" r="280.3"/>
<g id="text">
</g>
<rect x="356.9" y="280.1" fill="#65BFB4" width="81.8" height="119.9"/>
<path fill="#5EB2A9" d="M97.8,378l203.9,202.3c0,0,238.3,0,277-247.1L471.7,230.3L468,340l-7,21l-309-9l-2,18L97.8,378z"/>
<path fill="#FFFFFF" d="M146.8,378h-49l12.3-57.4L97.7,265h59.4v102.6C157.1,373.3,152.5,378,146.8,378z M113.4,365.3h31.1v-87.7
	h-31l9.5,42.9L113.4,365.3z"/>
<path fill="#FFFFFF" d="M474.5,358.1h-330V237.4c0-5.7,4.7-10.4,10.4-10.4h309.2c5.7,0,10.4,4.7,10.4,10.4V358.1z M157.1,345.4
	h304.7V239.7H157.1V345.4z"/>
<polygon fill="#5EB2A9" points="521.3,265 581.2,321.5 576.3,347.1 511,286 "/>
<path fill="#FFFFFF" d="M521.2,378h-49c-5.7,0-10.4-4.7-10.4-10.4V265h59.4L509,320.6L521.2,378z M474.5,365.3h31.1l-9.6-44.8
	l9.5-42.9h-31V365.3z"/>
<polygon fill="#65BFB4" points="474.5,277.6 474.5,365.3 505.6,365.3 496,320.6 505.5,277.6 "/>
</svg>
