<?xml version="1.0" encoding="utf-8"?>
<!-- Generator: Adobe Illustrator 18.0.0, SVG Export Plug-In . SVG Version: 6.00 Build 0)  -->
<!DOCTYPE svg PUBLIC "-//W3C//DTD SVG 1.1//EN" "http://www.w3.org/Graphics/SVG/1.1/DTD/svg11.dtd">
<svg version="1.1" id="Layer_1" xmlns="http://www.w3.org/2000/svg" xmlns:xlink="http://www.w3.org/1999/xlink" x="0px" y="0px"
	 viewBox="0 0 300 300" enable-background="new 0 0 300 300" xml:space="preserve">
<circle fill="#28374F" cx="149.9" cy="150" r="147.4"/>
<path opacity="0.19" fill="#384A68" enable-background="new    " d="M150.3,2.6v294.8l-0.8,0.1c0.3,0,0.6,0,0.8,0
	c81.4,0,147.4-66,147.4-147.4S231.7,2.6,150.3,2.6z"/>
<polygon opacity="0.2" fill="#010101" enable-background="new    " points="52.3,90.3 37.3,90.3 37.3,233 146.3,233 145.5,220 
	163.6,220 163.6,90.3 "/>
<rect x="192.6" y="199.9" opacity="0.2" fill="#010101" enable-background="new    " width="53.3" height="28.3"/>
<rect x="56.4" y="71.4" fill="#527182" width="110.8" height="142"/>
<polygon fill="#C1E4D5" points="155.5,224.5 44.7,224.5 44.7,82.5 131.8,82.5 155.5,106.2 "/>
<rect x="197.7" y="193.3" fill="#5D6E77" width="53.3" height="28.3"/>
<polygon opacity="0.2" fill="#010101" enable-background="new    " points="166.6,118.7 156.3,118.7 156.3,175.3 257,175.3 
	257,118.7 "/>
<rect x="160.6" y="115.7" fill="#B1CFDE" width="99.4" height="54.3"/>
<polygon fill="#5B8D9F" points="160.6,115.7 210.2,142.9 259.9,115.7 "/>
<polygon fill="#315876" points="155.5,106.2 131.8,82.5 131.8,106.2 "/>
<circle fill="#7F6250" cx="210.2" cy="143.1" r="9.7"/>
<circle fill="#7F6250" cx="66.1" cy="108" r="9.7"/>
<polygon fill="#00251E" points="53,109.4 79.2,99.5 76.5,105.2 79.2,107.8 53,116.5 55.7,111.4 "/>
<polygon fill="#00251E" points="197.1,144.2 223.4,134.3 220.7,140.1 223.4,142.7 197.1,151.4 199.9,146.2 "/>
<rect x="114.5" y="205.2" fill="#00251E" width="28.3" height="4.4"/>
<rect x="56.3" y="138" fill="#00251E" width="45.4" height="4.4"/>
<rect x="56.3" y="153.6" fill="#00251E" width="85.6" height="2.2"/>
<rect x="56.3" y="166.5" fill="#00251E" width="85.6" height="2.2"/>
<rect x="170.2" y="187.1" opacity="0.2" fill="#010101" enable-background="new    " width="53.3" height="28.3"/>
<rect x="56.3" y="179.5" fill="#00251E" width="85.6" height="2.2"/>
<rect x="56.3" y="192.4" fill="#00251E" width="85.6" height="2.2"/>
<rect x="174.3" y="181.5" fill="#CACDD0" width="53.3" height="28.3"/>
<circle fill="#7F6250" cx="201" cy="195.7" r="6.1"/>
<polygon fill="#00251E" points="192.2,196.6 208.9,190.3 207.2,193.9 208.9,195.6 192.2,201.1 193.9,197.8 "/>
</svg>
