<?xml version="1.0" encoding="utf-8"?>
<!-- Generator: Adobe Illustrator 18.0.0, SVG Export Plug-In . SVG Version: 6.00 Build 0)  -->
<!DOCTYPE svg PUBLIC "-//W3C//DTD SVG 1.1//EN" "http://www.w3.org/Graphics/SVG/1.1/DTD/svg11.dtd">
<svg version="1.1" id="Layer_1" xmlns="http://www.w3.org/2000/svg" xmlns:xlink="http://www.w3.org/1999/xlink" x="0px" y="0px"
	 viewBox="0 0 300 300" enable-background="new 0 0 300 300" xml:space="preserve">
<circle fill="#27364F" cx="149.9" cy="150" r="149.8"/>
<path opacity="0.19" fill="#374967" enable-background="new    " d="M150.3,0.2v299.5l-0.9,0.1c0.3,0,0.6,0,0.9,0
	c82.7,0,149.8-67.1,149.8-149.8S233,0.2,150.3,0.2z"/>
<path opacity="0.2" enable-background="new    " d="M238.2,90.6H41.9c-3.5,0-6.4,2.9-6.4,6.4v100c0,7,5.2,17.7,15,17.7h68.3
	c-3.5,4.8-10.7,11-25.4,17.7h85.8c0,0-11.1-5.8-15.2-17.7h74.3c3.5,0,6.4-2.9,6.4-6.4V97C244.6,93.5,241.7,90.6,238.2,90.6z"/>
<g>
	<path d="M241.7,191.9h-184c-8.5,0-5.9,2.6-15.4,0.1V91.2c0-7.5-1.2-13.7,7.3-13.7h200.2c8.5,0,7.3,6.2,7.3,13.7v100.7
		C244.1,197.8,250.2,191.9,241.7,191.9z M57.7,87.6c-2.2,0-4.1,1.7-4.1,3.6v87c0,2,1.8,3.6,4.1,3.6h184.1c2.2,0,4.1-1.7,4.1-3.6v-87
		c0-2-1.8-3.6-4.1-3.6H57.7z"/>
</g>
<path fill="#B1B3B6" d="M132.7,206c0,0,2.4,10.5-18.6,21H186c0,0-19.4-5.9-19.4-21H132.7z"/>
<path fill="#A3A5A8" d="M132.7,206c0,0,33.6-8.5,33.9,0c0.1,4.2,1.3,6.5,1.3,6.5s-40.9,8.1-36.6,0C132.7,209.9,132.7,206,132.7,206z
	"/>
<path fill="#CBCCCE" d="M42.2,191.9h214.9c0,0,0.2,14.9-11.1,14.9H53.3C53.3,206.8,42.2,206.8,42.2,191.9z"/>
<circle fill="#8A8C8E" cx="149.7" cy="198.7" r="3.9"/>
<rect x="49.4" y="85.2" fill="#84A9D0" width="200.4" height="100.6"/>
<circle fill="#464547" cx="149.7" cy="81.6" r="1.8"/>
<path fill="#260E48" d="M87.9,144.8c0,0,0.4-0.7,1.2-2.1c0.4-0.7,1-1.6,1.6-2.6c0.3-0.5,0.6-1.1,1-1.6s0.8-1.1,1.2-1.8
	c1.8-2.5,4-5.5,7-8.6c2.9-3.2,6.4-6.5,10.5-9.8s8.9-6.5,14.3-9.5c0.6-0.4,1.3-0.7,2-1.1s1.4-0.7,2.1-1.1c0,0,0.4-0.2,0.5-0.2
	c0.2-0.1,0.4-0.1,0.6-0.2c0.4-0.1,0.9-0.1,1.4-0.1c0.3,0,0.5,0.1,0.7,0.2l0.2,0.1c0.1,0,0.5,0.2,0.3,0.1l0.2,0.1l0.1,0.1l0.3,0.1
	c0.2,0.1,0.3,0.2,0.5,0.3c0.3,0.2,0.5,0.4,0.7,0.6c0.4,0.4,0.7,1,0.9,1.4c0.2,0.5,0.3,1,0.3,1.3c0.1,0.8,0,1.4-0.1,2l-0.1,0.4
	l-0.1,0.2c0-0.1-0.1,0.2-0.1,0.2v0.1l-0.2,0.6c-0.1,0.4-0.2,0.7-0.3,1.1c-0.2,0.7-0.5,1.6-0.7,2.4c-0.2,0.4-0.3,0.9-0.4,1.2
	c-0.2,0.4-0.3,0.8-0.5,1.2c-0.3,0.8-0.6,1.6-1,2.4c-1.3,3.1-2.9,6.2-4.5,9.1c-1.6,2.9-3.3,5.9-4.9,8.8c-1.6,2.9-2.9,5.9-4.1,8.8
	c-0.3,0.7-0.5,1.5-0.7,2.2l-0.3,1.1l-0.1,0.3v0.1c0-0.1-0.1,0.3,0.1-0.2l-0.1,0.2c0,0.1,0,0.1,0-0.1s0-0.2,0.1-0.3
	c0-0.1,0-0.2,0-0.3s0-0.1,0-0.2c-0.1-0.2-0.1-0.5-0.2-0.7c-0.4-0.9-1.1-1.3-2-1.4c-0.4-0.1-0.9,0-1.3,0.2c-0.2,0.1-0.4,0.2-0.5,0.3
	l0.3-0.2l2-1.6c5.5-4.2,10.9-8.5,16.3-12.6c2.7-2.1,5.3-4.1,8.2-6.2c2.8-2,5.9-3.9,9.3-5.2c0.4-0.2,0.9-0.3,1.3-0.5l0.6-0.2l0.3-0.1
	l0.2-0.1h0.1c0.4-0.1,0.2-0.1,0.3-0.1l0.3-0.1c0.3-0.1,0.5-0.1,0.8-0.1c0.5,0,0.9,0,1.3,0.1c0.9,0.2,1.7,0.5,2.4,1
	c1.4,0.9,2.4,2.5,2.6,4.2c0.1,0.4,0.1,0.8,0,1.3l-0.1,0.6c-0.1,0.4-0.1,0.9-0.2,1.3c-0.5,3.3-1.4,6.5-2.6,9.4
	c-0.3,0.6-0.7,1.8-0.6,1.3c0-0.2-0.1-0.4-0.1-0.5c-0.1-0.1-0.2-0.2-0.3-0.2c-0.1-0.1-0.3-0.1-0.4-0.1c-0.1,0-0.1,0-0.2,0.1
	c0,0,0,0-0.1,0.1l0.1-0.1l0.3-0.1l0.5-0.2l0.4-0.2c0.3-0.1,0.5-0.2,0.9-0.3c2.4-1,4.6-2.4,7-3.7c1.2-0.6,2.4-1.2,3.6-1.7
	c0.3-0.1,0.6-0.3,0.9-0.4l0.5-0.2l0.1-0.1l0.2-0.1h0.1l0.2-0.1c1-0.3,2-0.2,2.9,0.1s1.7,0.9,2.2,1.6c0.5,0.7,0.9,1.6,1,2.4
	c0.1,0.4,0.1,0.9,0,1.1c-0.1,0.3-0.1,0.6-0.1,0.9c-0.1,0.6-0.2,1.1-0.3,1.7c-0.2,1-0.4,2-0.4,2.8c0,0.9,0.1,1.7,0.3,2.4
	s0.6,1.3,1.1,1.8c0.5,0.4,1,0.5,1.6,0.5c0.6-0.1,1.2-0.4,1.8-0.6c0.6-0.3,1.2-0.6,1.9-0.6c0.6-0.1,1.3,0,1.8,0.3
	c0.5,0.2,0.9,0.7,1,1.1c0.1,0.5,0.1,0.8,0.1,1.1c0,0.2,0.1,0.3,0.2,0.3c0.1,0.1,0.2,0.1,0.3,0.2c0.2,0.1,0.4,0,0.4-0.1
	c0.1-0.1,0.1-0.2,0.1-0.2s0,0.1-0.1,0.2c-0.1,0.1-0.2,0.2-0.4,0.2c-0.1,0-0.3-0.1-0.4-0.1c-0.2-0.1-0.2-0.2-0.3-0.4
	c-0.1-0.3-0.1-0.7-0.3-1c-0.3-0.6-1.3-1-2.2-0.6c-0.5,0.1-1,0.4-1.6,0.8c-0.6,0.4-1.2,0.8-2.1,1l-0.2,0.1h-0.2H178h-0.1h-0.1h-0.2
	h-0.4c-0.1,0-0.3,0-0.4-0.1c-0.5-0.1-1-0.3-1.5-0.5c-0.9-0.6-1.6-1.4-2-2.4c-0.5-1-0.7-2-0.9-3.1c-0.1-1.2,0.1-2.2,0.1-3.3
	c0.1-0.5,0.1-1,0.1-1.6c0-0.3,0-0.5,0-0.7c0-0.3,0-0.4-0.1-0.5c-0.1-0.5-0.6-0.9-1.1-1c-0.3-0.1-0.5,0-0.6,0.1l-0.2,0.1h-0.1
	c0.2-0.1,0.1,0,0.1,0l-0.1,0.1l-0.4,0.2c-0.3,0.1-0.5,0.3-0.7,0.4c-1,0.5-2,1.2-3.1,1.9c-2.1,1.4-4.3,3-7,4.4
	c-0.3,0.2-0.7,0.4-1.1,0.5l-0.6,0.3l-0.5,0.2l-0.3,0.1l-0.1,0.1c-0.2,0.1-0.2,0.1-0.3,0.1c-0.4,0.1-0.8,0.2-1.2,0.2
	c-0.9,0.1-1.7-0.2-2.5-0.6c-0.7-0.4-1.3-1-1.8-1.8c-0.4-0.7-0.6-1.7-0.5-2.6c0.1-0.3,0.1-0.6,0.2-0.9l0.1-0.3l0.3-0.7
	c0.1-0.3,0.2-0.6,0.3-1c0.9-2.6,1.5-5.4,1.8-8.3c0.1-0.4,0.1-0.7,0.1-1.1l0.1-0.6c0,0.1,0,0.1,0,0.1c0,0.2,0.1,0.3,0.2,0.4
	c0.1,0.1,0.1,0.1,0.2,0.1c0.1,0,0.1,0,0.1,0s0.2,0,0.2-0.1l-0.3,0.1c0.1,0-0.3,0.1,0.1-0.1h-0.1l-0.1,0.1l-0.3,0.1l-0.5,0.2
	c-0.3,0.2-0.6,0.3-1,0.4c-2.6,1.2-5.1,2.8-7.7,4.8c-1.3,1-2.6,2-3.9,3c-1.3,1.1-2.6,2.1-4,3.2c-5.3,4.3-10.8,8.5-16.2,12.8l-2,1.6
	l-0.3,0.2c-0.3,0.2-0.6,0.5-1.1,0.6c-0.8,0.4-1.7,0.5-2.6,0.4c-1.7-0.2-3.2-1.3-4-2.9c-0.2-0.4-0.3-0.9-0.4-1.3
	c0-0.1-0.1-0.2-0.1-0.3c0-0.2,0-0.3,0-0.4c0-0.2,0-0.3,0.1-0.4c0-0.2,0.1-0.2,0.1-0.2l0.1-0.2c0.2-0.6,0.1-0.2,0.1-0.4v-0.1l0.1-0.3
	l0.4-1.3c0.3-0.9,0.6-1.8,0.9-2.6c1.3-3.5,2.9-6.7,4.6-9.7s3.5-5.9,5.1-8.8c1.7-2.8,3.3-5.6,4.6-8.4c0.4-0.7,0.6-1.4,1-2.1l0.5-1
	l0.4-1c0.3-0.6,0.5-1.3,0.7-2.1c0.1-0.4,0.3-0.7,0.4-1.1l0.2-0.5v-0.1c0-0.1-0.1,0.2,0,0.1v-0.1l0.1-0.2c0.1-0.2,0.1-0.3,0.1-0.3
	s0,0.1,0.1,0.2c0.1,0.2,0.2,0.3,0.3,0.5c0.1,0.1,0.2,0.2,0.3,0.2c0.1,0.1,0.2,0.1,0.2,0.2c0.1,0,0.1,0.1,0.1,0.1h-0.1l-0.1-0.1
	c-0.2-0.1,0.2,0.1,0.2,0.1h0.1c0.1,0,0.1,0,0.2,0.1c0.1,0,0.2,0,0.3,0s0.1,0,0.1-0.1c0,0,0.2-0.1,0,0c-0.6,0.3-1.3,0.6-2,0.9
	s-1.3,0.6-2,0.9c-5.2,2.4-10,5.1-14.2,7.9s-7.9,5.7-11.1,8.4c-3.2,2.7-5.7,5.3-7.8,7.4c-1,1.1-1.9,2.1-2.7,2.9
	c-0.8,0.9-1.4,1.6-1.9,2.2C88.5,144.2,87.9,144.8,87.9,144.8z"/>
<g>
	<path fill="#260E48" d="M197.6,163.7c0,0-6.2,2.5-10.4-3.7c-0.6-0.9-1.1-1.9-1.4-2.9c-0.5-1.6-1.2-9.8-6.6-6.4
		c0,0,3.7-5.1,11.2-3.3c0,0,8.7,2,11.2,8.2L197.6,163.7z"/>
	<g>
		<path fill="#2A2F43" d="M205.1,167.5c0,0,45.5,23.4,66.8,28.7c0,0-13.6-11.8-62.7-36.8L205.1,167.5z"/>
		
			<rect x="199.1" y="157" transform="matrix(-0.8946 -0.4468 0.4468 -0.8946 312.9863 396.8655)" fill="#BCBEC0" width="8.4" height="9.1"/>
		<path opacity="0.34" fill="#FFFFFF" enable-background="new    " d="M199.9,160.6c7.1,0.6,58.5,28.2,70.3,35.1c0,0-18-3.8-72.7-32
			c0,0-6.6,3.2-11.2-5.1c-0.2-0.4-0.7-1.6-0.7-2c-0.4-2.4-1.5-8.9-6.5-5.9c0,0,5.3-5.1,10,2.6c1.3,2.1,3,3.8,5.2,5
			C196.2,159.4,198.4,160.5,199.9,160.6z"/>
	</g>
</g>
<path opacity="0.14" fill="#FFFFFF" enable-background="new    " d="M209.8,77.5l-86.1,114.3H42.3L42.2,83.3c0,0,0-7.4,11.3-5.8
	H209.8z"/>
</svg>
