<?xml version="1.0" encoding="utf-8"?>
<!-- Generator: Adobe Illustrator 18.0.0, SVG Export Plug-In . SVG Version: 6.00 Build 0)  -->
<!DOCTYPE svg PUBLIC "-//W3C//DTD SVG 1.1//EN" "http://www.w3.org/Graphics/SVG/1.1/DTD/svg11.dtd">
<svg version="1.1" id="Layer_1" xmlns="http://www.w3.org/2000/svg" xmlns:xlink="http://www.w3.org/1999/xlink" x="0px" y="0px"
	 viewBox="0 0 600 600" enable-background="new 0 0 600 600" xml:space="preserve">
<circle fill="#65BFB4" cx="301.7" cy="300" r="280.3"/>
<path fill="#5EB2A9" d="M438.2,373.5l99.4,77.9c0,0-73.6,115.6-204.6,126.4L160.9,395.1L438.2,373.5z"/>
<path fill="#5EB2A9" d="M440.2,192.8l138.3,152.3c0,0-3.2,54.7-40.9,106.3L415,354.2l23-26.2L440.2,192.8z"/>
<g id="Laptop">
	<g>
		<path fill="#FFFFFF" d="M419.1,182.6H184.3c-14.9,0-27.1,12.2-27.1,27.1v117.4c0,14.9,12.2,27.1,27.1,27.1h234.8
			c14.9,0,27.1-12.2,27.1-27.1V209.7C446.2,194.8,434,182.6,419.1,182.6z M428.1,327.1c0,5-4,9-9,9H184.3c-5,0-9-4.1-9-9V209.7
			c0-5,4-9,9-9h234.8c5,0,9,4.1,9,9V327.1z M432.6,372.3h-94.8c0,5-4,9-9,9h-54.2c-5,0-9-4-9-9h-94.8c-7.5,0-13.5,6.1-13.5,13.5
			s6.1,13.5,13.5,13.5h261.9c7.5,0,13.5-6.1,13.5-13.5S440.1,372.3,432.6,372.3z"/>
	</g>
</g>
</svg>
