<?xml version="1.0" encoding="utf-8"?>
<!-- Generator: Adobe Illustrator 19.2.1, SVG Export Plug-In . SVG Version: 6.00 Build 0)  -->
<!DOCTYPE svg PUBLIC "-//W3C//DTD SVG 1.1//EN" "http://www.w3.org/Graphics/SVG/1.1/DTD/svg11.dtd">
<svg xmlns="http://www.w3.org/2000/svg" x="0px" y="0px"
	 viewBox="0 0 448.8 430.2" style="enable-background:new 0 0 448.8 430.2;" xml:space="preserve">
<style type="text/css">
	.st0{fill:none;stroke:#000000;stroke-width:8;stroke-linecap:round;stroke-linejoin:round;stroke-miterlimit:10;}
</style>
<polyline class="st0" points="38.5,310 38.5,101.3 183.2,10 325.7,101.3 325.7,157.4 "/>
<line class="st0" x1="78.5" y1="140" x2="291.2" y2="140"/>
<line class="st0" x1="118.5" y1="93" x2="163.7" y2="140"/>
<line class="st0" x1="183.2" y1="53.3" x2="183.2" y2="140"/>
<line class="st0" x1="251.7" y1="93" x2="198.7" y2="140"/>
<rect x="146.7" y="186" class="st0" width="71" height="51.5"/>
<line class="st0" x1="6.7" y1="405.1" x2="444.7" y2="405.1"/>
<polyline class="st0" points="123.7,310 123.7,277.2 244.7,277.2 244.7,405.1 "/>
<polyline class="st0" points="29.7,405.1 29.7,343.6 46.5,332 62.7,343.6 62.7,405.1 "/>
<polyline class="st0" points="70.3,337 78.5,332 91.7,341.1 91.7,405.1 "/>
<polyline class="st0" points="98.7,341.1 110.5,332 123.7,341.1 123.7,405.1 "/>
<polyline class="st0" points="298,405.1 298,343.6 314.8,332 331,343.6 331,405.1 "/>
<polyline class="st0" points="338.6,337 346.8,332 360,341.1 360,405.1 "/>
<polyline class="st0" points="367,341.1 378.8,332 392,341.1 392,405.1 "/>
<polyline class="st0" points="396.5,341.1 408.3,332 421.5,341.1 421.5,405.1 "/>
<line class="st0" x1="362" y1="405.1" x2="361" y2="312.5"/>
<path class="st0" d="M345.1,303.6c-2.7-2.8-5-6.5-6.4-11.2c0,0-17.3,24.2-39.1,11.6c-5.6-3.3-10-8.3-12.7-14.2
	c-5-10.8-9.6-30.7,14.9-44.2c0,0-10.5-40.7,31-38.3c0,0-5.2-26.5,14.8-36.6c8.9-4.4,19.6-3.8,27.9,1.5c8,5.1,16.6,15.2,16.5,35.1
	c0,0,29.3-3.6,29.5,38.3c0,0,23.3,14.2,15.8,38.7c-3,9.8-10.2,17.9-20,21.3c-8,2.7-18.5,2.7-28.4-8.2c0,0-1.4,7.9-10.9,12.4
	C366.9,315,353.4,312.5,345.1,303.6z"/>
</svg>
