<?xml version="1.0" encoding="utf-8"?>
<!-- Generator: Adobe Illustrator 19.2.1, SVG Export Plug-In . SVG Version: 6.00 Build 0)  -->
<!DOCTYPE svg PUBLIC "-//W3C//DTD SVG 1.1//EN" "http://www.w3.org/Graphics/SVG/1.1/DTD/svg11.dtd">
<svg version="1.1" xmlns="http://www.w3.org/2000/svg" x="0px" y="0px" id="my-svg"
	 viewBox="0 0 448.8 430.2" style="enable-background:new 0 0 448.8 430.2;" onclick="hi.reset().play();">
<style type="text/css">
	.st0{fill:none;stroke:#000000;stroke-width:8;stroke-linecap:round;stroke-linejoin:round;stroke-miterlimit:10;}
</style>
<g>
	<path class="st0" d="M38.5,310V103.5c0-1.3,0.7-2.6,1.8-3.3l140.7-88.8c1.3-0.8,2.9-0.8,4.2,0l138.6,88.8c1.1,0.7,1.8,2,1.8,3.3v54
		"/>
	<line class="st0" x1="78.5" y1="140" x2="291.2" y2="140"/>
	<line class="st0" x1="118.5" y1="93" x2="163.7" y2="140"/>
	<line class="st0" x1="183.2" y1="53.3" x2="183.2" y2="140"/>
	<line class="st0" x1="251.7" y1="93" x2="198.7" y2="140"/>
	<path class="st0" d="M146.7,189.9v43.7c0,2.2,1.8,3.9,3.9,3.9h63.1c2.2,0,3.9-1.8,3.9-3.9v-43.7c0-2.2-1.8-3.9-3.9-3.9h-63.1
		C148.4,186,146.7,187.8,146.7,189.9z"/>
	<line class="st0" x1="6.7" y1="405.1" x2="444.7" y2="405.1"/>
	<path class="st0" d="M123.7,310v-28.9c0-2.2,1.8-3.9,3.9-3.9h113.1c2.2,0,3.9,1.8,3.9,3.9v124"/>
	<path class="st0" d="M29.7,405.1v-59.4c0-1.3,0.6-2.5,1.7-3.2l12.9-8.9c1.4-0.9,3.2-0.9,4.5,0l12.3,8.8c1,0.7,1.6,1.9,1.6,3.2v59.4
		"/>
	<path class="st0" d="M62.7,343.6l13.6-10c1.4-1,3.2-1,4.6-0.1l9.2,6.3c1.1,0.7,1.7,1.9,1.7,3.2v61.9"/>
	<path class="st0" d="M91.7,341.1l16.8-8.1c1.3-0.6,2.8-0.5,3.9,0.3l9.6,6.6c1.1,0.7,1.7,1.9,1.7,3.2v61.9"/>
	<path class="st0" d="M298,405.1v-59.4c0-1.3,0.6-2.5,1.7-3.2l12.9-8.9c1.4-0.9,3.2-0.9,4.5,0l12.3,8.8c1,0.7,1.6,1.9,1.6,3.2v59.4"
		/>
	<path class="st0" d="M331,343.6l13.6-10c1.4-1,3.2-1,4.6-0.1l9.2,6.3c1.1,0.7,1.7,1.9,1.7,3.2v61.9"/>
	<path class="st0" d="M360,341.1l16.8-8.1c1.3-0.6,2.8-0.5,3.9,0.3l9.6,6.6c1.1,0.7,1.7,1.9,1.7,3.2v61.9"/>
	<path class="st0" d="M392,341.1l14.2-7.9c1.3-0.7,2.9-0.7,4.1,0.2l9.4,6.5c1.1,0.7,1.7,1.9,1.7,3.2v61.9"/>
	<line class="st0" x1="362" y1="405.1" x2="361" y2="312.5"/>
	<path class="st0" d="M345.1,303.6c-1.6-1.7-3-3.6-4.2-5.9c-1.2-2.3-4.3-2.7-6.2-0.9c-6.3,6.3-19.6,16.1-35.1,7
		c-5.6-3.3-10-8.3-12.7-14.2c-4.8-10.4-9.3-29.4,12.5-42.8c1.4-0.8,2.1-2.4,1.8-4c-1.4-8.5-3.4-35.2,27.2-35.8c2.3,0,4-2,3.9-4.2
		c-0.5-7.9,0.3-24.8,15.4-32.3c8.9-4.4,19.6-3.8,27.9,1.5c7.5,4.8,15.5,13.9,16.4,31.4c0.1,1.9,1.7,3.5,3.6,3.7
		c7.6,0.6,25.1,5.2,25.9,36.3c0,1.2,0.6,2.3,1.6,3c5.1,3.7,20.5,17,14.3,37.6c-3,9.8-10.2,17.9-20,21.3c-7,2.4-15.8,2.7-24.6-4.5
		c-1.8-1.5-4.5-1-5.8,1c-1.5,2.5-4.3,5.6-9,7.8C366.9,315,353.4,312.5,345.1,303.6z"/>
</g>
</svg>
