<?xml version="1.0" encoding="utf-8"?>
<!-- Generator: Adobe Illustrator 18.0.0, SVG Export Plug-In . SVG Version: 6.00 Build 0)  -->
<!DOCTYPE svg PUBLIC "-//W3C//DTD SVG 1.1//EN" "http://www.w3.org/Graphics/SVG/1.1/DTD/svg11.dtd">
<svg version="1.1" id="Layer_1" xmlns="http://www.w3.org/2000/svg" xmlns:xlink="http://www.w3.org/1999/xlink" x="0px" y="0px"
	 viewBox="0 0 471.5 197.3" enable-background="new 0 0 471.5 197.3" xml:space="preserve">
<path fill="none" d="M193.5,112.8c-0.2,2.3,2.6,3.7,4.5,2.4c5.5-3.9,8-9.6,10.9-14.8C192.9,106.1,193.5,112.8,193.5,112.8z"/>
<path fill="none" d="M257,25.6c-4.5,10-6.6,20.8-8.1,31.8c4.7-10,9.1-20.1,10.3-31.2C259.3,24.9,257.5,24.5,257,25.6z"/>
<path fill="none" d="M6.6,111.7c-0.2,2.3,2.6,3.7,4.5,2.4c5.5-3.9,8-9.6,10.9-14.8C6.1,106.1,6.6,111.7,6.6,111.7z"/>
<path fill="none" d="M433.2,79.2c5.6-3.7,10.8-11.6,14.1-21.8c0.3-1-0.2-2-1.2-2.4c0,0,0,0-0.1,0c-2.8-1-6.1-0.3-8.2,1.9
	c-5.7,6-9.2,13.4-9.6,19.5C428.1,78.9,431,80.6,433.2,79.2z"/>
<path fill="none" d="M185.5,7.7c-4.2,7.8-7.9,21.9-8.1,32.7c4.4-10,8.9-20.1,10.6-31.8C188.2,7,186.2,6.3,185.5,7.7z"/>
<path fill="none" d="M56.8,57.5c-1.2-1.2-3.5,0.8-4.5,2.5c-2.2,3.6-4,7.5-5.4,11.4C49.8,67.2,58.1,58.8,56.8,57.5z M55.5,59.7l0.3,0
	L55.5,59.7z"/>
<path fill="none" d="M130.3,80.7c8-6,12.6-13.4,15.5-22.1c0.5-1.5-0.3-3.2-1.9-3.6c0,0,0,0-0.1,0c-2.8-0.8-5.8,0.1-7.6,2.3
	c-5,6.1-9.1,12.5-9.5,21.5C126.7,80.7,128.8,81.8,130.3,80.7z"/>
<path fill="none" d="M49.3,78.7c0.2,1.3,0.4,2.5,0.8,3.7c0.9,3,4.9,3.5,6.6,0.9c2.5-3.8,4.9-8.8,4.9-13.1c0-1.4-0.5-2.8-1.2-4.1
	c-0.4-0.7-0.9-1.4-0.9-1.4c-0.5-1.7-1.3-0.7-2.3,0.8c-1.8,2.7-5,6.8-6.9,9.3C49.5,76,49.1,77.4,49.3,78.7z"/>
<line fill="none" x1="225.9" y1="190.4" x2="217.7" y2="190.4"/>
<path fill="none" d="M287.2,90.8c6.9-4.8,14.9-16.1,15.8-21.9c0.2-1.3-0.7-2.6-1.9-3c0,0,0,0-0.1,0c-2.7-0.9-5.7-0.2-7.7,1.9
	c-6,6.1-9.7,14.3-9.7,21.1C283.6,90.7,285.7,91.9,287.2,90.8z"/>
<path fill="#FFFFFF" d="M401.5,151H401v9.9c3.4,0.2,4.4-1.6,4.4-4.9C405.3,153.2,404.5,151,401.5,151z"/>
<path fill="#FFFFFF" d="M205.3,182.9c-2.9-4.3-3.5-9.8-2.5-15.1c1.1-6,4-11,10.2-13.2c1.2-0.4,2.2-1.1,3.8-1.9
	c-5.2-3.7-9-7.8-6.8-14.4c0,0,0-0.1,0-0.1c0.6-1.7,1.5-3.1,2.7-4.3H33.8H0l9.3,29.7l-1.3,3.6c0.5,0.3,0,0.9-0.2,0.7L0,190.4h33.8
	h23.4c0.1,0,0.1,0,0.2,0h47.8c0-0.2,0.2-0.3,0.5-0.6c0.2,0.2,0.3,0.4,0.3,0.6h106.2C209.5,188.5,207.3,185.8,205.3,182.9z
	 M7.1,189.9C7.5,189,8.8,190.2,7.1,189.9L7.1,189.9z M158.7,143.6C158.8,142.7,160,143.9,158.7,143.6L158.7,143.6z M156,145.6
	C156.9,144.8,155.1,146.5,156,145.6L156,145.6z M28.3,145.4C28.3,144.5,29.5,145.6,28.3,145.4L28.3,145.4z M9.6,145.1
	C10.6,144.3,8.9,146,9.6,145.1L9.6,145.1z M11.1,171.9C11.7,170.3,13.3,171.8,11.1,171.9L11.1,171.9z M15.4,176
	C15.5,175.1,16.7,176.3,15.4,176L15.4,176z M21.5,174.5C21.6,173.7,22.8,174.8,21.5,174.5L21.5,174.5z M32.9,187.8
	C34.4,186.7,34.7,188.7,32.9,187.8L32.9,187.8z M25.3,177.4h-2.7v-29.8H27c4.7,0,10,0.3,10,15.4C37,176.8,32.4,177.4,25.3,177.4z
	 M38.4,145.4C39.1,144.2,38.8,146.3,38.4,145.4L38.4,145.4z M42.4,152.4C41.6,153.5,40.6,152.6,42.4,152.4L42.4,152.4z M42.1,156.3
	C42.4,155.4,43.7,156.6,42.1,156.3L42.1,156.3z M57.6,151H51v9.4h6v3.4h-6V174h6.7v3.4H47v-29.8h10.6V151z M52.5,158.6
	C52.5,157.7,53.7,158.9,52.5,158.6L52.5,158.6z M65.3,174.5L65.3,174.5c0-0.1,0.1-0.1,0.1-0.2C65.4,174.4,65.3,174.5,65.3,174.5z
	 M65.4,174.3c0.1-0.1,0.1-0.2,0.1-0.3C65.6,174.1,65.5,174.2,65.4,174.3z M70.3,177.8c-1.5,0-3.1-0.4-4.4-1.4v-4
	c1.2,0.9,2.4,1.5,3.9,1.5c2.5,0,3.5-1.9,3.5-4.2c0-5.9-8.4-7.1-8.4-15c0-4.2,2.2-7.6,6.7-7.6c1.5,0,2.9,0.2,4.2,1l0,4
	c-1-0.8-2-1.3-3.4-1.3c-2.2,0-3.5,1.8-3.5,3.8c0,1.3,0.3,2.2,1.1,3.2l3,3.3c2.7,2.7,4.2,4.7,4.2,8.7
	C77.3,174.2,74.7,177.8,70.3,177.8z M65.9,163.3C66,162.5,67.2,163.6,65.9,163.3L65.9,163.3z M68.4,170.4
	C68.4,169.5,69.7,170.7,68.4,170.4L68.4,170.4z M79.7,175.1C79.8,174.2,81,175.4,79.7,175.1L79.7,175.1z M86.6,147.6h4v29.8h-4
	V147.6z M89.5,188.4C89.6,187.5,90.8,188.7,89.5,188.4L89.5,188.4z M90.4,182.2C91.5,181.5,89.7,183.2,90.4,182.2L90.4,182.2z
	 M99,189.9C99.1,189,100.3,190.1,99,189.9L99,189.9z M108.5,177.8c-7.1,0-7.9-6.8-7.9-15.2c0-8.4,0.7-15.4,7.6-15.4
	c4.2,0,6.3,2.1,7.3,6.1l-3.8,1.5c-0.4-2-0.9-3.9-3.4-3.9c-3.2,0-3.5,4.4-3.5,11.6c0,10.4,1.7,11.6,3.5,11.6c1.6,0,3.4-0.2,3.4-7.4
	v-1.6h-3.3v-3.4h7.3v0.5C115.6,167.9,116.5,177.8,108.5,177.8z M107.6,168.9C107.9,168,109.2,169.3,107.6,168.9L107.6,168.9z
	 M118,186.3C119,185.6,117.3,187.3,118,186.3L118,186.3z M123.8,145.9C122.9,147,122.8,145,123.8,145.9L123.8,145.9z M123.5,163.3
	C124.5,162.6,122.8,164.3,123.5,163.3L123.5,163.3z M137.3,179.6C137.3,178.7,138.6,179.8,137.3,179.6L137.3,179.6z M139.4,177.4
	h-3.7l-7-23l-0.1,0.1l0.2,1.9l0.6,10v11h-4v-29.8h3.8l7,22.7l0.1-0.1l-0.9-12v-10.6h4V177.4z M139.3,144.7c0-0.1,0.1-0.3,0.1-0.6
	c0,0,0,0,0-0.1C139.4,144.3,139.4,144.5,139.3,144.7z M140.7,184C140.7,183.1,141.9,184.3,140.7,184L140.7,184z M160.8,151h-6.7v9.4
	h6v3.4h-6V174h6.7v3.4h-10.6v-29.8h9c0-0.1-0.1-0.1-0.2-0.2c0.3-0.6,0.5-0.1,0.5,0.2h1.3V151z M162.4,177.8
	C162.5,176.9,163.7,178.1,162.4,177.8L162.4,177.8z M166.7,189.9C167,189,168.3,190.2,166.7,189.9L166.7,189.9z M168.2,161.9
	C168.3,161,169.5,162.1,168.2,161.9L168.2,161.9z M179.2,177.4l-5.4-14.6h-0.1v14.6h-4v-29.8h4.8c2.9,0,7.4,0.2,7.4,7.6
	c0,2.8-0.8,7.1-4.1,7.7l5.5,14.5H179.2z M182.9,156.3C183.3,155.4,184.5,156.6,182.9,156.3L182.9,156.3z M186.6,156
	C185.9,156.9,184.6,155.6,186.6,156L186.6,156z M186.9,145.6C187.9,144.9,186.1,146.6,186.9,145.6L186.9,145.6z M197.3,175.4
	C197.4,174.5,198.6,175.7,197.3,175.4L197.3,175.4z M204.6,189.3C204.7,188.4,205.9,189.6,204.6,189.3L204.6,189.3z"/>
<path fill="#FFFFFF" d="M442.6,151H442v9.9c3,0.2,4-1.7,4-4.7C446,153.3,445.6,150.9,442.6,151z M443.2,158.9
	C443.4,159.1,443.1,158.8,443.2,158.9L443.2,158.9z"/>
<path fill="#FFFFFF" d="M216.3,144.9c0.4,2,1.3,4,2.7,5.5c2.1,2.3,4.8,3.3,8.3,2.7c0,0,5.3-0.7-1.9,2.6c-8.4,3.9-13.9,8.8-14.4,17
	c-0.2,3.8,0.2,7.8,1.4,11.5c1,3.1,2.9,5.2,5.3,6.4h8.2c1.5-0.7,2.9-1.7,4.2-3.1c2.8-3.2,4.1-6.9,2.8-11.3c-0.8-2.6-2.9-3.8-5.1-3.2
	c0.2,0.1,0.2,0.4-0.5,0.2c0,0,0-0.1,0-0.1c-0.4,0.2-0.8,0.4-1.3,0.7c-1.2,1-2,2.5-2.9,3.9c-0.6,1-0.1,3.9-2.1,3.8
	c-4.7-0.2,0-6.9,2.1-9c1.8-1.8,4-3.3,6.2-4.7c6.7-4.3,13.1-8.9,17.8-15.6c3.2-4.6,5.7-9.5,6-15.2c0.1-1.1,0-2.1-0.2-3h-11.3
	c-0.2,0.5-0.4,1.1-0.6,1.6c-0.2,0.9,0,2-0.7,2.6c-0.3,0.3-0.9,0.3-1.2,0.1c-1-0.7-0.9-2.4-0.8-3.5c0-0.3,0.1-0.5,0.2-0.8h-11.3
	C215.7,133.7,215.4,140.6,216.3,144.9z"/>
<path fill="#FFFFFF" d="M471.5,134h-33.8H255.8c0.6,7.3-1.7,13.6-6.1,19.3c-4.9,6.3-10.5,11.9-17.7,15.8c0.2,0.6,0.1,1.2,0.4,1.5
	c4.1,4.1,4.6,8.7,2.4,13.9c-1.2,2.8-2.9,4.7-5,6.1h207.9h33.8l-9.3-26.8L471.5,134z M236.5,174.5
	C236.6,173.7,237.8,174.8,236.5,174.5L236.5,174.5z M246,158.9C246.9,158.1,245.2,159.8,246,158.9L246,158.9z M254.3,153.3
	C254.3,152.4,255.5,153.6,254.3,153.3L254.3,153.3z M428.5,144.5C429.5,143.8,427.7,145.5,428.5,144.5L428.5,144.5z M371.5,148.6
	C372.9,148.7,371.2,150.3,371.5,148.6L371.5,148.6z M358.1,145.1C358.1,144.2,359.3,145.3,358.1,145.1L358.1,145.1z M256.4,158.6
	C256.8,157.6,257.2,159.8,256.4,158.6L256.4,158.6z M267.1,179.8C267.5,178.9,268.7,180.2,267.1,179.8L267.1,179.8z M270.9,177.4
	h-2.7v-29.8h4.4c4.7,0,10,0.3,10,15.4C282.6,176.8,278,177.4,270.9,177.4z M291,162.4C291.1,161.6,292.3,162.7,291,162.4L291,162.4z
	 M303.2,151h-6.7v9.4h2.8c-0.1,0-0.2,0-0.3,0c0.1-0.8,0.9,0,0.4,0h3.1v3.4h-6V174h6.7v3.4h-10.6v-29.8h10.6V151z M300.2,164.5
	C300.2,163.6,301.5,164.8,300.2,164.5L300.2,164.5z M304.2,176C304.2,175.1,305.4,176.3,304.2,176L304.2,176z M309.7,178.1
	C309.7,177.2,310.9,178.4,309.7,178.1L309.7,178.1z M310,157.1C310.3,156.2,311.6,157.5,310,157.1L310,157.1z M312.1,175.5
	C312.1,175.4,312.1,175.4,312.1,175.5c0-0.1,0-0.2,0-0.2C312.1,175.3,312.1,175.4,312.1,175.5z M319,177.4h-3.2l-5.8-29.8h4
	l3.4,22.4h0.1l0.2-1.9l1.6-10.1l1.8-10.5h3.8L319,177.4z M330.2,148.9C329.5,149.8,328.2,148.5,330.2,148.9L330.2,148.9z M344.1,151
	h-6.7v9.4h6v3.4h-6V174h4c0.1-0.1,0.3-0.2,1-0.1c0,0,0,0-0.1,0.1h1.8v3.4h-10.6v-29.8h10.6V151z M343.7,157.1
	C344.4,156,344.1,158.1,343.7,157.1L343.7,157.1z M349.8,147.4C349.2,149.6,348,147.8,349.8,147.4L349.8,147.4z M350.4,152.1
	C350.3,152,350.6,152.3,350.4,152.1L350.4,152.1z M351.8,160c0-0.1,0.1-0.3,0.2-0.8c0,0,0-0.1,0-0.1
	C351.9,159.4,351.8,159.9,351.8,160z M353.2,147.6h4V174h6.7v3.4h-10.6V147.6z M363.6,180.4C363.6,179.6,364.8,180.7,363.6,180.4
	L363.6,180.4z M367.5,170.4C367.7,170.6,367.4,170.3,367.5,170.4L367.5,170.4z M384.7,182.2C384.9,182.4,384.6,182.1,384.7,182.2
	L384.7,182.2z M379.2,177.8c-7.7,0-7.8-9.9-7.8-15.3c0-5.4,0.1-15.3,7.8-15.3c7.7,0,7.8,9.9,7.8,15.3
	C387,167.9,386.9,177.8,379.2,177.8z M389.4,181.1c0,0,0.2-0.1,0.5-0.2C389.6,181,389.4,181,389.4,181.1z M390.2,180.7L390.2,180.7
	c0.1,0,0.1,0,0.1-0.1C390.3,180.7,390.3,180.7,390.2,180.7z M393.9,143.9C394.1,144.1,393.8,143.8,393.9,143.9L393.9,143.9z
	 M395.4,145.6C395.6,145.8,395.3,145.5,395.4,145.6L395.4,145.6z M401.8,172.8C401.7,172.6,402,173,401.8,172.8L401.8,172.8z
	 M404.3,181.6C404.2,181.5,404.5,181.8,404.3,181.6L404.3,181.6z M407.7,163.6C407.9,163.8,407.5,163.5,407.7,163.6L407.7,163.6z
	 M401,164.2v13.2h-4v-29.8h4.8c3.4,0,7.8,0.3,7.8,8C409.5,161.7,407.1,164.5,401,164.2z M411.4,162.8
	C411.3,162.8,411.4,162.8,411.4,162.8C411.3,162.7,411.3,162.7,411.4,162.8C411.4,162.8,411.4,162.8,411.4,162.8
	C411.4,162.8,411.4,162.8,411.4,162.8z M422.4,183.1C422.7,182.2,424,183.4,422.4,183.1L422.4,183.1z M429,151h-6.7v9.4h6v3.4h-6
	V174h6.7v3.4h-10.6v-29.8H429V151z M430,163.3C431.3,163.5,429.7,165,430,163.3L430,163.3z M433.7,154.8
	C433.6,154.7,433.9,155,433.7,154.8L433.7,154.8z M436.4,146.2C436.5,145.4,437.7,146.5,436.4,146.2L436.4,146.2z M469.5,189.3
	C469.9,188.4,471.1,189.6,469.5,189.3L469.5,189.3z M449.9,150.4C450.4,149.4,450.7,151.5,449.9,150.4L449.9,150.4z M443.8,179
	C443.6,178.1,446.6,178.5,443.8,179L443.8,179z M445.6,187.8C445.5,187.7,445.8,188,445.6,187.8L445.6,187.8z M446.6,187.2
	C446.7,187.4,446.4,187.1,446.6,187.2L446.6,187.2z M442,162.8L442,162.8l-0.1,14.6h-4v-20c-0.1,0-0.2,0-0.3,0
	c0-0.3,0.2-0.4,0.3-0.3v-9.5h4.8c2.9,0,7.4,0.2,7.4,7.6c0,2.8-0.8,7.1-4.1,7.7l5.5,14.5h-4.1L442,162.8z M451.1,189.9
	C452.5,188.8,452.3,190.7,451.1,189.9L451.1,189.9z M452.7,158.9C452.7,158,453.9,159.2,452.7,158.9L452.7,158.9z M455.7,176.9
	C456.1,176,457.4,177.2,455.7,176.9L455.7,176.9z M460.3,159.2C460.2,159.1,460.5,159.4,460.3,159.2L460.3,159.2z M461.6,188.7
	C461.4,188.6,461.8,188.9,461.6,188.7L461.6,188.7z"/>
<path fill="#FFFFFF" d="M379.2,150.9c-3.1,0-3.6,5.3-3.6,11.6c0,6.3,0.4,11.6,3.6,11.6c3.1,0,3.6-5.3,3.6-11.6
	C382.8,156.2,382.4,150.9,379.2,150.9z"/>
<path fill="#FFFFFF" d="M26.6,151v23.1c6.5,0.2,6.3-6,6.3-11C32.8,158.4,33.3,150.6,26.6,151z"/>
<path fill="#FFFFFF" d="M174.4,151h-0.6v9.9c3,0.2,4-1.7,4-4.7C177.8,153.3,177.4,150.9,174.4,151z"/>
<path fill="#FFFFFF" d="M272.1,151v0.6c0.4-0.1,0.4,0.6,0,0.5v22c6.5,0.2,6.3-6,6.3-11C278.4,158.4,278.8,150.6,272.1,151z"/>
<path fill="#FFFFFF" d="M198.6,63.2c3.8,3.7,7.6,7.7,10.6,12.1c3.5,5.1,5.9,10.8,3.6,16.5c-5.5,3.4-10,5.9-14.1,8.9
	c-3.6,2.6-6.6,5.4-7.7,9.9c-1.1,4.2,0.6,7.1,4.1,7.8c1.8,0.4,3.6,0,5.2-0.9c8.1-4.5,12.1-12.9,16.3-20.7c0,0,17.8-6.1,23.1-12.9
	c-0.4,3.8-3.3,11.7-3.8,14.6c-0.7,3.7,4.1,5.9,6.4,2.9c1.1-1.5,2-3.1,2.9-4.7c4.4-7.6,8.6-15.3,13-22.9c0.8-1.3,1.5-2.7,2.5-3.9
	c1.4-1.9,4.4-0.6,4,1.7c-0.2,1.1-0.5,2.2-0.9,3.4c-1.6,4.6-2.2,9.4-2.6,14.3c-0.2,2.6-1,5.6-1,8.4c0,5.1,6.1,8,9.9,4.6
	c2.7-2.4,4.2-6.3,7-8.6c0.9,0.7,1.8,1.4,2.7,2c2.4,1.8,5.7,2,8.1,0.4c2.1-1.4,3.9-3.2,5.6-5.2c-0.3,0.1-0.8-0.1-0.2-0.7
	c0.3,0.2,0.4,0.4,0.3,0.5c1.7-2,3.4-4.1,5.4-6.2c-0.1,4.3-0.5,7.7-0.2,11c0.1,0.8,0.2,1.7,0.3,2.6c0.7,4.3,5.8,6.5,9.3,3.9
	c1.5-1.1,2.7-2.5,3.7-4c4.4-6.9,8.5-14.1,12.5-21.4c1.2-2.2,2.2-4.5,3.2-7c0.8-1.9,2.9-2.9,5-2.3c1.1,0.4,2.3,0.7,3.4,1
	c2.1,0.6,3.2,2.9,2.4,4.9c-0.7,1.9-1.4,3.6-1.9,5.3c-1.1,4-2.4,8-2.8,12.1c-0.1,1.2-0.1,2.5,0.1,3.6c0.9,4.3,6,5.9,9.4,3
	c6.7-5.7,9.5-14.4,14.4-21.7c0.5-0.7,1.6-0.3,1.5,0.6c-0.4,2.4-0.9,4.7-1,7c0,2-1.1,4.2-1.1,6.4c0,2.3,2.9,3.3,4.4,1.6
	c8.3-9.4,12.3-21.7,20.8-31.9c0.9-1,2.6-0.3,2.4,1.1c-1,9.7-4.6,18.3-4.6,27.9c0,2.1,2.5,3.2,4.1,1.8c8.2-7.4,11.4-18.1,20.9-24.6
	c-0.7,4.8-1.3,8.1-1.7,11.5c-0.5,3.6-1.3,7.3-1,10.9c0.1,2.1,1.6,4.7,3.2,6c2.2,1.8,4.7,0,6.5-1.6c1.6-1.4,3-3.2,4.3-4.9
	c1.6-2.1,3-4.4,4.5-6.6c1.2,1.2,2.4,2.3,3.5,3.5c2,2,5.2,2.4,7.6,1c4.6-2.8,7.2-7.7,11.6-11.4c-0.1,4.2-0.6,7.4-0.3,10.5
	c0,0.3,0,0.5,0.1,0.8c0.5,5,6.3,7.5,10.1,4.3c6-5,11.8-13.7,13.6-20.7c0.3-1.3-1.5-2-2.2-0.8c-1.5,2.8-2.8,5.3-4.4,7.8
	c-2.1,3.1-3.4,7.2-7.3,9.1c-1.6,0.8-3.4,0-3.9-1.7c-2.5-9.1,1.3-17.6,3.4-26.4c0.5-2.3-1.3-4.5-3.7-4.3l-1,0.1
	c-4.3-5.1-6.6-5.7-11.7-1.2c-3.8,3.3-7,7.5-9.7,11.8c-3.9,6.2-6.8,12.9-10.5,19.2c-1.5,2.6-3.9,4.6-5.8,6.9
	c-0.8-0.2-0.9-0.2-1.6-0.5c-0.3-1.7-0.9-3.5-0.7-5.2c0.4-4.1,1.4-8.2,1.9-12.3c0.3-2.6,0.5-5.4,0-8c-1-5.3-5-6.8-9.1-3.4
	c-2.2,1.8-4.1,4.2-5.8,6.5c-1.9,2.4-3.5,5-6,8.7c-0.2-6.6,2.6-12.9,1.7-18.8c-0.6-4.2-5.8-5.7-8.8-2.8c-7.4,7.2-11,17.1-17.3,25.7
	c-0.2-6.8,2.4-12.9,1.6-19.7c-0.3-2.3-3.3-2.9-4.5-0.9c-1.8,3.2-3.1,5.7-4.6,8.9c-3.4,7.2-7.1,14.2-11,21.1c-1.4,2.4-3,4.8-6.2,5.6
	c-2.1-2.9-1.4-5.7-0.4-8.5c1.4-3.6,3.1-7.1,4.5-10.8c1.8-5,0.4-7.9-4.7-9.6c-2.7-0.9-5.4-1.5-8.4-2.3c1.3-3.9,3.1-7.4,3.5-10.9
	c0.5-4.5-3.5-8.6-8-7.6c-2.7,0.6-4.1,3.1-3.8,7.3c0.3,4.2,2,8.3,3.5,14c-4,7.7-8.5,16.8-13.4,25.8c-0.9,1.6-1.9,3.4-3.7,4.3
	c-1.8,0.9-3.9-0.1-4.5-2c-2.4-8.9,1.5-17.3,3.5-26.2c0.5-2.2-1.2-4.2-3.4-4l-1.1,0.1c-4.4-5.1-6.3-5.4-11.8-1.4
	c-1.6,1.1-3.2,2.4-4.2,4c-3.3,5.4-6.3,10.9-9.4,16.4c-2.5,4.4-4.7,9-7.3,13.4c-0.5,0.8-1.2,1.4-2.2,2.1c-1.3,0.9-3.1,0-3.1-1.6
	c0.1-2.4,0.2-4.3,0.5-6.1c0.7-4.3,1.9-8.6,2.8-12.9c0.8-4.1,1.5-8.2,1.8-12.3c0,0,0-0.1,0-0.1c0.3-4.4-4.8-6.9-8.1-4
	c-7.5,6.6-11.1,17.1-17.8,26.4c0.7-9.1,2.8-16,6.1-22.6c5.7-11.9,10.5-24.2,13.1-37.2c0.5-2.7,0.9-5.3,0.3-7.8
	c-0.5-2.1-2.3-3.8-4.4-3.6c-1.8,0.1-3.2,1.3-4.2,3.1c-1.8,3.1-3.7,6.4-4.7,9.8c-2.6,8.9-5.4,17.8-6.9,26.9c-0.7,4-1.1,7.2-1.6,10
	c-2.1,12.6-11.8,22.6-24.3,25.3c-0.1,0-0.2,0.1-0.4,0.1c0.2-9.5-3.7-16.9-9.3-23.5c0,0.1-0.1,0.2-0.6,0.1c0-0.3,0.2-0.4,0.4-0.3
	c-0.6-0.7-1.2-1.3-1.8-2c-2.3-2.5-4.8-4.9-6.7-7.7c-1.7-2.6-3.3-5.5-3.8-8.5c-1.9-10.8,7.9-21.8,19.8-22.5c8-0.5,13.2,4.8,12.1,12.6
	c-0.1,0.7-0.3,1.3-0.6,2c-0.9,1.9,1.5,3.9,3.1,2.5c0.8-0.7,1.3-1.6,1.8-2.7c2.1-4.8,1-9.2-2.3-12.9c-5.2-5.9-12-7.6-19.3-6
	c-9.6,2.1-15.9,8.4-18.8,17.7C189,49.1,191.9,56.6,198.6,63.2z M199.1,101.8C199.8,100.6,199.5,102.7,199.1,101.8L199.1,101.8z
	 M192.9,114.7c-0.5,0.2,0.7-0.3,0.9-0.3C193.7,114.4,193.5,114.5,192.9,114.7z M203.7,113.6C203.8,112.7,205,113.9,203.7,113.6
	L203.7,113.6z M205.8,110.9C205.8,110.9,205.8,110.9,205.8,110.9c-0.1,0.2-0.2,0.3-0.2,0.4C205.7,111.2,205.7,111.1,205.8,110.9
	C205.8,110.9,205.8,110.9,205.8,110.9C205.8,110.9,205.8,110.9,205.8,110.9c0.1-0.2,0.2-0.4,0.2-0.4
	C206,110.5,205.9,110.7,205.8,110.9z M207.3,105.3C206.5,104.4,208.3,106.1,207.3,105.3L207.3,105.3z M198,115.1
	c-1.9,1.3-4.7,0-4.5-2.4c0,0-0.5-6.6,15.4-12.5C205.9,105.6,203.5,111.2,198,115.1z M262.5,92.3C263.5,91.6,261.7,93.3,262.5,92.3
	L262.5,92.3z M336.8,96.5C337.7,95.7,336,97.4,336.8,96.5L336.8,96.5z M437.9,56.8c2.1-2.2,5.3-2.9,8.2-1.9c0,0,0,0,0.1,0
	c1,0.4,1.5,1.4,1.2,2.4c-3.3,10.2-8.5,18.2-14.1,21.8c-2.2,1.4-5-0.3-4.9-2.9C428.6,70.2,432.2,62.8,437.9,56.8z M423.8,81.7
	C424.6,80.6,424.3,82.7,423.8,81.7L423.8,81.7z M417.4,83.8C417.5,82.9,418.7,84.1,417.4,83.8L417.4,83.8z M388.3,55.2
	C388.7,54.3,389.9,55.5,388.3,55.2L388.3,55.2z M372.7,69.3C372.7,68.5,374,69.6,372.7,69.3L372.7,69.3z M360.1,63.2
	C361.1,62.3,359.3,64.1,360.1,63.2L360.1,63.2z M355.8,72.9C355.7,72.8,356,73.1,355.8,72.9L355.8,72.9z M293.2,67.7
	c2-2,5-2.7,7.7-1.9c0,0,0,0,0.1,0c1.3,0.4,2.1,1.7,1.9,3c-0.8,5.7-8.8,17-15.8,21.9c-1.5,1.1-3.6-0.1-3.6-1.9
	C283.5,82,287.3,73.9,293.2,67.7z M262.1,65.2C262.5,64.3,263.8,65.5,262.1,65.2L262.1,65.2z M257,25.6c0.5-1.2,2.3-0.7,2.2,0.6
	c-1.2,11.1-5.5,21.2-10.3,31.2C250.4,46.4,252.4,35.6,257,25.6z M242.6,92.9C242.6,92,243.8,93.2,242.6,92.9L242.6,92.9z
	 M228.2,90.3C228.2,89.4,229.4,90.6,228.2,90.3L228.2,90.3z M213.2,96.2C213.2,95.3,214.4,96.5,213.2,96.2L213.2,96.2z"/>
<line fill="none" stroke="#000000" stroke-width="0" stroke-linecap="round" stroke-linejoin="round" x1="55.7" y1="59.7" x2="55.5" y2="59.7"/>
<path fill="#FFFFFF" d="M11.9,99.5c-3.6,2.6-6.6,5.4-7.7,9.9c-1.1,4.2,0.6,7.1,4.1,7.8c1.8,0.4,3.6,0,5.2-0.9
	c8.1-4.5,12.1-12.9,16.3-20.7c0,0,9.8-6.2,13.7-12.8c0,0.3,0.1,0.6,0.1,0.8c0.8,4,2.7,7.6,7.1,8.8c1.4,0.4,3,0.2,4.3-0.4
	c7.9-3.4,8.2-12.3,11.1-19.5c6.2,2.8,10.9-0.5,16.1-3.3C82,76,79.6,81.8,79.5,87.9c0,2.1,2.4,3.4,4,2.1c1.3-1,2.1-2.6,3-4
	c4.4-7,8.5-14.3,12.8-21.4c1.2-2,2.4-4.2,4.2-6.1c1.3-1.5,3.8-0.3,3.5,1.6c-0.3,1.8-0.5,3.5-0.8,5.1c-1.1,6.5-2.5,12.9-3.4,19.4
	c-0.2,1.3-0.3,2.6-0.2,3.8c0.4,4.4,5.5,6.6,9,3.8c3.6-2.9,5.6-7.3,8.5-10.9c0.9,0.8,1.8,1.6,2.6,2.4c2.7,2.5,6.7,2.8,9.6,0.7
	c3.9-2.8,6.3-7.1,9.9-10.5c0.8,4.1-0.3,8.6,0.4,12.6c0.8,4.6,6.4,6.6,10,3.7c5.6-4.5,8.6-11.5,13.4-18.3c-0.8,5.3-1.7,8.8-1.8,12.4
	c0,0.8-0.1,1.6-0.2,2.4c-0.3,4.8,5.3,7.6,9.1,4.5c3.4-2.8,6.6-7,10.3-13.2c3.3-5.5,4.9-8.5,5.5-11.1c0.3-1.5-1.7-2.2-2.4-0.9
	c-1.9,3.5-3.7,6.8-5.8,9.9c-2.2,3.3-4.2,7.2-8,9.6c-1.8,1.1-4.1-0.4-3.8-2.5c1.8-10.9,4-21.1,8-30.9c4-9.7,8.1-19.4,11.6-29.2
	c1.9-5.2,2.7-10.8,3.7-16.4c0.2-1.1,0.2-2.2,0-3.2c-0.7-3.3-4.8-4.6-7.5-2.4c-3.3,2.7-4.7,6.9-5.8,10.8c-3.4,11.7-6.7,23.5-8.7,35.4
	c-2.2,12.7-8.5,23.2-14.5,34c-0.5,0.9-1.1,1.8-1.8,2.6c-1.9,2-5.4,1.2-6.3-1.5c-0.6-1.7-0.5-3.5-0.2-5.2c1.4-7.2,3.2-14.2,4.7-21.4
	c0.1-0.5,0.1-1,0.1-1.5c0-1.2-1-2.3-2.2-2.4c-0.1,0-0.2,0-0.3,0c-0.9,0.1-1.7,0.6-2.5,0.9c-4.5-5.3-6.4-5.6-11.5-1.9
	c-2,1.4-3.9,3.1-5.2,5.1c-3.2,4.9-5.9,10-8.9,15.1c-3,5-5.8,10.1-9,15c-0.5,0.8-1.4,1.3-2.7,2c-0.9,0.5-2.1-0.2-2-1.2
	c0.1-2.6,0.1-4.6,0.5-6.6c0.9-5,2.3-10,3.2-15c0.7-3.8,1-7.7,1.2-11.6c0,0,0-0.1,0-0.1c0.2-4-4.6-6.1-7.6-3.4
	c-7.9,7-11.8,17.5-18.2,27.1c-0.7-6.7,2.4-13,1.4-19.9c-0.3-2.4-3.6-3-4.7-0.8c-0.9,1.8-1.6,3.3-2.4,4.9c-3.8,7.8-8,8.9-15.8,4
	c-0.7-2.3-1.4-4.6-2.2-7.4c2.5-3.4,3-5.3,1.5-7.1c-1.8-2.1-4.1-2.8-6.6-1.6c-2.2,1.1-4.4,2.2-6.1,3.9C45.3,60,42.6,68,42.9,76.7
	c-2.1,4-5.2,8.4-10.3,11.2c-0.1,0.1-1.6,0.7-1.8,0.8c0.3-10.6-4.5-17.1-11.2-24.2c-2.3-2.5-4.8-4.9-6.7-7.7
	c-1.7-2.6-3.3-5.5-3.8-8.5C7.3,37.4,17.1,26.5,29,25.7c8-0.5,13.2,4.8,12.1,12.6c-0.1,0.7-0.3,1.3-0.6,2c-0.9,1.9,1.5,3.9,3.1,2.5
	c0.8-0.7,1.3-1.6,1.8-2.7c2.1-4.8,1-9.2-2.3-12.9c-5.2-5.9-12-7.6-19.3-6C14.2,23.3,7.9,29.6,5,38.9C2.1,48,5,55.6,11.8,62.1
	c3.8,3.7,7.6,7.7,10.6,12.1c3.5,5.1,5.9,10.8,3.6,16.5C20.5,94.1,16,96.5,11.9,99.5z M11.1,114c-1.9,1.3-4.7,0-4.5-2.4
	c0,0-0.5-5.5,15.4-12.5C19.1,104.5,16.6,110.2,11.1,114z M183.5,76.4C184.5,75.6,182.8,77.3,183.5,76.4L183.5,76.4z M173.7,87.6
	C173.8,86.7,175,87.8,173.7,87.6L173.7,87.6z M185.5,7.7c0.7-1.3,2.7-0.6,2.5,0.9c-1.8,11.7-6.3,21.8-10.6,31.8
	C177.6,29.6,181.3,15.4,185.5,7.7z M150.1,54.5C151.2,53.8,149.4,55.5,150.1,54.5L150.1,54.5z M143.7,53.7
	C144.1,52.8,145.3,54,143.7,53.7L143.7,53.7z M136.2,57.3c1.8-2.2,4.9-3.2,7.6-2.3c0,0,0,0,0.1,0c1.5,0.5,2.4,2.1,1.9,3.6
	c-2.9,8.7-7.5,16.1-15.5,22.1c-1.5,1.1-3.6,0-3.5-1.9C127.1,69.9,131.2,63.4,136.2,57.3z M118.3,79.9
	C119.3,79.2,117.6,80.9,118.3,79.9L118.3,79.9z M102.1,54.5C102.1,53.7,103.3,54.8,102.1,54.5L102.1,54.5z M101.8,58.7
	C101.8,57.8,103,59,101.8,58.7L101.8,58.7z M97.5,66C96.5,67.1,96.4,65.1,97.5,66L97.5,66z M91,72.8C91.1,71.9,92.3,73.1,91,72.8
	L91,72.8z M85.9,60.6c0,0.1-0.1,0.1-0.1,0.2c0,0,0,0,0,0C85.9,60.7,85.9,60.6,85.9,60.6z M84.9,56.6C85.3,55.6,85.6,57.8,84.9,56.6
	L84.9,56.6z M77,70.7C77.1,69.8,78.3,71,77,70.7L77,70.7z M73.3,70.7C73.4,69.8,74.6,71,73.3,70.7L73.3,70.7z M71.1,69.6
	C71.2,68.7,72.4,69.9,71.1,69.6L71.1,69.6z M67.5,70.4C67.6,69.5,68.8,70.7,67.5,70.4L67.5,70.4z M47.6,84.6
	C48,83.6,48.3,85.8,47.6,84.6L47.6,84.6z M62.3,66.6C63.7,66.8,62,68.4,62.3,66.6L62.3,66.6z M59.6,64.8c0,0,0.4,0.7,0.9,1.4
	c0.7,1.2,1.2,2.6,1.2,4.1c0,4.3-2.4,9.3-4.9,13.1c-1.7,2.6-5.7,2-6.6-0.9c-0.4-1.2-0.6-2.5-0.8-3.7c-0.2-1.4,0.2-2.8,1.1-3.8
	c1.9-2.4,5.1-6.6,6.9-9.3C58.3,64.1,59,63,59.6,64.8z M52.3,60c1.1-1.7,3.3-3.8,4.5-2.5c1.3,1.3-7,9.7-9.9,14
	C48.3,67.4,50.1,63.6,52.3,60z M44.5,66C44.9,65.1,46.1,66.4,44.5,66L44.5,66z M43.9,81.7C43.8,81.6,44.1,81.9,43.9,81.7L43.9,81.7z
	 M35.3,89.1C35.4,88.2,36.6,89.3,35.3,89.1L35.3,89.1z M9.3,52.8C9.4,51.9,10.6,53.1,9.3,52.8L9.3,52.8z M12.4,59.6
	C11.9,61.6,10.6,60.4,12.4,59.6L12.4,59.6z M15.1,61.9C16.5,60.8,16.3,62.7,15.1,61.9L15.1,61.9z"/>
<path fill="#FFFFFF" d="M9.3,52.8C10.6,53.1,9.4,51.9,9.3,52.8L9.3,52.8z"/>
<path fill="#FFFFFF" d="M143.7,53.7C145.3,54,144.1,52.8,143.7,53.7L143.7,53.7z"/>
<path fill="#FFFFFF" d="M102.1,54.5C103.3,54.8,102.1,53.7,102.1,54.5L102.1,54.5z"/>
<path fill="#FFFFFF" d="M150.1,54.5C149.4,55.5,151.2,53.8,150.1,54.5L150.1,54.5z"/>
<path fill="#FFFFFF" d="M84.9,56.6C85.6,57.8,85.3,55.6,84.9,56.6L84.9,56.6z"/>
<path fill="#FFFFFF" d="M101.8,58.7C103,59,101.8,57.8,101.8,58.7L101.8,58.7z"/>
<path fill="#FFFFFF" d="M15.1,61.9C16.3,62.7,16.5,60.8,15.1,61.9L15.1,61.9z"/>
<path fill="#FFFFFF" d="M85.9,60.6c0,0.1-0.1,0.1-0.1,0.2c0,0,0,0,0,0C85.9,60.7,85.9,60.6,85.9,60.6z"/>
<path fill="#FFFFFF" d="M67.5,70.4C68.8,70.7,67.6,69.5,67.5,70.4L67.5,70.4z"/>
<path fill="#FFFFFF" d="M73.3,70.7C74.6,71,73.4,69.8,73.3,70.7L73.3,70.7z"/>
<path fill="#FFFFFF" d="M77,70.7C78.3,71,77.1,69.8,77,70.7L77,70.7z"/>
<path fill="#FFFFFF" d="M44.5,66C46.1,66.4,44.9,65.1,44.5,66L44.5,66z"/>
<path fill="#FFFFFF" d="M97.5,66C96.4,65.1,96.5,67.1,97.5,66L97.5,66z"/>
<path fill="#FFFFFF" d="M62.3,66.6C62,68.4,63.7,66.8,62.3,66.6L62.3,66.6z"/>
<path fill="#FFFFFF" d="M388.3,55.2C389.9,55.5,388.7,54.3,388.3,55.2L388.3,55.2z"/>
<path fill="#FFFFFF" d="M71.1,69.6C72.4,69.9,71.2,68.7,71.1,69.6L71.1,69.6z"/>
<path fill="#FFFFFF" d="M91,72.8C92.3,73.1,91.1,71.9,91,72.8L91,72.8z"/>
<path fill="#FFFFFF" d="M183.5,76.4C182.8,77.3,184.5,75.6,183.5,76.4L183.5,76.4z"/>
<path fill="#FFFFFF" d="M262.1,65.2C263.8,65.5,262.5,64.3,262.1,65.2L262.1,65.2z"/>
<path fill="#FFFFFF" d="M208,67.9c0.4,0.1,0.6,0,0.6-0.1c0-0.1-0.1-0.2-0.2-0.2C208.2,67.5,208,67.5,208,67.9z"/>
<path fill="#FFFFFF" d="M118.3,79.9C117.6,80.9,119.3,79.2,118.3,79.9L118.3,79.9z"/>
<path fill="#FFFFFF" d="M372.7,69.3C374,69.6,372.7,68.5,372.7,69.3L372.7,69.3z"/>
<path fill="#FFFFFF" d="M43.9,81.7C44.1,81.9,43.8,81.6,43.9,81.7L43.9,81.7z"/>
<path fill="#FFFFFF" d="M47.6,84.6C48.3,85.8,48,83.6,47.6,84.6L47.6,84.6z"/>
<path fill="#FFFFFF" d="M355.8,72.9C356,73.1,355.7,72.8,355.8,72.9L355.8,72.9z"/>
<path fill="#FFFFFF" d="M173.7,87.6C175,87.8,173.8,86.7,173.7,87.6L173.7,87.6z"/>
<path fill="#FFFFFF" d="M35.3,89.1C36.6,89.3,35.4,88.2,35.3,89.1L35.3,89.1z"/>
<path fill="#FFFFFF" d="M423.8,81.7C424.3,82.7,424.6,80.6,423.8,81.7L423.8,81.7z"/>
<path fill="#FFFFFF" d="M417.4,83.8C418.7,84.1,417.5,82.9,417.4,83.8L417.4,83.8z"/>
<path fill="#FFFFFF" d="M293.4,90c-0.6,0.6,0,0.8,0.2,0.7c0.1,0,0.1-0.1,0.1-0.1C293.8,90.4,293.7,90.2,293.4,90z"/>
<path fill="#FFFFFF" d="M228.2,90.3C229.4,90.6,228.2,89.4,228.2,90.3L228.2,90.3z"/>
<path fill="#FFFFFF" d="M262.5,92.3C261.7,93.3,263.5,91.6,262.5,92.3L262.5,92.3z"/>
<path fill="#FFFFFF" d="M242.6,92.9C243.8,93.2,242.6,92,242.6,92.9L242.6,92.9z"/>
<path fill="#FFFFFF" d="M213.2,96.2C214.4,96.5,213.2,95.3,213.2,96.2L213.2,96.2z"/>
<path fill="#FFFFFF" d="M199.1,101.8C199.5,102.7,199.8,100.6,199.1,101.8L199.1,101.8z"/>
<path fill="#FFFFFF" d="M205.8,110.9c-0.1,0.2-0.1,0.3-0.2,0.4C205.7,111.3,205.7,111.1,205.8,110.9z"/>
<path fill="#FFFFFF" d="M206,110.5c0,0.1-0.1,0.2-0.2,0.4C205.9,110.7,206,110.5,206,110.5z"/>
<path fill="#FFFFFF" d="M205.8,110.9C205.8,110.9,205.8,110.9,205.8,110.9C205.8,110.9,205.8,110.9,205.8,110.9
	C205.8,110.9,205.8,110.9,205.8,110.9z"/>
<path fill="#FFFFFF" d="M203.7,113.6C205,113.9,203.8,112.7,203.7,113.6L203.7,113.6z"/>
<path fill="#FFFFFF" d="M158.7,143.6C160,143.9,158.8,142.7,158.7,143.6L158.7,143.6z"/>
<path fill="#FFFFFF" d="M393.9,143.9C393.8,143.8,394.1,144.1,393.9,143.9L393.9,143.9z"/>
<path fill="#FFFFFF" d="M139.3,144.7c0-0.2,0.1-0.5,0.1-0.6c0,0,0,0,0,0.1C139.4,144.4,139.3,144.6,139.3,144.7z"/>
<path fill="#FFFFFF" d="M428.5,144.5C427.7,145.5,429.5,143.8,428.5,144.5L428.5,144.5z"/>
<path fill="#FFFFFF" d="M9.6,145.1C8.9,146,10.6,144.3,9.6,145.1L9.6,145.1z"/>
<path fill="#FFFFFF" d="M358.1,145.1C359.3,145.3,358.1,144.2,358.1,145.1L358.1,145.1z"/>
<path fill="#FFFFFF" d="M28.3,145.4C29.5,145.6,28.3,144.5,28.3,145.4L28.3,145.4z"/>
<path fill="#FFFFFF" d="M38.4,145.4C38.8,146.3,39.1,144.2,38.4,145.4L38.4,145.4z"/>
<path fill="#FFFFFF" d="M186.9,145.6C186.1,146.6,187.9,144.9,186.9,145.6L186.9,145.6z"/>
<path fill="#FFFFFF" d="M395.4,145.6C395.3,145.5,395.6,145.8,395.4,145.6L395.4,145.6z"/>
<path fill="#FFFFFF" d="M123.8,145.9C122.8,145,122.9,147,123.8,145.9L123.8,145.9z"/>
<path fill="#FFFFFF" d="M436.4,146.2C437.7,146.5,436.5,145.4,436.4,146.2L436.4,146.2z"/>
<path fill="#FFFFFF" d="M159.5,147.6c0-0.3-0.2-0.8-0.5-0.2c0.1,0.1,0.1,0.1,0.2,0.2C159.4,147.8,159.5,147.8,159.5,147.6z"/>
<path fill="#FFFFFF" d="M152.9,148.3C152.2,149.3,153.9,147.6,152.9,148.3L152.9,148.3z"/>
<path fill="#FFFFFF" d="M340,148.3C341.3,148.6,340.1,147.4,340,148.3L340,148.3z"/>
<path fill="#FFFFFF" d="M371.5,148.6C371.2,150.3,372.9,148.7,371.5,148.6L371.5,148.6z"/>
<path fill="#FFFFFF" d="M330.2,148.9C328.2,148.5,329.5,149.8,330.2,148.9L330.2,148.9z"/>
<path fill="#FFFFFF" d="M53.1,149.5C54.7,149.8,53.4,148.6,53.1,149.5L53.1,149.5z"/>
<path fill="#FFFFFF" d="M449.9,150.4C450.7,151.5,450.4,149.4,449.9,150.4L449.9,150.4z"/>
<path fill="#FFFFFF" d="M153.8,151C155.4,151.3,154.2,150.1,153.8,151L153.8,151z"/>
<path fill="#FFFFFF" d="M272.1,151.5c-0.1,0-0.2,0.1-0.4,0.3c0.2,0.2,0.3,0.2,0.4,0.2C272.5,152.1,272.5,151.4,272.1,151.5z"/>
<path fill="#FFFFFF" d="M350.4,152.1C350.6,152.3,350.3,152,350.4,152.1L350.4,152.1z"/>
<path fill="#FFFFFF" d="M254.3,153.3C255.5,153.6,254.3,152.4,254.3,153.3L254.3,153.3z"/>
<path fill="#FFFFFF" d="M311.2,153.3C312.8,153.6,311.6,152.4,311.2,153.3L311.2,153.3z"/>
<path fill="#FFFFFF" d="M408,153.6C406.4,154.3,409,154.4,408,153.6L408,153.6z"/>
<path fill="#FFFFFF" d="M433.7,154.8C433.9,155,433.6,154.7,433.7,154.8L433.7,154.8z"/>
<path fill="#FFFFFF" d="M42.1,156.3C43.7,156.6,42.4,155.4,42.1,156.3L42.1,156.3z"/>
<path fill="#FFFFFF" d="M182.9,156.3C184.5,156.6,183.3,155.4,182.9,156.3L182.9,156.3z"/>
<path fill="#FFFFFF" d="M186.6,156C184.6,155.6,185.9,156.9,186.6,156L186.6,156z"/>
<path fill="#FFFFFF" d="M310,157.1C311.6,157.5,310.3,156.2,310,157.1L310,157.1z"/>
<path fill="#FFFFFF" d="M343.7,157.1C344.1,158.1,344.4,156,343.7,157.1L343.7,157.1z"/>
<path fill="#FFFFFF" d="M438,157.1c-0.1,0-0.3,0-0.3,0.3c0.1,0,0.2,0,0.3,0C438.4,157.5,438.2,157.2,438,157.1z"/>
<path fill="#FFFFFF" d="M440.7,158.3C441.7,159.3,441.2,157.3,440.7,158.3L440.7,158.3z"/>
<path fill="#FFFFFF" d="M52.5,158.6C53.7,158.9,52.5,157.7,52.5,158.6L52.5,158.6z"/>
<path fill="#FFFFFF" d="M256.4,158.6C257.2,159.8,256.8,157.6,256.4,158.6L256.4,158.6z"/>
<path fill="#FFFFFF" d="M443.2,158.9C443.1,158.8,443.4,159.1,443.2,158.9L443.2,158.9z"/>
<path fill="#FFFFFF" d="M452.7,158.9C453.9,159.2,452.7,158,452.7,158.9L452.7,158.9z"/>
<path fill="#FFFFFF" d="M351.8,160c0-0.1,0.1-0.6,0.2-0.8c0,0,0,0,0,0.1C351.8,159.7,351.8,159.9,351.8,160z"/>
<path fill="#FFFFFF" d="M460.3,159.2C460.5,159.4,460.2,159.1,460.3,159.2L460.3,159.2z"/>
<path fill="#FFFFFF" d="M299.3,160.4c0.6,0-0.3-0.8-0.4,0C299.1,160.4,299.2,160.4,299.3,160.4C299.3,160.4,299.3,160.4,299.3,160.4
	z"/>
<path fill="#FFFFFF" d="M168.2,161.9C169.5,162.1,168.3,161,168.2,161.9L168.2,161.9z"/>
<path fill="#FFFFFF" d="M270.5,161.9C269.7,162.8,271.5,161.1,270.5,161.9L270.5,161.9z"/>
<path fill="#FFFFFF" d="M291,162.4C292.3,162.7,291.1,161.6,291,162.4L291,162.4z"/>
<path fill="none" stroke="#FFFFFF" stroke-width="0" stroke-linecap="round" stroke-linejoin="round" d="M411.4,162.8
	C411.4,162.8,411.4,162.8,411.4,162.8"/>
<path fill="#FFFFFF" d="M411.3,162.7C411.4,162.8,411.3,162.8,411.3,162.7C411.3,162.7,411.3,162.7,411.3,162.7z"/>
<path fill="#FFFFFF" d="M65.9,163.3C67.2,163.6,66,162.5,65.9,163.3L65.9,163.3z"/>
<path fill="#FFFFFF" d="M123.5,163.3C122.8,164.3,124.5,162.6,123.5,163.3L123.5,163.3z"/>
<path fill="#FFFFFF" d="M407.7,163.6C407.5,163.5,407.9,163.8,407.7,163.6L407.7,163.6z"/>
<path fill="#FFFFFF" d="M430,163.3C429.7,165,431.3,163.5,430,163.3L430,163.3z"/>
<path fill="#FFFFFF" d="M300.2,164.5C301.5,164.8,300.2,163.6,300.2,164.5L300.2,164.5z"/>
<path fill="#FFFFFF" d="M87.4,166.9C87.8,167.9,88.1,165.7,87.4,166.9L87.4,166.9z"/>
<path fill="#FFFFFF" d="M8.1,167.3c-0.1,0-0.2-0.1-0.3-0.1c-0.1,0.4,0,0.7,0.1,0.8C8.1,168.2,8.6,167.6,8.1,167.3z"/>
<path fill="#FFFFFF" d="M50.9,168.1C49,167.7,50.3,169,50.9,168.1L50.9,168.1z"/>
<path fill="#FFFFFF" d="M107.6,168.9C109.2,169.3,107.9,168,107.6,168.9L107.6,168.9z"/>
<path fill="#FFFFFF" d="M68.4,170.4C69.7,170.7,68.4,169.5,68.4,170.4L68.4,170.4z"/>
<path fill="#FFFFFF" d="M367.5,170.4C367.4,170.3,367.7,170.6,367.5,170.4L367.5,170.4z"/>
<path fill="#FFFFFF" d="M11.1,171.9C13.3,171.8,11.7,170.3,11.1,171.9L11.1,171.9z"/>
<path fill="#FFFFFF" d="M295.9,171.3C297.2,171.6,296,170.4,295.9,171.3L295.9,171.3z"/>
<path fill="#FFFFFF" d="M102.4,171.9C103.6,172.2,102.4,171,102.4,171.9L102.4,171.9z"/>
<path fill="#FFFFFF" d="M294.4,171.9C295.6,172.2,294.4,171,294.4,171.9L294.4,171.9z"/>
<path fill="#FFFFFF" d="M401.8,172.8C402,173,401.7,172.6,401.8,172.8L401.8,172.8z"/>
<path fill="#FFFFFF" d="M342.4,174C342.4,174,342.4,174,342.4,174c-0.6-0.2-0.9-0.1-0.9,0C341.3,174.2,341.9,174.5,342.4,174z"/>
<path fill="#FFFFFF" d="M21.5,174.5C22.8,174.8,21.6,173.7,21.5,174.5L21.5,174.5z"/>
<path fill="#FFFFFF" d="M65.3,174.5c0,0,0.1-0.1,0.1-0.2C65.4,174.4,65.4,174.5,65.3,174.5L65.3,174.5z"/>
<path fill="#FFFFFF" d="M65.6,174.1c0,0-0.1,0.1-0.1,0.3C65.5,174.2,65.6,174.1,65.6,174.1z"/>
<path fill="#FFFFFF" d="M236.5,174.5C237.8,174.8,236.6,173.7,236.5,174.5L236.5,174.5z"/>
<path fill="#FFFFFF" d="M79.7,175.1C81,175.4,79.8,174.2,79.7,175.1L79.7,175.1z"/>
<path fill="#FFFFFF" d="M197.3,175.4C198.6,175.7,197.4,174.5,197.3,175.4L197.3,175.4z"/>
<path fill="#FFFFFF" d="M312.1,175.5c0-0.1,0-0.1,0-0.2C312.1,175.3,312.1,175.4,312.1,175.5C312.1,175.4,312.1,175.4,312.1,175.5z"
	/>
<path fill="#FFFFFF" d="M15.4,176C16.7,176.3,15.5,175.1,15.4,176L15.4,176z"/>
<path fill="#FFFFFF" d="M304.2,176C305.4,176.3,304.2,175.1,304.2,176L304.2,176z"/>
<path fill="#FFFFFF" d="M425.1,176C426.4,176.3,425.2,175.1,425.1,176L425.1,176z"/>
<path fill="#FFFFFF" d="M455.7,176.9C457.4,177.2,456.1,176,455.7,176.9L455.7,176.9z"/>
<path fill="#FFFFFF" d="M24.3,177.2C24.7,178.2,25.1,176,24.3,177.2L24.3,177.2z"/>
<path fill="#FFFFFF" d="M162.4,177.8C163.7,178.1,162.5,176.9,162.4,177.8L162.4,177.8z"/>
<path fill="#FFFFFF" d="M309.7,178.1C310.9,178.4,309.7,177.2,309.7,178.1L309.7,178.1z"/>
<path fill="#FFFFFF" d="M137.3,179.6C138.6,179.8,137.3,178.7,137.3,179.6L137.3,179.6z"/>
<path fill="#FFFFFF" d="M267.1,179.8C268.7,180.2,267.5,178.9,267.1,179.8L267.1,179.8z"/>
<path fill="#FFFFFF" d="M363.6,180.4C364.8,180.7,363.6,179.6,363.6,180.4L363.6,180.4z"/>
<path fill="#FFFFFF" d="M404.3,181.6C404.5,181.8,404.2,181.5,404.3,181.6L404.3,181.6z"/>
<path fill="#FFFFFF" d="M90.4,182.2C89.7,183.2,91.5,181.5,90.4,182.2L90.4,182.2z"/>
<path fill="#FFFFFF" d="M384.7,182.2C384.6,182.1,384.9,182.4,384.7,182.2L384.7,182.2z"/>
<path fill="#FFFFFF" d="M422.4,183.1C424,183.4,422.7,182.2,422.4,183.1L422.4,183.1z"/>
<path fill="#FFFFFF" d="M140.7,184C141.9,184.3,140.7,183.1,140.7,184L140.7,184z"/>
<path fill="#FFFFFF" d="M118,186.3C117.3,187.3,119,185.6,118,186.3L118,186.3z"/>
<path fill="#FFFFFF" d="M446.6,187.2C446.4,187.1,446.7,187.4,446.6,187.2L446.6,187.2z"/>
<path fill="#FFFFFF" d="M32.9,187.8C34.7,188.7,34.4,186.7,32.9,187.8L32.9,187.8z"/>
<path fill="#FFFFFF" d="M445.6,187.8C445.8,188,445.5,187.7,445.6,187.8L445.6,187.8z"/>
<path fill="#FFFFFF" d="M89.5,188.4C90.8,188.7,89.6,187.5,89.5,188.4L89.5,188.4z"/>
<path fill="#FFFFFF" d="M461.6,188.7C461.8,188.9,461.4,188.6,461.6,188.7L461.6,188.7z"/>
<path fill="#FFFFFF" d="M204.6,189.3C205.9,189.6,204.7,188.4,204.6,189.3L204.6,189.3z"/>
<path fill="#FFFFFF" d="M469.5,189.3C471.1,189.6,469.9,188.4,469.5,189.3L469.5,189.3z"/>
<path fill="#FFFFFF" d="M7.1,189.9C8.8,190.2,7.5,189,7.1,189.9L7.1,189.9z"/>
<path fill="#FFFFFF" d="M99,189.9C100.3,190.1,99.1,189,99,189.9L99,189.9z"/>
<path fill="#FFFFFF" d="M166.7,189.9C168.3,190.2,167,189,166.7,189.9L166.7,189.9z"/>
<path fill="#FFFFFF" d="M451.1,189.9C452.3,190.7,452.5,188.8,451.1,189.9L451.1,189.9z"/>
<path fill="#FFFFFF" d="M105.3,190.4c-0.1,0.5,0.8,0.5,0.7,0c0-0.1-0.1-0.3-0.3-0.6C105.4,190.1,105.3,190.3,105.3,190.4z"/>
<path fill="#FFFFFF" d="M57.2,190.4c-0.1,0-0.2,0.1-0.2,0.3c0.8,0.2,0.6-0.2,0.4-0.3C57.4,190.4,57.3,190.4,57.2,190.4z"/>
<path fill="#FFFFFF" d="M12.4,59.6C10.6,60.4,11.9,61.6,12.4,59.6L12.4,59.6z"/>
<path fill="#FFFFFF" d="M360.1,63.2C359.3,64.1,361.1,62.3,360.1,63.2L360.1,63.2z"/>
<path fill="#FFFFFF" d="M336.8,96.5C336,97.4,337.7,95.7,336.8,96.5L336.8,96.5z"/>
<path fill="#FFFFFF" d="M207.3,105.3C208.3,106.1,206.5,104.4,207.3,105.3L207.3,105.3z"/>
<path fill="#FFFFFF" d="M192.9,114.7c0.5-0.2,0.8-0.3,0.9-0.3C193.6,114.5,192.5,114.9,192.9,114.7z"/>
<path fill="#FFFFFF" d="M156,145.6C155.1,146.5,156.9,144.8,156,145.6L156,145.6z"/>
<path fill="#FFFFFF" d="M349.8,147.4C348,147.8,349.2,149.6,349.8,147.4L349.8,147.4z"/>
<path fill="#FFFFFF" d="M42.4,152.4C40.6,152.6,41.6,153.5,42.4,152.4L42.4,152.4z"/>
<path fill="#FFFFFF" d="M406.7,154.5C403.8,154.9,408,154.5,406.7,154.5L406.7,154.5z"/>
<path fill="#FFFFFF" d="M246,158.9C245.2,159.8,246.9,158.1,246,158.9L246,158.9z"/>
<path fill="#FFFFFF" d="M425.7,174.2C424.9,175.1,426.7,173.4,425.7,174.2L425.7,174.2z"/>
<path fill="#FFFFFF" d="M443.8,179C446.6,178.5,443.6,178.1,443.8,179L443.8,179z"/>
<path fill="#FFFFFF" d="M389.8,180.9c-0.3,0.1-0.4,0.2-0.5,0.2C389.4,181,389.6,181,389.8,180.9z"/>
<path fill="#FFFFFF" d="M390.2,180.7c0.1,0,0.1,0,0.1-0.1C390.3,180.7,390.3,180.7,390.2,180.7L390.2,180.7z"/>
</svg>
