<?xml version="1.0" encoding="utf-8"?>
<!-- Generator: Adobe Illustrator 18.1.1, SVG Export Plug-In . SVG Version: 6.00 Build 0)  -->
<!DOCTYPE svg PUBLIC "-//W3C//DTD SVG 1.1//EN" "http://www.w3.org/Graphics/SVG/1.1/DTD/svg11.dtd">
<svg version="1.1" id="Layer_1" xmlns="http://www.w3.org/2000/svg" xmlns:xlink="http://www.w3.org/1999/xlink" x="0px" y="0px"
	 viewBox="0 306.8 612 187.4" enable-background="new 0 306.8 612 187.4" xml:space="preserve">
<g id="Layer_2">
</g>
<g>
	<g>
		<path fill="#A33153" d="M143.3,372.9c0.5,5.3,4,7.1,7.1,7.1c3.9,0,7.3-2.7,7.3-6.7c0-5.5-3.5-6.5-10.2-9
			c-4.1-1.6-12.7-4.1-12.7-15.3c0-8.5,6.6-15.2,15.6-15.2c6.2,0,15.3,4.3,15.8,15.2h-10.1c-0.4-4.8-3.3-6-6-6
			c-3.1,0-5.5,2.2-5.5,5.4c0,4.6,3.5,5.6,8.9,7.4c4.4,1.4,14,4.8,14,16.4c0,11.5-8.9,17-17.3,17c-6.8,0-16.8-4.6-17.4-16.3H143.3z"
			/>
		<path fill="none" stroke="#231F20" stroke-width="0.5" stroke-miterlimit="10" d="M144.3,367.5c0.5,5.3,4,7.1,7.1,7.1
			c3.9,0,7.3-2.7,7.3-6.7c0-5.5-3.5-6.5-10.2-9c-4.1-1.6-12.7-4.1-12.7-15.3c0-8.5,6.6-15.2,15.6-15.2c6.2,0,15.3,4.3,15.8,15.2
			h-10.1c-0.4-4.8-3.3-6-6-6c-3.1,0-5.5,2.2-5.5,5.4c0,4.6,3.5,5.6,8.9,7.4c4.4,1.4,14,4.8,14,16.4c0,11.5-8.9,17-17.3,17
			c-6.8,0-16.8-4.6-17.4-16.3H144.3z"/>
	</g>
	<g>
		<path fill="#A33153" d="M229.2,333.8c15.1,0,27.9,12.1,27.9,27.9c0,15.3-12.5,27.6-27.9,27.6s-27.9-12.3-27.9-27.6
			C201.4,345.9,214.1,333.8,229.2,333.8z M229.2,380c10.2,0,18-8.6,18-18.4c0-10.2-8-18.6-18-18.6s-18,8.4-18,18.6
			C211.2,371.5,219.1,380,229.2,380z"/>
		<path fill="none" stroke="#231F20" stroke-width="0.5" stroke-miterlimit="10" d="M230.2,328.4c15.1,0,27.9,12.1,27.9,27.9
			c0,15.3-12.5,27.6-27.9,27.6s-27.9-12.3-27.9-27.6C202.4,340.5,215.1,328.4,230.2,328.4z M230.2,374.6c10.2,0,18-8.6,18-18.4
			c0-10.2-8-18.6-18-18.6s-18,8.4-18,18.6C212.2,366.1,220.1,374.6,230.2,374.6z"/>
	</g>
	<g>
		<path fill="#A33153" d="M286.5,336h11.2l22,38.7h0.1V336h9.9v53.3h-11l-22.2-38.7h-0.1v38.7h-9.9V336z"/>
		<path fill="none" stroke="#231F20" stroke-width="0.5" stroke-miterlimit="10" d="M287.5,330.6h11.2l22,38.7h0.1v-38.7h9.9v53.3
			h-11l-22.2-38.7h-0.1v38.7h-9.9V330.6z"/>
	</g>
	<g>
		<path fill="#A33153" d="M383.2,336h7.7l22.3,53.3h-10.9l-5.7-13.8h-19.1l-5.7,13.8H361L383.2,336z M380.9,366.2h12.2l-6-16.3h-0.1
			L380.9,366.2z"/>
		<path fill="none" stroke="#231F20" stroke-width="0.5" stroke-miterlimit="10" d="M384.2,330.6h7.7l22.3,53.3h-10.9l-5.7-13.8
			h-19.1l-5.7,13.8H362L384.2,330.6z M381.9,360.8h12.2l-6-16.3h-0.1L381.9,360.8z"/>
	</g>
	<g>
		<path fill="#A33153" d="M453,336h9.9V380h16.3v9.2H453V336z"/>
		<path fill="none" stroke="#231F20" stroke-width="0.5" stroke-miterlimit="10" d="M454,330.6h9.9v44.1h16.3v9.2H454V330.6z"/>
	</g>
</g>
<g>
	<g>
		<path fill="#A33153" d="M104.5,447.4c0.5,5.3,4,7.1,7.1,7.1c3.9,0,7.3-2.7,7.3-6.7c0-5.5-3.5-6.5-10.2-9
			c-4.1-1.6-12.7-4.1-12.7-15.3c0-8.5,6.6-15.2,15.6-15.2c6.2,0,15.3,4.3,15.8,15.2h-10.1c-0.4-4.8-3.3-6-6-6
			c-3.1,0-5.5,2.2-5.5,5.4c0,4.6,3.5,5.6,8.9,7.4c4.4,1.4,14,4.8,14,16.4c0,11.5-8.9,17-17.3,17c-6.8,0-16.8-4.6-17.4-16.3H104.5z"
			/>
		<path fill="none" stroke="#231F20" stroke-width="0.5" stroke-miterlimit="10" d="M105.5,442c0.5,5.3,4,7.1,7.1,7.1
			c3.9,0,7.3-2.7,7.3-6.7c0-5.5-3.5-6.5-10.2-9c-4.1-1.6-12.7-4.1-12.7-15.3c0-8.5,6.6-15.2,15.6-15.2c6.2,0,15.3,4.3,15.8,15.2
			h-10.1c-0.4-4.8-3.3-6-6-6c-3.1,0-5.5,2.2-5.5,5.4c0,4.6,3.5,5.6,8.9,7.4c4.4,1.4,14,4.8,14,16.4c0,11.5-8.9,17-17.3,17
			c-6.8,0-16.8-4.6-17.4-16.3H105.5z"/>
	</g>
	<g>
		<path fill="#A33153" d="M166.1,410.4h9.9v21.7h19.1v-21.7h9.9v53.3h-9.9v-22.4H176v22.4h-9.9V410.4z"/>
		<path fill="none" stroke="#231F20" stroke-width="0.5" stroke-miterlimit="10" d="M167.1,405h9.9v21.7h19.1V405h9.9v53.3h-9.9
			v-22.4H177v22.4h-9.9V405z"/>
	</g>
	<g>
		<path fill="#A33153" d="M259.7,410.4h7.7l22.3,53.3h-10.9l-5.7-13.8h-19.1l-5.7,13.8h-10.9L259.7,410.4z M257.4,440.7h12.2
			l-6-16.3h-0.1L257.4,440.7z"/>
		<path fill="none" stroke="#231F20" stroke-width="0.5" stroke-miterlimit="10" d="M260.7,405h7.7l22.3,53.3h-10.9l-5.7-13.8h-19.1
			l-5.7,13.8h-10.9L260.7,405z M258.4,435.3h12.2l-6-16.3h-0.1L258.4,435.3z"/>
	</g>
	<g>
		<path fill="#A33153" d="M321.7,410.4H338c6.1,0,9.9,1.2,13,3.6c3,2.4,6.3,6.8,6.3,12.9c0,3.5-1.3,9.1-5.1,12.7
			c-3.2,3-6.2,3.7-8.9,4.4l14.5,19.7h-12l-14.1-20.4h-0.1v20.4h-9.9V410.4z M331.5,435.9h6.3c8.1,0,9.5-5.4,9.5-8.2
			c0-3-1.8-8.1-9.5-8.1h-6.3V435.9z"/>
		<path fill="none" stroke="#231F20" stroke-width="0.5" stroke-miterlimit="10" d="M322.7,405H339c6.1,0,9.9,1.2,13,3.6
			c3,2.4,6.3,6.8,6.3,12.9c0,3.5-1.3,9.1-5.1,12.7c-3.2,3-6.2,3.7-8.9,4.4l14.5,19.7h-12l-14.1-20.4h-0.1v20.4h-9.9V405z
			 M332.5,430.5h6.3c8.1,0,9.5-5.4,9.5-8.2c0-3-1.8-8.1-9.5-8.1h-6.3V430.5z"/>
	</g>
	<g>
		<path fill="#A33153" d="M387.9,410.4h13.7l14.2,40.3h0.1l14-40.3h13.7v53.3h-9.9v-40h-0.1h-0.1l-13.6,40h-8.4l-13.7-40h-0.1v40
			h-9.9V410.4z"/>
		<path fill="none" stroke="#231F20" stroke-width="0.5" stroke-miterlimit="10" d="M388.9,405h13.7l14.2,40.3h0.1l14-40.3h13.7
			v53.3h-9.9v-40h-0.1h-0.1l-13.6,40h-8.4l-13.7-40h-0.1v40h-9.9V405z"/>
	</g>
	<g>
		<path fill="#A33153" d="M488,410.4h7.7l22.3,53.3h-10.9l-5.7-13.8h-19.1l-5.7,13.8h-10.9L488,410.4z M485.6,440.7h12.2l-6-16.3
			h-0.1L485.6,440.7z"/>
		<path fill="none" stroke="#231F20" stroke-width="0.5" stroke-miterlimit="10" d="M489,405h7.7l22.3,53.3h-10.9l-5.7-13.8h-19.1
			l-5.7,13.8h-10.9L489,405z M486.6,435.3h12.2l-6-16.3h-0.1L486.6,435.3z"/>
	</g>
</g>
</svg>
