<?xml version="1.0" encoding="utf-8"?>
<!-- Generator: Adobe Illustrator 18.0.0, SVG Export Plug-In . SVG Version: 6.00 Build 0)  -->
<!DOCTYPE svg PUBLIC "-//W3C//DTD SVG 1.1//EN" "http://www.w3.org/Graphics/SVG/1.1/DTD/svg11.dtd">
<svg version="1.1" id="Layer_1" xmlns="http://www.w3.org/2000/svg" xmlns:xlink="http://www.w3.org/1999/xlink" x="0px" y="0px"
	 viewBox="0 0 509.8 136.4" enable-background="new 0 0 509.8 136.4" xml:space="preserve">
<path fill="none" d="M208.8,125.3c-0.2,2.5,2.8,4,4.9,2.6c6-4.2,8.7-10.4,11.8-16.1C208.2,118.1,208.8,125.3,208.8,125.3z"/>
<path fill="none" d="M277.9,30.6c-4.9,10.9-7.2,22.6-8.8,34.6c5.2-10.8,9.9-21.8,11.2-33.9C280.4,29.8,278.5,29.3,277.9,30.6z"/>
<path fill="none" d="M5.6,124.2c-0.2,2.5,2.8,4,4.9,2.6c6-4.2,8.7-10.4,11.8-16.1C5.1,118.1,5.6,124.2,5.6,124.2z"/>
<path fill="none" d="M469.4,88.8c6.1-4,11.7-12.6,15.3-23.7c0.3-1.1-0.2-2.2-1.3-2.6c0,0,0,0-0.1,0c-3.1-1.1-6.6-0.4-8.9,2
	c-6.2,6.5-10,14.5-10.4,21.2C464,88.5,467.1,90.4,469.4,88.8z"/>
<path fill="none" d="M200.1,11c-4.6,8.4-8.6,23.8-8.8,35.5c4.8-10.9,9.7-21.9,11.6-34.6C203.1,10.4,200.9,9.6,200.1,11z"/>
<path fill="none" d="M60.2,65.2c-1.4-1.3-3.8,0.9-4.9,2.8c-2.4,3.9-4.3,8.1-5.8,12.4C52.6,75.8,61.6,66.6,60.2,65.2z M58.7,67.6
	l0.3,0L58.7,67.6z"/>
<path fill="none" d="M140.1,90.5c8.8-6.5,13.7-14.6,16.9-24c0.6-1.7-0.4-3.5-2-4c0,0-0.1,0-0.1,0c-3-0.9-6.3,0.1-8.3,2.6
	c-5.4,6.6-9.9,13.6-10.3,23.4C136.2,90.4,138.5,91.7,140.1,90.5z"/>
<path fill="none" d="M52.1,88.3c0.2,1.4,0.5,2.7,0.9,4c1,3.2,5.3,3.8,7.2,1c2.8-4.1,5.4-9.6,5.3-14.2c0-1.6-0.5-3.1-1.3-4.4
	c-0.5-0.8-0.9-1.6-0.9-1.6c-0.6-1.9-1.4-0.7-2.5,0.9c-1.9,2.9-5.4,7.4-7.5,10.1C52.3,85.3,51.9,86.8,52.1,88.3z"/>
<path fill="none" d="M310.7,101.5c7.5-5.3,16.2-17.6,17.1-23.8c0.2-1.5-0.7-2.8-2.1-3.3c0,0,0,0-0.1,0c-3-1-6.2-0.2-8.4,2
	c-6.5,6.6-10.6,15.5-10.5,23C306.8,101.4,309.1,102.6,310.7,101.5z"/>
<path d="M214.4,71.4c4.2,4.1,8.2,8.4,11.5,13.1c3.8,5.5,6.4,11.7,4,17.9c-6,3.7-10.9,6.4-15.4,9.6c-4,2.9-7.1,5.9-8.4,10.7
	c-1.2,4.6,0.6,7.7,4.4,8.5c1.9,0.4,3.9,0,5.7-1c8.8-4.9,13.2-14.1,17.8-22.5c0,0,19.4-6.6,25.2-14c-0.4,4.2-3.6,12.7-4.2,15.8
	c-0.8,4,4.5,6.4,6.9,3.2c1.2-1.6,2.2-3.4,3.2-5.1c4.8-8.3,9.3-16.7,14.1-24.9c0.8-1.4,1.6-2.9,2.7-4.3c1.6-2,4.8-0.7,4.4,1.9
	c-0.2,1.2-0.5,2.4-1,3.7c-1.8,5-2.4,10.2-2.8,15.5c-0.2,2.9-1.1,6.1-1.1,9.1c0,5.6,6.6,8.7,10.8,5c2.9-2.7,4.6-6.9,7.6-9.3
	c1,0.8,2,1.5,2.9,2.2c2.6,2,6.1,2.2,8.9,0.4c2.3-1.5,4.2-3.5,6-5.7c-0.3,0.1-0.8-0.1-0.2-0.7c0.3,0.2,0.4,0.4,0.4,0.6
	c1.9-2.2,3.7-4.5,5.8-6.7c-0.1,4.7-0.5,8.4-0.2,12c0.1,0.9,0.2,1.9,0.3,2.8c0.7,4.7,6.3,7,10.1,4.2c1.6-1.2,2.9-2.7,4-4.4
	c4.8-7.6,9.2-15.4,13.6-23.2c1.3-2.4,2.3-4.9,3.5-7.6c0.9-2.1,3.2-3.2,5.4-2.5c1.2,0.4,2.5,0.8,3.7,1.1c2.2,0.7,3.4,3.1,2.6,5.3
	c-0.8,2.1-1.5,3.9-2,5.8c-1.2,4.3-2.6,8.7-3,13.1c-0.1,1.3-0.1,2.7,0.1,3.9c0.9,4.7,6.6,6.4,10.2,3.3c7.3-6.2,10.3-15.7,15.7-23.6
	c0.5-0.8,1.8-0.3,1.6,0.7c-0.4,2.6-1,5.1-1.1,7.6c-0.1,2.2-1.2,4.6-1.2,7c0,2.4,3.1,3.6,4.8,1.8c9-10.2,13.3-23.6,22.7-34.7
	c1-1.1,2.8-0.3,2.6,1.2c-1,10.5-5,19.9-5,30.4c0,2.3,2.8,3.5,4.4,2c8.9-8,12.4-19.7,22.7-26.7c-0.8,5.2-1.4,8.8-1.8,12.5
	c-0.5,3.9-1.4,7.9-1.1,11.8c0.2,2.3,1.7,5.1,3.5,6.6c2.4,1.9,5.1,0,7.1-1.7c1.8-1.6,3.3-3.5,4.7-5.4c1.7-2.3,3.3-4.8,4.9-7.2
	c1.3,1.3,2.6,2.6,3.8,3.8c2.2,2.2,5.6,2.7,8.3,1.1c5-3,7.9-8.4,12.6-12.4c-0.2,4.6-0.6,8-0.3,11.4c0,0.3,0.1,0.6,0.1,0.8
	c0.5,5.4,6.9,8.1,11,4.7c6.5-5.4,12.9-14.8,14.8-22.5c0.4-1.5-1.7-2.2-2.4-0.9c-1.6,3-3.1,5.8-4.8,8.4c-2.3,3.4-3.7,7.8-7.9,9.9
	c-1.7,0.9-3.7,0-4.2-1.9c-2.7-9.9,1.4-19.1,3.6-28.7c0.6-2.5-1.4-4.9-4-4.7l-1,0.1c-4.7-5.5-7.2-6.2-12.7-1.3
	c-4.1,3.6-7.6,8.1-10.5,12.8c-4.2,6.7-7.4,14-11.5,20.9c-1.6,2.8-4.2,5-6.3,7.5c-0.8-0.2-0.9-0.3-1.8-0.5c-0.3-1.9-1-3.8-0.8-5.7
	c0.5-4.5,1.6-8.9,2.1-13.4c0.3-2.9,0.5-5.9,0-8.7c-1.1-5.7-5.4-7.3-9.9-3.7c-2.4,2-4.4,4.6-6.4,7.1c-2,2.6-3.8,5.4-6.5,9.4
	c-0.2-7.2,2.8-14,1.8-20.4c-0.7-4.5-6.3-6.2-9.6-3c-8.1,7.9-12,18.6-18.8,27.9c-0.2-7.3,2.6-14,1.8-21.4c-0.3-2.5-3.6-3.2-4.9-1
	c-1.9,3.5-3.4,6.2-5,9.6c-3.7,7.8-7.8,15.4-12,22.9c-1.5,2.7-3.3,5.3-6.8,6.1c-2.3-3.2-1.6-6.2-0.4-9.2c1.5-4,3.4-7.8,4.9-11.7
	c2-5.5,0.4-8.6-5.1-10.4c-2.9-0.9-5.9-1.6-9.1-2.5c1.4-4.3,3.3-8.1,3.8-11.9c0.6-4.9-3.8-9.4-8.7-8.3c-3,0.7-4.4,3.4-4.1,8
	c0.3,4.6,2.2,9.1,3.8,15.2c-4.3,8.4-9.3,18.3-14.5,28.1c-1,1.8-2.1,3.7-4.1,4.7c-1.9,1-4.3-0.1-4.9-2.2c-2.6-9.7,1.6-18.9,3.9-28.5
	c0.6-2.4-1.3-4.6-3.8-4.4l-1.2,0.1c-4.8-5.6-6.9-5.9-12.8-1.6c-1.7,1.2-3.5,2.6-4.6,4.4c-3.6,5.8-6.9,11.9-10.2,17.8
	c-2.7,4.8-5.1,9.8-8,14.6c-0.5,0.8-1.3,1.5-2.4,2.3c-1.4,1-3.4,0-3.3-1.8c0.1-2.6,0.2-4.7,0.5-6.7c0.8-4.7,2.1-9.3,3-14
	c0.8-4.4,1.6-8.9,1.9-13.3c0,0,0-0.1,0-0.1c0.3-4.7-5.2-7.5-8.8-4.4c-8.2,7.2-12.1,18.6-19.4,28.7c0.8-9.9,3.1-17.4,6.6-24.6
	c6.2-12.9,11.4-26.3,14.2-40.4c0.6-2.9,1-5.7,0.4-8.5c-0.5-2.3-2.5-4.1-4.8-4c-1.9,0.1-3.4,1.4-4.6,3.4c-2,3.4-4.1,7-5.2,10.7
	c-2.8,9.7-5.8,19.3-7.5,29.2c-0.7,4.3-1.2,7.8-1.7,10.9c-2.3,13.7-12.8,24.6-26.4,27.6c-0.1,0-0.3,0.1-0.4,0.1
	c0.3-10.3-4-18.4-10.1-25.5c0,0.1-0.1,0.2-0.6,0.1c0-0.4,0.2-0.4,0.4-0.3c-0.6-0.7-1.3-1.4-1.9-2.1c-2.5-2.7-5.3-5.3-7.3-8.4
	c-1.9-2.8-3.6-6-4.2-9.3c-2.1-11.7,8.6-23.7,21.6-24.5c8.7-0.5,14.3,5.2,13.2,13.7c-0.1,0.7-0.3,1.4-0.7,2.2c-1,2.1,1.6,4.2,3.3,2.7
	c0.8-0.7,1.5-1.8,2-3c2.3-5.2,1-10-2.5-14c-5.6-6.4-13-8.2-21-6.5c-10.4,2.3-17.3,9.1-20.4,19.2C203.9,56.1,207.1,64.3,214.4,71.4z
	 M214.9,113.4C215.7,112.1,215.4,114.4,214.9,113.4L214.9,113.4z M208.2,127.5c-0.5,0.2,0.7-0.3,1-0.4
	C209.1,127.2,208.8,127.3,208.2,127.5z M220,126.2C220,125.2,221.3,126.5,220,126.2L220,126.2z M222.2,123.3
	C222.2,123.3,222.2,123.3,222.2,123.3c-0.1,0.3-0.2,0.4-0.2,0.4C222.1,123.7,222.1,123.5,222.2,123.3
	C222.2,123.3,222.2,123.3,222.2,123.3C222.2,123.3,222.2,123.3,222.2,123.3c0.1-0.2,0.2-0.4,0.2-0.4
	C222.4,122.9,222.3,123,222.2,123.3z M223.9,117.2C223,116.3,224.9,118.1,223.9,117.2L223.9,117.2z M213.7,127.9
	c-2.1,1.5-5.1,0-4.9-2.6c0,0-0.5-7.2,16.7-13.6C222.3,117.5,219.7,123.7,213.7,127.9z M283.8,103.1
	C284.9,102.3,283,104.2,283.8,103.1L283.8,103.1z M364.6,107.6C365.7,106.7,363.7,108.6,364.6,107.6L364.6,107.6z M474.6,64.5
	c2.3-2.4,5.8-3.2,8.9-2c0,0,0,0,0.1,0c1,0.4,1.6,1.5,1.3,2.6c-3.6,11.1-9.3,19.8-15.3,23.7c-2.3,1.5-5.5-0.3-5.3-3.1
	C464.5,79,468.4,71,474.6,64.5z M459.3,91.6C460.1,90.3,459.8,92.7,459.3,91.6L459.3,91.6z M452.3,93.8
	C452.4,92.9,453.7,94.1,452.3,93.8L452.3,93.8z M420.7,62.7C421,61.8,422.4,63.1,420.7,62.7L420.7,62.7z M403.7,78.1
	C403.7,77.2,405.1,78.4,403.7,78.1L403.7,78.1z M390,71.4C391,70.5,389.1,72.4,390,71.4L390,71.4z M385.4,82
	C385.2,81.8,385.6,82.2,385.4,82L385.4,82z M317.3,76.4c2.2-2.2,5.4-3,8.4-2c0,0,0,0,0.1,0c1.4,0.4,2.3,1.8,2.1,3.3
	c-0.9,6.3-9.6,18.5-17.1,23.8c-1.7,1.2-3.9-0.1-4-2.1C306.7,91.9,310.8,83,317.3,76.4z M283.5,73.6C283.9,72.7,285.2,74,283.5,73.6
	L283.5,73.6z M277.9,30.6c0.6-1.3,2.5-0.7,2.4,0.6c-1.3,12.1-6,23.1-11.2,33.9C270.7,53.2,272.9,41.4,277.9,30.6z M262.2,103.8
	C262.2,102.8,263.6,104.1,262.2,103.8L262.2,103.8z M246.5,100.9C246.6,99.9,247.9,101.2,246.5,100.9L246.5,100.9z M230.2,107.3
	C230.3,106.3,231.6,107.6,230.2,107.3L230.2,107.3z"/>
<line fill="none" stroke="#000000" stroke-width="0" stroke-linecap="round" stroke-linejoin="round" x1="59" y1="67.6" x2="58.7" y2="67.6"/>
<path d="M11.3,110.9c-4,2.9-7.1,5.9-8.4,10.7c-1.2,4.6,0.6,7.7,4.4,8.5c1.9,0.4,4,0,5.7-1c8.8-4.9,13.2-14.1,17.8-22.5
	c0,0,10.7-6.8,14.9-13.9c0.1,0.3,0.1,0.6,0.2,0.9c0.9,4.3,3,8.3,7.7,9.6c1.6,0.4,3.2,0.3,4.7-0.4c8.6-3.7,8.9-13.4,12.1-21.2
	c6.7,3,11.9-0.6,17.5-3.6c-0.3,7.3-2.9,13.6-3,20.2c0,2.3,2.6,3.6,4.4,2.2c1.4-1.1,2.3-2.9,3.2-4.3c4.8-7.6,9.2-15.5,13.9-23.2
	c1.3-2.2,2.6-4.5,4.5-6.7c1.5-1.6,4.1-0.4,3.8,1.8c-0.3,2-0.5,3.8-0.9,5.6c-1.2,7-2.7,14.1-3.7,21.1c-0.2,1.4-0.3,2.8-0.2,4.1
	c0.4,4.8,6,7.1,9.8,4.1c3.9-3.1,6.1-8,9.2-11.9c1,0.9,1.9,1.8,2.9,2.6c2.9,2.7,7.3,3.1,10.5,0.8c4.2-3.1,6.9-7.7,10.7-11.4
	c0.9,4.5-0.3,9.3,0.4,13.7c0.9,5,6.9,7.2,10.9,4c6.1-4.9,9.4-12.5,14.6-19.9c-0.9,5.7-1.8,9.6-2,13.5c0,0.9-0.1,1.8-0.2,2.7
	c-0.3,5.3,5.8,8.3,9.9,4.9c3.7-3.1,7.1-7.6,11.2-14.3c3.6-6,5.3-9.2,6-12c0.4-1.6-1.8-2.4-2.6-1c-2.1,3.8-4,7.4-6.3,10.8
	c-2.4,3.6-4.5,7.8-8.7,10.5c-2,1.2-4.5-0.4-4.1-2.7c1.9-11.9,4.3-23,8.7-33.6c4.3-10.6,8.8-21,12.6-31.8c2-5.7,3-11.8,4.1-17.8
	c0.2-1.2,0.3-2.4,0.1-3.5c-0.7-3.6-5.3-5-8.1-2.6c-3.6,3-5.1,7.5-6.3,11.8c-3.7,12.7-7.3,25.5-9.5,38.5c-2.3,13.8-9.2,25.3-15.8,37
	c-0.6,1-1.2,2-2,2.8c-2.1,2.2-5.9,1.3-6.9-1.6c-0.6-1.8-0.5-3.8-0.2-5.6c1.5-7.8,3.4-15.5,5.1-23.2c0.1-0.5,0.1-1.1,0.1-1.7
	c0-1.3-1.1-2.5-2.4-2.6c-0.1,0-0.2,0-0.4,0c-1,0.1-1.9,0.6-2.8,0.9c-4.9-5.7-6.9-6.1-12.5-2.1c-2.1,1.5-4.3,3.3-5.7,5.5
	c-3.5,5.3-6.5,10.9-9.7,16.4c-3.2,5.5-6.3,11-9.8,16.4c-0.5,0.8-1.6,1.4-3,2.2c-1,0.6-2.2-0.2-2.2-1.3c0.1-2.9,0.1-5.1,0.5-7.2
	c1-5.5,2.5-10.9,3.5-16.3c0.7-4.2,1.1-8.4,1.3-12.6c0,0,0-0.1,0-0.1c0.2-4.3-5-6.6-8.2-3.7C104.3,65,100,76.4,93.1,86.8
	c-0.7-7.3,2.6-14.1,1.5-21.6c-0.4-2.6-3.9-3.2-5.1-0.8c-0.9,1.9-1.8,3.6-2.6,5.3c-4.1,8.5-8.7,9.7-17.1,4.3c-0.7-2.5-1.5-5-2.4-8
	c2.7-3.7,3.2-5.8,1.6-7.7c-1.9-2.3-4.4-3.1-7.1-1.8c-2.4,1.1-4.8,2.4-6.7,4.2c-7.5,7.3-10.4,16-10.1,25.5
	c-2.3,4.3-5.6,9.1-11.1,12.2c-0.1,0.1-1.8,0.8-1.9,0.8c0.3-11.5-4.9-18.6-12.2-26.3c-2.5-2.7-5.3-5.3-7.3-8.4
	c-1.9-2.8-3.6-6-4.2-9.3C6.3,43.4,17,31.5,30,30.7c8.7-0.5,14.3,5.2,13.2,13.7c-0.1,0.7-0.3,1.4-0.7,2.2c-1,2.1,1.6,4.2,3.3,2.7
	c0.8-0.7,1.5-1.8,2-3c2.3-5.2,1-10-2.5-14c-5.6-6.4-13-8.2-21-6.5C13.9,28.1,7,34.9,3.9,45c-3.1,9.9,0.1,18.1,7.4,25.2
	c4.2,4.1,8.2,8.4,11.5,13.1c3.8,5.5,6.4,11.7,4,17.9C20.7,105,15.8,107.7,11.3,110.9z M10.5,126.7c-2.1,1.5-5.1,0-4.9-2.6
	c0,0-0.6-6,16.7-13.6C19.2,116.3,16.5,122.5,10.5,126.7z M198,85.7C199.1,85,197.2,86.8,198,85.7L198,85.7z M187.3,97.9
	C187.4,97,188.7,98.2,187.3,97.9L187.3,97.9z M200.1,11c0.8-1.4,3-0.7,2.7,0.9c-1.9,12.7-6.8,23.6-11.6,34.6
	C191.5,34.9,195.5,19.5,200.1,11z M161.7,62C162.8,61.2,160.9,63.1,161.7,62L161.7,62z M154.7,61.1
	C155.1,60.1,156.5,61.4,154.7,61.1L154.7,61.1z M146.6,65c2-2.4,5.3-3.5,8.3-2.6c0,0,0.1,0,0.1,0c1.7,0.5,2.6,2.3,2,4
	c-3.2,9.4-8.1,17.5-16.9,24c-1.6,1.2-3.9-0.1-3.8-2.1C136.6,78.7,141.1,71.7,146.6,65z M127.1,89.6
	C128.2,88.8,126.3,90.7,127.1,89.6L127.1,89.6z M109.4,62C109.5,61.1,110.8,62.3,109.4,62L109.4,62z M109.1,66.5
	C109.2,65.6,110.5,66.8,109.1,66.5L109.1,66.5z M104.4,74.5C103.4,75.7,103.3,73.6,104.4,74.5L104.4,74.5z M97.4,81.9
	C97.5,80.9,98.8,82.2,97.4,81.9L97.4,81.9z M91.9,68.6c0,0.1-0.1,0.1-0.1,0.2c0,0,0,0,0,0C91.8,68.7,91.8,68.6,91.9,68.6z
	 M90.7,64.3C91.2,63.2,91.5,65.5,90.7,64.3L90.7,64.3z M82.2,79.6C82.3,78.6,83.6,79.9,82.2,79.6L82.2,79.6z M78.2,79.6
	C78.3,78.6,79.6,79.9,78.2,79.6L78.2,79.6z M75.8,78.4C75.9,77.4,77.2,78.7,75.8,78.4L75.8,78.4z M71.9,79.3
	C71.9,78.3,73.2,79.6,71.9,79.3L71.9,79.3z M50.2,94.7C50.6,93.7,51,96,50.2,94.7L50.2,94.7z M66.1,75.2
	C67.7,75.4,65.9,77.1,66.1,75.2L66.1,75.2z M63.2,73.2c0,0,0.5,0.8,0.9,1.6c0.8,1.3,1.3,2.9,1.3,4.4c0,4.6-2.6,10.1-5.3,14.2
	c-1.9,2.8-6.2,2.2-7.2-1c-0.4-1.3-0.7-2.7-0.9-4c-0.2-1.5,0.2-3,1.2-4.2c2.1-2.6,5.6-7.1,7.5-10.1C61.8,72.4,62.6,71.3,63.2,73.2z
	 M55.3,68c1.2-1.9,3.6-4.1,4.9-2.8c1.4,1.4-7.6,10.6-10.7,15.2C50.9,76.1,52.9,71.9,55.3,68z M46.8,74.5
	C47.2,73.6,48.6,74.9,46.8,74.5L46.8,74.5z M46.2,91.5C46,91.4,46.4,91.7,46.2,91.5L46.2,91.5z M36.8,99.5
	C36.9,98.6,38.2,99.9,36.8,99.5L36.8,99.5z M8.5,60.1C8.6,59.1,9.9,60.4,8.5,60.1L8.5,60.1z M11.9,67.5C11.4,69.7,10,68.3,11.9,67.5
	L11.9,67.5z M14.9,70C16.3,68.9,16.1,70.9,14.9,70L14.9,70z"/>
<path fill="#FFFFFF" d="M8.5,60.1C9.9,60.4,8.6,59.1,8.5,60.1L8.5,60.1z"/>
<path fill="#FFFFFF" d="M154.7,61.1C156.5,61.4,155.1,60.1,154.7,61.1L154.7,61.1z"/>
<path fill="#FFFFFF" d="M109.4,62C110.8,62.3,109.5,61.1,109.4,62L109.4,62z"/>
<path fill="#FFFFFF" d="M161.7,62C160.9,63.1,162.8,61.2,161.7,62L161.7,62z"/>
<path fill="#FFFFFF" d="M90.7,64.3C91.5,65.5,91.2,63.2,90.7,64.3L90.7,64.3z"/>
<path fill="#FFFFFF" d="M109.1,66.5C110.5,66.8,109.2,65.6,109.1,66.5L109.1,66.5z"/>
<path fill="#FFFFFF" d="M14.9,70C16.1,70.9,16.3,68.9,14.9,70L14.9,70z"/>
<path fill="#FFFFFF" d="M91.9,68.6c0,0.1-0.1,0.1-0.1,0.2c0,0,0,0,0,0C91.8,68.7,91.8,68.6,91.9,68.6z"/>
<path fill="#FFFFFF" d="M71.9,79.3C73.2,79.6,71.9,78.3,71.9,79.3L71.9,79.3z"/>
<path fill="#FFFFFF" d="M78.2,79.6C79.6,79.9,78.3,78.6,78.2,79.6L78.2,79.6z"/>
<path fill="#FFFFFF" d="M82.2,79.6C83.6,79.9,82.3,78.6,82.2,79.6L82.2,79.6z"/>
<path fill="#FFFFFF" d="M46.8,74.5C48.6,74.9,47.2,73.6,46.8,74.5L46.8,74.5z"/>
<path fill="#FFFFFF" d="M104.4,74.5C103.3,73.6,103.4,75.7,104.4,74.5L104.4,74.5z"/>
<path fill="#FFFFFF" d="M66.1,75.2C65.9,77.1,67.7,75.4,66.1,75.2L66.1,75.2z"/>
<path fill="#FFFFFF" d="M420.7,62.7C422.4,63.1,421,61.8,420.7,62.7L420.7,62.7z"/>
<path fill="#FFFFFF" d="M75.8,78.4C77.2,78.7,75.9,77.4,75.8,78.4L75.8,78.4z"/>
<path fill="#FFFFFF" d="M97.4,81.9C98.8,82.2,97.5,80.9,97.4,81.9L97.4,81.9z"/>
<path fill="#FFFFFF" d="M198,85.7C197.2,86.8,199.1,85,198,85.7L198,85.7z"/>
<path fill="#FFFFFF" d="M283.5,73.6C285.2,74,283.9,72.7,283.5,73.6L283.5,73.6z"/>
<path fill="#FFFFFF" d="M224.5,76.5c0.5,0.1,0.6,0,0.6-0.1c0-0.1-0.1-0.2-0.2-0.3C224.8,76.1,224.6,76.2,224.5,76.5z"/>
<path fill="#FFFFFF" d="M127.1,89.6C126.3,90.7,128.2,88.8,127.1,89.6L127.1,89.6z"/>
<path fill="#FFFFFF" d="M403.7,78.1C405.1,78.4,403.7,77.2,403.7,78.1L403.7,78.1z"/>
<path fill="#FFFFFF" d="M46.2,91.5C46.4,91.7,46,91.4,46.2,91.5L46.2,91.5z"/>
<path fill="#FFFFFF" d="M50.2,94.7C51,96,50.6,93.7,50.2,94.7L50.2,94.7z"/>
<path fill="#FFFFFF" d="M385.4,82C385.6,82.2,385.2,81.8,385.4,82L385.4,82z"/>
<path fill="#FFFFFF" d="M187.3,97.9C188.7,98.2,187.4,97,187.3,97.9L187.3,97.9z"/>
<path fill="#FFFFFF" d="M36.8,99.5C38.2,99.9,36.9,98.6,36.8,99.5L36.8,99.5z"/>
<path fill="#FFFFFF" d="M459.3,91.6C459.8,92.7,460.1,90.3,459.3,91.6L459.3,91.6z"/>
<path fill="#FFFFFF" d="M452.3,93.8C453.7,94.1,452.4,92.9,452.3,93.8L452.3,93.8z"/>
<path fill="#FFFFFF" d="M317.4,100.6c-0.6,0.6,0,0.9,0.2,0.7c0.1,0,0.1-0.1,0.1-0.2C317.8,101,317.8,100.8,317.4,100.6z"/>
<path fill="#FFFFFF" d="M246.5,100.9C247.9,101.2,246.6,99.9,246.5,100.9L246.5,100.9z"/>
<path fill="#FFFFFF" d="M283.8,103.1C283,104.2,284.9,102.3,283.8,103.1L283.8,103.1z"/>
<path fill="#FFFFFF" d="M262.2,103.8C263.6,104.1,262.2,102.8,262.2,103.8L262.2,103.8z"/>
<path fill="#FFFFFF" d="M230.2,107.3C231.6,107.6,230.3,106.3,230.2,107.3L230.2,107.3z"/>
<path fill="#FFFFFF" d="M214.9,113.4C215.4,114.4,215.7,112.1,214.9,113.4L214.9,113.4z"/>
<path fill="#FFFFFF" d="M222.2,123.3c-0.1,0.2-0.2,0.3-0.2,0.4C222.1,123.7,222.1,123.6,222.2,123.3z"/>
<path fill="#FFFFFF" d="M222.4,122.9c0,0.1-0.1,0.3-0.2,0.4C222.3,123,222.4,122.9,222.4,122.9z"/>
<path fill="#FFFFFF" d="M222.2,123.3C222.2,123.3,222.2,123.3,222.2,123.3C222.2,123.3,222.2,123.3,222.2,123.3
	C222.2,123.3,222.2,123.3,222.2,123.3z"/>
<path fill="#FFFFFF" d="M220,126.2C221.3,126.5,220,125.2,220,126.2L220,126.2z"/>
<path fill="#FFFFFF" d="M11.9,67.5C10,68.3,11.4,69.7,11.9,67.5L11.9,67.5z"/>
<path fill="#FFFFFF" d="M390,71.4C389.1,72.4,391,70.5,390,71.4L390,71.4z"/>
<path fill="#FFFFFF" d="M364.6,107.6C363.7,108.6,365.7,106.7,364.6,107.6L364.6,107.6z"/>
<path fill="#FFFFFF" d="M223.9,117.2C224.9,118.1,223,116.3,223.9,117.2L223.9,117.2z"/>
<path fill="#FFFFFF" d="M208.2,127.5c0.6-0.2,0.9-0.3,1-0.4C209,127.2,207.7,127.7,208.2,127.5z"/>
</svg>
