<?xml version="1.0" encoding="utf-8"?>
<!-- Generator: Adobe Illustrator 18.0.0, SVG Export Plug-In . SVG Version: 6.00 Build 0)  -->
<!DOCTYPE svg PUBLIC "-//W3C//DTD SVG 1.1//EN" "http://www.w3.org/Graphics/SVG/1.1/DTD/svg11.dtd">
<svg version="1.1" id="Layer_1" xmlns="http://www.w3.org/2000/svg" xmlns:xlink="http://www.w3.org/1999/xlink" x="0px" y="0px"
	 viewBox="0 0 100.6 100.6" enable-background="new 0 0 100.6 100.6" xml:space="preserve">
<rect y="0" fill="#FFDDBF" width="100.8" height="100.5"/>
<g>
	<path fill="#230B00" d="M32.2,26.2c3.7-1.4,6.5-1.9,8.6-1.3c2,0.6,3.4,1.7,4.1,3.4c0.7,1.7,0.7,3.5,0.2,5.4c-0.6,1.9-1.8,3.2-3.9,4
		c-2,0.8-3.4,0.3-4-1.4c-0.1-0.2-0.1-0.5-0.3-1c1.1-0.4,1.8-1.2,2.3-2.3c0.5-1.1,0.5-2.2,0.1-3.2c-0.4-1-1.2-1.6-2.4-1.9
		c-1.2-0.3-2.5-0.1-3.8,0.4c-2.3,0.9-3.9,2.3-4.9,4.3c-1,2-1.1,3.9-0.3,5.8c0.4,1,1.2,1.9,2.4,2.8c1.2,0.9,2.2,1.6,3.2,2
		c0.9,0.4,2.4,1,4.4,1.8c2,0.8,3.2,1.3,3.6,1.4c4.2,1.8,7,4.5,8.4,8c1.4,3.5,1,7.3-1.2,11.2c-2.2,3.9-5.5,6.7-10,8.5
		c-3.6,1.4-6.8,2-9.5,1.7c-2.7-0.3-4.6-1.7-5.6-4.3c-0.5-1.4-0.6-2.8-0.1-4.3c0.5-1.5,1.5-2.6,3.2-3.3c1.7-0.7,3.1-0.5,4.1,0.4
		c-0.9,1.7-1.1,3.3-0.5,4.8c0.6,1.6,1.6,2.6,3,3c1.4,0.4,2.9,0.3,4.6-0.4c2.4-0.9,4.1-2.6,5.3-5c1.1-2.4,1.2-4.9,0.2-7.5
		c-1-2.6-3.9-5-8.8-7.3c-0.1-0.1-1.1-0.5-3-1.4c-1.9-0.9-3.6-1.9-5-3C25.1,46.6,24,45,23.2,43c-1.4-3.4-1.1-6.7,0.8-9.9
		C25.8,29.9,28.6,27.6,32.2,26.2z"/>
</g>
<g>
	<path fill="#230B00" d="M76.7,32.8c1.9,3.1,2.3,6.4,1,9.9c-0.8,2-1.8,3.6-3.3,4.8c-1.4,1.1-3.1,2.2-5,3.1c-1.9,0.9-2.9,1.4-2.9,1.5
		c-4.8,2.4-7.6,4.9-8.6,7.5c-1,2.6-0.9,5.1,0.3,7.5c1.2,2.4,3,4,5.4,4.9c1.7,0.6,3.3,0.7,4.6,0.3c1.4-0.5,2.4-1.5,2.9-3.1
		s0.4-3.2-0.6-4.8c1-1,2.4-1.1,4.1-0.5c1.7,0.6,2.8,1.7,3.3,3.2c0.5,1.5,0.5,2.9,0,4.3c-0.9,2.6-2.8,4-5.5,4.4
		c-2.7,0.4-5.9-0.1-9.6-1.5c-4.5-1.7-7.9-4.4-10.1-8.3c-2.3-3.8-2.7-7.6-1.4-11.1c1.3-3.6,4.1-6.3,8.2-8.2c0.4-0.2,1.6-0.7,3.6-1.5
		c2-0.8,3.5-1.5,4.4-1.9c0.9-0.5,2-1.1,3.1-2.1c1.2-0.9,1.9-1.9,2.3-2.9c0.7-1.9,0.5-3.8-0.5-5.7c-1-2-2.7-3.4-5-4.2
		c-1.4-0.5-2.6-0.6-3.8-0.3c-1.2,0.3-2,0.9-2.3,1.9c-0.4,1-0.3,2.1,0.2,3.2c0.5,1.1,1.3,1.9,2.3,2.3c-0.1,0.5-0.2,0.8-0.2,1
		c-0.6,1.7-2,2.2-4,1.4c-2-0.8-3.4-2.1-4-3.9c-0.6-1.9-0.6-3.7,0-5.4c0.6-1.7,2-2.8,4-3.5c2-0.6,4.9-0.2,8.6,1.1
		C72,27.5,74.8,29.7,76.7,32.8z"/>
</g>
<rect x="9.5" y="9.2" fill="none" stroke="#230B00" stroke-miterlimit="10" width="81.9" height="82.6"/>
</svg>
