<?xml version="1.0" encoding="utf-8"?>
<!-- Generator: Adobe Illustrator 18.1.1, SVG Export Plug-In . SVG Version: 6.00 Build 0)  -->
<!DOCTYPE svg PUBLIC "-//W3C//DTD SVG 1.1//EN" "http://www.w3.org/Graphics/SVG/1.1/DTD/svg11.dtd">
<svg version="1.1" id="Layer_1" xmlns="http://www.w3.org/2000/svg" xmlns:xlink="http://www.w3.org/1999/xlink" x="0px" y="0px"
	 viewBox="0 303 612 176" enable-background="new 0 303 612 176" xml:space="preserve">
<g id="Layer_2">
</g>
<g>
	<g>
		<path fill="#A33153" d="M138.4,372.2c0.5,5.5,4.2,7.3,7.3,7.3c4,0,7.6-2.7,7.6-6.9c0-5.6-3.6-6.7-10.5-9.3
			c-4.2-1.6-13.1-4.2-13.1-15.8c0-8.8,6.8-15.7,16.1-15.7c6.4,0,15.7,4.5,16.2,15.7h-10.4c-0.4-4.9-3.4-6.2-6.2-6.2
			c-3.2,0-5.6,2.3-5.6,5.6c0,4.7,3.6,5.8,9.1,7.6c4.5,1.5,14.4,5,14.4,16.9c0,11.9-9.2,17.5-17.8,17.5c-7,0-17.3-4.7-17.9-16.8
			H138.4z"/>
		<path fill="none" stroke="#231F20" stroke-width="0.5" stroke-miterlimit="10" d="M139.4,366.6c0.5,5.5,4.2,7.3,7.3,7.3
			c4,0,7.6-2.7,7.6-6.9c0-5.6-3.6-6.7-10.5-9.3c-4.2-1.6-13.1-4.2-13.1-15.8c0-8.8,6.8-15.7,16.1-15.7c6.4,0,15.7,4.5,16.2,15.7
			h-10.4c-0.4-4.9-3.4-6.2-6.2-6.2c-3.2,0-5.6,2.3-5.6,5.6c0,4.7,3.6,5.8,9.1,7.6c4.5,1.5,14.4,5,14.4,16.9
			c0,11.9-9.2,17.5-17.8,17.5c-7,0-17.3-4.7-17.9-16.8H139.4z"/>
	</g>
	<g>
		<path fill="#A33153" d="M226.9,331.9c15.6,0,28.7,12.5,28.7,28.7c0,15.7-12.9,28.4-28.7,28.4s-28.7-12.7-28.7-28.4
			C198.2,344.4,211.3,331.9,226.9,331.9z M226.9,379.6c10.5,0,18.5-8.8,18.5-19c0-10.5-8.2-19.1-18.5-19.1
			c-10.3,0-18.5,8.6-18.5,19.1C208.3,370.7,216.4,379.6,226.9,379.6z"/>
		<path fill="none" stroke="#231F20" stroke-width="0.5" stroke-miterlimit="10" d="M227.9,326.4c15.6,0,28.7,12.5,28.7,28.7
			c0,15.7-12.9,28.4-28.7,28.4s-28.7-12.7-28.7-28.4C199.2,338.8,212.3,326.4,227.9,326.4z M227.9,374c10.5,0,18.5-8.8,18.5-19
			c0-10.5-8.2-19.1-18.5-19.1c-10.3,0-18.5,8.6-18.5,19.1C209.4,365.2,217.4,374,227.9,374z"/>
	</g>
	<g>
		<path fill="#A33153" d="M285.9,334.2h11.6l22.7,39.9h0.1v-39.9h10.2v54.9h-11.4l-22.9-39.9h-0.1v39.9h-10.2V334.2z"/>
		<path fill="none" stroke="#231F20" stroke-width="0.5" stroke-miterlimit="10" d="M287,328.6h11.6l22.7,39.9h0.1v-39.9h10.2v54.9
			h-11.4l-22.9-39.9h-0.1v39.9H287V328.6z"/>
	</g>
	<g>
		<path fill="#A33153" d="M385.5,334.2h7.9l23,54.9h-11.2l-5.9-14.2h-19.7l-5.9,14.2h-11.2L385.5,334.2z M383.2,365.3h12.6
			l-6.2-16.8h-0.1L383.2,365.3z"/>
		<path fill="none" stroke="#231F20" stroke-width="0.5" stroke-miterlimit="10" d="M386.6,328.6h7.9l23,54.9h-11.2l-5.9-14.2h-19.7
			l-5.9,14.2h-11.2L386.6,328.6z M384.2,359.7h12.6l-6.2-16.8h-0.1L384.2,359.7z"/>
	</g>
	<g>
		<path fill="#A33153" d="M457.5,334.2h10.2v45.4h16.8v9.5h-26.9V334.2z"/>
		<path fill="none" stroke="#231F20" stroke-width="0.5" stroke-miterlimit="10" d="M458.5,328.6h10.2V374h16.8v9.5h-26.9V328.6z"/>
	</g>
</g>
<g>
	<g>
		<path fill="#A33153" d="M98.4,448.9c0.5,5.5,4.2,7.3,7.3,7.3c4,0,7.6-2.7,7.6-6.9c0-5.6-3.6-6.7-10.5-9.3
			c-4.2-1.6-13.1-4.2-13.1-15.8c0-8.8,6.8-15.7,16.1-15.7c6.4,0,15.7,4.5,16.2,15.7h-10.4c-0.4-4.9-3.4-6.2-6.2-6.2
			c-3.2,0-5.6,2.3-5.6,5.6c0,4.7,3.6,5.8,9.1,7.6c4.5,1.5,14.4,5,14.4,16.9c0,11.9-9.2,17.5-17.8,17.5c-7,0-17.3-4.7-17.9-16.8H98.4
			z"/>
		<path fill="none" stroke="#231F20" stroke-width="0.5" stroke-miterlimit="10" d="M99.4,443.4c0.5,5.5,4.2,7.3,7.3,7.3
			c4,0,7.6-2.7,7.6-6.9c0-5.6-3.6-6.7-10.5-9.3c-4.2-1.6-13.1-4.2-13.1-15.8c0-8.8,6.8-15.7,16.1-15.7c6.4,0,15.7,4.5,16.2,15.7
			h-10.4c-0.4-4.9-3.4-6.2-6.2-6.2c-3.2,0-5.6,2.3-5.6,5.6c0,4.7,3.6,5.8,9.1,7.6c4.5,1.5,14.4,5,14.4,16.9
			c0,11.9-9.2,17.5-17.8,17.5c-7,0-17.3-4.7-17.9-16.8H99.4z"/>
	</g>
	<g>
		<path fill="#A33153" d="M161.9,410.9H172v22.3h19.7v-22.3h10.2v54.9h-10.2v-23.1H172v23.1h-10.2V410.9z"/>
		<path fill="none" stroke="#231F20" stroke-width="0.5" stroke-miterlimit="10" d="M162.9,405.3h10.2v22.3h19.7v-22.3h10.2v54.9
			h-10.2v-23.1h-19.7v23.1h-10.2V405.3z"/>
	</g>
	<g>
		<path fill="#A33153" d="M258.3,410.9h7.9l23,54.9H278l-5.9-14.2h-19.7l-5.9,14.2h-11.2L258.3,410.9z M255.9,442h12.6l-6.2-16.8
			h-0.1L255.9,442z"/>
		<path fill="none" stroke="#231F20" stroke-width="0.5" stroke-miterlimit="10" d="M259.3,405.3h7.9l23,54.9H279l-5.9-14.2h-19.7
			l-5.9,14.2h-11.2L259.3,405.3z M256.9,436.5h12.6l-6.2-16.8h-0.1L256.9,436.5z"/>
	</g>
	<g>
		<path fill="#A33153" d="M322.1,410.9H339c6.3,0,10.2,1.2,13.4,3.7c3.1,2.5,6.5,7,6.5,13.3c0,3.6-1.3,9.3-5.3,13.1
			c-3.3,3.1-6.4,3.9-9.1,4.5l14.9,20.3H347l-14.5-21h-0.1v21h-10.2V410.9z M332.3,437.1h6.5c8.4,0,9.8-5.6,9.8-8.5
			c0-3-1.9-8.3-9.8-8.3h-6.5V437.1z"/>
		<path fill="none" stroke="#231F20" stroke-width="0.5" stroke-miterlimit="10" d="M323.2,405.3H340c6.3,0,10.2,1.2,13.4,3.7
			c3.1,2.5,6.5,7,6.5,13.3c0,3.6-1.3,9.3-5.3,13.1c-3.3,3.1-6.4,3.9-9.1,4.5l14.9,20.3H348l-14.5-21h-0.1v21h-10.2V405.3z
			 M333.3,431.6h6.5c8.4,0,9.8-5.6,9.8-8.5c0-3-1.9-8.3-9.8-8.3h-6.5V431.6z"/>
	</g>
	<g>
		<path fill="#A33153" d="M390.4,410.9h14.1l14.6,41.5h0.1l14.5-41.5h14.1v54.9h-10.2v-41.2h-0.1h-0.1l-14,41.2h-8.6l-14.1-41.2
			h-0.1v41.2h-10.2V410.9z"/>
		<path fill="none" stroke="#231F20" stroke-width="0.5" stroke-miterlimit="10" d="M391.4,405.3h14.1l14.6,41.5h0.1l14.5-41.5h14.1
			v54.9h-10.2V419h-0.1h-0.1l-14,41.2h-8.6L401.7,419h-0.1v41.2h-10.2V405.3z"/>
	</g>
	<g>
		<path fill="#A33153" d="M493.5,410.9h7.9l23,54.9h-11.2l-5.9-14.2h-19.7l-5.9,14.2h-11.2L493.5,410.9z M491.1,442h12.6l-6.2-16.8
			h-0.1L491.1,442z"/>
		<path fill="none" stroke="#231F20" stroke-width="0.5" stroke-miterlimit="10" d="M494.5,405.3h7.9l23,54.9h-11.2l-5.9-14.2h-19.7
			l-5.9,14.2h-11.2L494.5,405.3z M492.1,436.5h12.6l-6.2-16.8h-0.1L492.1,436.5z"/>
	</g>
</g>
</svg>
