<?xml version="1.0" encoding="utf-8"?>
<!-- Generator: Adobe Illustrator 18.1.1, SVG Export Plug-In . SVG Version: 6.00 Build 0)  -->
<!DOCTYPE svg PUBLIC "-//W3C//DTD SVG 1.1//EN" "http://www.w3.org/Graphics/SVG/1.1/DTD/svg11.dtd">
<svg version="1.1" id="Layer_1" xmlns="http://www.w3.org/2000/svg" xmlns:xlink="http://www.w3.org/1999/xlink" x="0px" y="0px"
	 viewBox="0 0 141.8 141.7" enable-background="new 0 0 141.8 141.7" xml:space="preserve">
<g>
	<path fill="#962533" d="M90.7,4.7c-0.3,0-0.6,0-1.1,0.3C84.9,7.7,78.5,19.1,76.3,37c1.7-1.9,2.8-4.1,4.1-6.1
		C94.3,8.6,91.2,4.7,91,4.7C91,4.7,91,4.7,90.7,4.7z"/>
	<g>
		<path fill="#962533" d="M101,6.7c0,2.1-0.4,4.5-1.2,7.1c-1.9,5.8-5.5,13-11.3,22.4C85.2,41.7,81,47.8,76,55
			c0.3,4.7,0.8,10,1.7,15.2c3,17.4,4.4,31,3.9,41.5c-0.6,6.6-1.7,12.2-3.3,16.9c10-6.6,18-16.3,24.6-24.3c0.8-1.1,1.7-2.2,2.5-3.3
			c1.9-1.9,5-2.2,6.9-0.6c2.2,1.7,2.5,4.7,0.6,6.9c-0.8,0.8-1.7,1.9-2.5,3c-6.4,7.5-13.8,16.6-23.2,23.8c-4,3.1-8,5.6-12.1,7.6
			c37.2-2.1,66.8-33,66.8-70.8C141.8,42.5,125.1,18,101,6.7z"/>
		<path fill="#962533" d="M64.4,132.7c11.3-10.2,7.5-39.5,3.9-60.8c-0.3-1.7-0.6-3.3-0.8-5.3C58.9,78.2,48.7,91.5,36.2,107
			c-1.7,2.2-4.7,2.5-6.6,0.8c-2.2-1.7-2.5-4.7-0.8-6.9C44.5,81.3,56.7,65.2,66.1,52c-0.3-12.7,1.4-22.7,3.3-29.6
			C71.9,13,75.5,5.4,80,0.6C77,0.2,74,0,70.9,0C31.7,0,0,31.7,0,70.9c0,29.8,18.4,55.3,44.5,65.8C53.4,137.9,60.1,136.6,64.4,132.7z
			"/>
	</g>
</g>
</svg>
