<?xml version="1.0" encoding="utf-8"?>
<!-- Generator: Adobe Illustrator 18.0.0, SVG Export Plug-In . SVG Version: 6.00 Build 0)  -->
<!DOCTYPE svg PUBLIC "-//W3C//DTD SVG 1.1//EN" "http://www.w3.org/Graphics/SVG/1.1/DTD/svg11.dtd">
<svg version="1.1" id="Layer_1" xmlns="http://www.w3.org/2000/svg" xmlns:xlink="http://www.w3.org/1999/xlink" x="0px" y="0px"
	 viewBox="0 186 600 222.5" enable-background="new 0 186 600 222.5" xml:space="preserve">
<g id="Layer_1_1_" display="none">
	<g display="inline">
		<path d="M95.4,239.2l0.6,0.3l0.5-0.3c2.9,0,4.3,1.8,4.3,5.4v1.9c0,1.8-2.2,5.3-6.5,10.4c-1.8,3.4-2.6,6.1-2.6,8.3
			c0.3,0.7,0.5,1.3,0.5,1.6h0.6c5.5-3.9,10-5.9,13.4-5.9h1.4c4.3,1,6.4,3.1,6.4,6.4v0.5c0,4.4-2.2,7.1-6.7,8l-1.4,0.3
			c-2.8,0-5-1.6-6.7-4.8c-0.2,0-0.4,0.1-0.8,0.3c-2.1,0-4.4-0.6-7-1.9c-1.1,1.1-1.6,1.9-1.6,2.4h0.3c5.7,2,10,4.6,12.9,8
			c2.1,3,3.3,6,3.7,9.1c-0.8,5.5-1.7,8.3-2.7,8.3c0,0.4-3,3.1-8.8,8c-7,6.3-10.4,10.7-10.4,13.1h-0.6c0-2.5-1.8-5.4-5.4-8.8
			c-3.2-2.3-6.9-3.4-11.2-3.4c-5.9,0.9-8.8,3.8-8.8,8.6v2.1c0,2.9,1.5,5.3,4.6,7.2c2.8,1.6,4.9,2.4,6.1,2.4h2.1c1.8,0,3.2-0.3,4-0.8
			v0.8h0.2c0-0.8,0.7-1.7,2.2-2.7c0.9-1.2,1.3-3,1.3-5.1c0-2-1.1-3.8-3.2-5.4c-2.1-0.7-3.6-1-4.6-1c-2.5,0-4.2,1.3-5.1,4v1.6
			c1,1.8,2.4,2.7,4.3,2.7c1,0,1.8-0.5,2.4-1.6c-2.2-0.3-3.2-0.8-3.2-1.6v-1.4c0.3-0.7,0.9-1,1.9-1c1.7,0,2.7,0.9,3,2.7
			c0,2-1.2,3.4-3.5,4.3c-2.9,0-4.8-1.5-5.6-4.6V317c0-2.8,1.9-4.6,5.9-5.4H72c5.5,0.9,8.3,3.3,8.3,7.2c0,3.6-1.9,6.6-5.6,8.8
			c-1.1,0.4-2,0.6-2.7,0.6c-8,0-13.2-3.2-15.5-9.7c0-0.1-0.2-0.9-0.6-2.1V315c0-4.9,3.2-8.8,9.7-11.8c3-1.2,6.1-1.9,9.4-1.9h0.6
			l1.3,0.3c0-3.6,1.3-5.6,4-6.2l0.6-0.2c2.3,0.5,3.4,1.2,3.4,2.1v0.8c0,2.2-1,3.2-2.9,3.2c-1.3,0-2-0.5-2.1-1.6
			c0.3-0.9,0.8-1.4,1.6-1.4c0.7,0.1,1.1,0.7,1.1,1.9c1,0,1.6-0.8,1.6-2.4v-0.3c0-0.5-0.8-0.9-2.4-1.3c-2.1,0-3.3,1.3-3.7,4
			c0,1.5,1.3,2.6,4,3.2c0.7,0.9,1.5,1.3,2.4,1.3h0.3c4.3,0,7-2.1,8-6.1v-1.1c0-3.3-5.5-7.3-16.4-12.3h-1.3
			c-4.4,4.2-8.5,7.7-12.4,10.7c-2.6,1.8-4.9,2.7-7,2.7H55c-1.8,0-2.6-0.3-2.6-0.8c-0.2,0-0.3,0.1-0.3,0.3c-3.4-1.5-5.1-4.2-5.1-8
			v-0.6c0-3.4,2.5-5.8,7.5-7c1.9,0,2.9,0.4,2.9,1.3l0.6-0.2c1.8,1,2.7,2.1,2.7,3.4v1.1c0,2.7-1.9,4.3-5.7,5.1
			c-1.7-0.5-2.8-1.3-3.2-2.4V290c0-1.1,0.5-1.9,1.6-2.4h1.4c0.9,0.4,1.3,1,1.3,1.9v0.6l-0.8,1l0.6,0.3c2.7-0.3,4-1.5,4-3.7
			c-0.4-1.6-0.8-2.4-1.3-2.4l0.3-0.6v-0.3l-0.6,0.3H58c-1-0.7-2.3-1-4-1c-3.9,0.9-5.9,3.4-5.9,7.4c0,3.7,2.4,5.9,7.2,6.4
			c3.4-0.2,7.4-2.5,12.1-6.9c3.9-3.7,5.9-5.8,5.9-6.2c-13.4-5.6-20.1-12-20.1-19.2v-2.4c0-5.1,2.4-9.4,7.2-12.9
			c0.9-0.7,2.9-1.5,5.9-2.1c2.4-2.8,4.9-4.7,7.4-5.6c2.3-1.1,4-1.6,5.1-1.6v0.3c-2.8,1.8-4.3,3.5-4.3,5.1c0,2.7,2.8,4.8,8.6,6.1
			c0.2,0.2,0.9,0.3,2.1,0.3c2.7,0,6.1-1.2,10.2-3.7c1.5-1.8,2.3-3.5,2.4-5.1c-0.5-1.8-1.4-2.7-2.7-2.7h-1.6
			c-0.9,0.7-1.5,1.1-1.6,1.1v-0.2C92.6,240.7,93.7,239.9,95.4,239.2z M57.1,259.8c0,3.8,3.2,8.3,9.6,13.7c3.1,2.3,7,4.3,11.5,5.9
			c2.1-1.8,3.3-2.6,3.5-2.6v-0.6c-0.7,0-3.9-1.4-9.7-4.3c-4.9-2.7-8.1-5.9-9.7-9.7c-0.7-1.9-1-3.4-1-4.6c0-2.2,0.9-4.7,2.7-7.5h-0.6
			C59.2,251.6,57.1,254.8,57.1,259.8z M58.7,320.8v0.3c0.2,0.6,0.5,0.9,1,1.1v-0.3c-0.3,0-0.5-0.4-0.5-1.1H58.7z M65.4,254.2h0.3
			l-0.3,0.6c0,4.2,3.1,8.2,9.4,11.8l12.4,4.6c1.4-0.6,2.6-1.5,3.7-3c0-0.3-0.3-1.1-0.8-2.4c0-2.7,1-6,3-9.9c-3.8,1.9-7,2.9-9.7,2.9
			h-0.6c-7.4-0.1-12.2-3-14.4-8.8c-0.2-0.3-0.3-0.7-0.3-1.3h-0.3C66.7,249.5,65.9,251.3,65.4,254.2z M80.1,280.2
			c0.1,0,1.1,0.4,3.2,1.1c0.1-0.5,1.3-1.5,3.5-3c-1.8-0.7-2.9-1.1-3.2-1.1C82.3,278.1,81.2,279.1,80.1,280.2z M84.7,282v0.3
			c8.6,3,12.8,7.2,12.8,12.6c0,2.5-2.5,5.8-7.5,9.9c-2.4,0.7-3.7,1.1-4,1.1v0.3c1.4,1.8,2.1,2.9,2.1,3.2h0.3
			c7.3-5.3,11.5-10.4,12.5-15.5c0.2-0.3,0.3-0.6,0.3-1v-1.3c0-2.9-2.5-6.1-7.4-9.7c-2.4-1.4-4-2.1-5.1-2.1
			C86.6,280.2,85.3,280.9,84.7,282z M93.5,268.1c0.8,1.1,1.9,1.6,3.4,1.6h0.3c1.5,0,2.5-0.8,3-2.4c1.8-1.2,3.1-1.9,4-1.9h0.8
			c2.5,0,3.7,1.2,3.7,3.7c-0.2,1.6-1,2.4-2.4,2.4c-0.8-0.4-1.2-0.7-1.3-1.1v-1c0.4-0.8,1-1.3,1.9-1.6c-0.3-0.9-0.9-1.3-1.9-1.3h-0.6
			c-1.9,0-3.2,1.3-4,4c0,2.6,1.8,4.2,5.3,4.6c2.6,0,4.5-1.2,5.7-3.7c0.6-1.8,0.8-3.1,0.8-4c0-2-1.6-3.7-4.8-5.1V262
			C102.3,262,97.7,264,93.5,268.1z"/>
	</g>
</g>
<g id="Layer_2">
	<path fill="#DCAD88" d="M154.1,327.7c8.2-7.4,10.9-19.4,6.2-29.4c-0.1-0.4-0.3-0.7-0.5-1.1c-8.6-16.5-27.8-20.9-27.8-20.9
		c1.2-2.4,3.9-5.3,3.9-5.3c4.6,3.9,13.5,3.7,13.5,3.7c10.3,12.1,17.9,9.2,22.2,5.1c3.7-3.6,5.6-8.8,4.8-13.8
		c-1.6-11.1-14.1-10.6-14.1-10.6c-12.6,0-24.8,10.9-24.8,10.9c-4.6-4.4,2.2-16.3,4.4-19.9c0.4-0.6,0.9-1.2,1.3-1.8
		c13.3-15.1,8.5-24.4,8.5-24.4c-3.7-9.2-14.2-2.1-14.2-2.1c14-1.5,8.8,9,8.8,9c-4.9,12.3-16.7,11.6-16.7,11.6
		c-44.9-3.5-17.5-20.5-17.5-20.5c-16.8,1.6-23.3,12.9-23.3,12.9c-8.5,0.8-17,9.3-17,9.3c-6.1,6.4-7.3,14.8-7,21.6
		c0.4,8.8,4.5,17,11.2,22.7c10.9,9.4,25.7,14.5,25.7,14.5l-14.1,14.4c-6.1,6-11.4,8.6-15.6,9.5c-7.4,1.6-14.9-3-16.6-10.4
		c-0.6-2.4-0.3-4.6,0.3-6.3c1-3.1,3.4-5.5,6.5-6.8c8.1-3.4,11.8-0.4,13.5,2.3c1.2,2.1,1.4,4.6,0.3,6.7c-2.3,4.2-7.4,3-7.4,3l0.7-1.4
		c0.7-1.3,0.6-3-0.4-4.1c-0.9-1-2-1-3-0.8c-1.7,0.4-3,1.8-3.6,3.4c-0.9,2.6,0.4,4.3,2.1,5.4c2.1,1.4,4.9,1.7,7.3,0.9
		c0.1,0,0.3-0.1,0.4-0.1c4.5-1.5,7-6.3,5.9-10.9c-1.4-6-6.3-7.6-8.7-8c-0.7-0.1-1.4-0.1-2.1-0.1c-0.1,0-0.2,0-0.3,0
		c-9.4,1.1-15.7,10.7-12.7,19.7c2.3,7,8.5,9,8.5,9c14.1,3.9,26.2-9.5,26.2-9.5l15.9-14.2c14,4.3,23.5,11.3,27.9,15.2
		c2.7,2.4,4.4,5.8,4.3,9.4c-0.3,9.4-11.6,11.4-11.6,11.4c-9.9,0.2-14.9-5.2-14.9-5.2c0.3-8.1,4-10.6,6.7-10.3
		c1.8,0.2,3.5,1.3,4.2,3.1c1.3,3.4-2.7,4.2-2.7,4.2c0-3.6-2-3.4-2-3.4h-0.1c-2.1-0.1-3.2,2.4-1.8,3.9c1.8,1.9,3.7,1.6,5.2,0.8
		c1.8-0.9,3.1-2.7,3.2-4.7c0-1.7-0.7-2.9-1.5-3.7c-1.1-1.1-2.6-1.6-4.2-1.8c-9.1-0.7-9.3,11.4-9.3,11.4c-4.4-1.4-10-0.7-10-0.7
		c-14.6,0.9-24.5,11.8-26.9,19.4c-2.9,9.1,0,19.1,7.3,25.2c5.9,4.9,12.9,5.8,18.1,5.7c5.9-0.1,11.5-3,14.6-7.9
		c3-4.6,2.7-9.1,1.5-12.6c-1.9-5.5-6.9-9.4-12.8-10c-10.1-1.1-12.7,8.4-12.7,8.4c-1.7,5.8,2.5,8.6,6.1,9.8c4.8,1.7,9.9-1.5,10.3-6.5
		c0-0.1,0-0.2,0-0.3c0.1-1.4-0.4-2.9-1.4-3.9c-0.9-0.9-1.8-1.1-2.8-1.1c-4.4,0.1-4.6,6.7-0.3,7.3c1.1,0.1,1.9,0.1,1.9,0.1
		c-2.5,4.3-8.2,2.2-8.2,2.2c-3.4-1.1-4.3-3.6-4.2-5.7c0.1-2.4,1.3-4.6,3.3-6c4.3-3.2,8.4-3,11.6-1.8c4.4,1.6,7.4,5.5,8.2,10.1
		c1.1,6.4-1.8,10.2-4.7,12.3c-2.5,1.8-5.6,2.7-8.7,2.6c-23.5-0.8-24.1-19.2-24.1-19.2c-0.5-9.5,4.5-14.1,9.1-16.3
		c3.4-1.6,7.2-2.1,11-1.8c24.2,2.3,27,22.6,27,22.6c7.3-12.7,21.3-25,27.2-30.2L154.1,327.7z M97.4,283.8
		c-6.9-3.3-15.6-11.9-15.6-11.9c-24.6-27.8,2.7-36.3,2.7-36.3c-8.4,10.5-3.3,21.6-3.3,21.6c7.4,18.4,36,27.5,36,27.5
		c-4,2.4-6.5,4.9-6.5,4.9C108.3,288.8,97.4,283.8,97.4,283.8z M120.1,293.2l-5.9-2c0,0,3.3-3.7,6.4-5.5l6,2
		C126.6,287.7,121.7,291.1,120.1,293.2z M153.3,310.9c0,0,3.3,9.7-15.9,28c-1.2,1.1-2.4,2.2-3.8,3.1l-4.6,3.3l-4-5.9
		c0,0,12.3-3.6,17.8-12.7c0,0,11.9-14-8.2-26l-12-5.6c0,0,0.7-3.2,7.4-5C130.1,290.2,151.5,297.2,153.3,310.9z M134,268.8
		c-2.2,3.5-6.9,5.5-6.9,5.5c-2.2-0.9-13.3-4.9-13.3-4.9c-5.9-1.2-14.3-6.5-14.3-6.5c-22.6-16-7.7-30.2-7.7-30.2
		c11.8,32.9,46.2,13.4,46.2,13.4C127.6,263.4,134,268.8,134,268.8z M172.8,272.9c0,0-3.1,10.4-14,8.2c0,0-10.8-3.1-4.7-12.5
		c0,0,5.3-6.2,9.8-0.3c0,0-6.5,3-1.7,6.7c0,0,4.9,1.5,5.1-5.2c0,0-0.8-8.6-8.4-6.6c0,0-4.2,0.7-7.9,5.6c0,0-2.2,3.5-6,3.2
		c-1-0.1-2.1-0.5-2.9-1.1l-2.9-2.1c0,0,11.8-14.1,27.8-9.9C166.9,258.9,176.1,261.7,172.8,272.9z"/>
	<path fill="#DCAD88" d="M114.9,187C54.8,187,6,235.9,6,295.9s48.8,108.9,108.9,108.9S223.8,356,223.8,295.9S175,187,114.9,187z
		 M112.1,393.7c-51.2-1.4-92.9-42.7-94.9-93.9c-1.6-42.1,23.5-78.6,59.7-93.9c11.2-4.7,23.7-5,34.9-0.4c3.3,1.3,6.9,3.1,10.6,5.2
		c0,0,3.5-5.5-1.4-12.3c51.1,3.1,91.7,45.7,91.7,97.6C212.7,350.8,167.3,395.3,112.1,393.7z"/>
	<path fill="#DCAD88" d="M257.9,265.2c-0.6-4-2.9-6.4-6.4-6.4c-4.8,0-6.1,3.1-6.1,5.4c0,2.5,1.6,4.1,4.9,5.4l4.2,1.6
		c5.4,2,7.8,5.1,7.8,9.2c0,5.4-4.3,9.4-10.8,9.4c-6.1,0-10.4-3.2-11-9.9h4.2c0.3,3.7,2.2,6.2,6.9,6.2c3.7,0,6.3-2.4,6.3-5.3
		c0-2.6-2.2-4.3-5.2-5.5l-4.3-1.7c-5-1.9-7.4-4.9-7.4-9.2c0-5.8,4.8-9.3,10.3-9.3c5.6,0,9.9,3.3,10.4,10.1H257.9L257.9,265.2z"/>
	<path fill="#DCAD88" d="M284.2,255.1c11.4,0,17.8,9,17.8,17.3s-6.4,17.3-17.8,17.3s-17.8-9-17.8-17.3
		C266.4,264.1,272.8,255.1,284.2,255.1z M284.2,285.7c6.8,0,13.3-5.4,13.3-13.3c0-7.9-6.4-13.3-13.3-13.3c-6.8,0-13.3,5.4-13.3,13.3
		C270.9,280.4,277.3,285.7,284.2,285.7z"/>
	<path fill="#DCAD88" d="M329.4,255.6h4.2v33.6h-4l-18-26h-0.1v26h-4.2v-33.6h4l18,26h0.1V255.6z"/>
	<path fill="#DCAD88" d="M361,281.4h-15.6l-3,7.8h-4.6l13.7-33.6h3.7l13.6,33.6H364L361,281.4z M353.2,261.2l-6.4,16.5h12.7
		L353.2,261.2z"/>
	<path fill="#DCAD88" d="M372.9,255.6h4.2v29.6h11.8v4h-16V255.6z"/>
	<path fill="#DCAD88" d="M420.6,265.2c-0.6-4-2.9-6.4-6.4-6.4c-4.8,0-6.1,3.1-6.1,5.4c0,2.5,1.6,4.1,4.9,5.4l4.2,1.6
		c5.4,2,7.8,5.1,7.8,9.2c0,5.4-4.3,9.4-10.8,9.4c-6.1,0-10.4-3.2-11-9.9h4.2c0.3,3.7,2.2,6.2,6.9,6.2c3.7,0,6.3-2.4,6.3-5.3
		c0-2.6-2.2-4.3-5.2-5.5l-4.3-1.7c-5-1.9-7.4-4.9-7.4-9.2c0-5.8,4.8-9.3,10.3-9.3c5.6,0,9.9,3.3,10.4,10.1H420.6L420.6,265.2z"/>
	<path fill="#DCAD88" d="M452,255.6h4.2v33.6H452V274h-17.5v15.2h-4.2v-33.6h4.2V270H452V255.6z"/>
	<path fill="#DCAD88" d="M483.7,281.4h-15.6l-3,7.8h-4.6l13.7-33.6h3.7l13.7,33.6H487L483.7,281.4z M475.9,261.2l-6.4,16.5h12.7
		L475.9,261.2z"/>
	<path fill="#DCAD88" d="M499.8,274.9v14.3h-4.3v-33.6h9.7c6.4,0,11.3,3.7,11.3,10.1c0,6-4.7,9.7-10.2,10l13.1,13.4h-6L499.8,274.9z
		 M499.8,272.3c0.6,0,1.2,0,3.7,0c6.5,0,8.8-2.8,8.8-6.5c0-3.9-2.7-6.5-7.1-6.5h-5.4V272.3z"/>
	<path fill="#DCAD88" d="M554.9,255.6h4.2v33.6h-4.2v-24.9h-0.1l-13.5,25.2l-13.5-25.2h-0.1v24.9h-4.2v-33.6h4.2l13.7,25.3
		L554.9,255.6z"/>
	<path fill="#DCAD88" d="M586.7,281.4h-15.6l-3,7.8h-4.6l13.7-33.6h3.7l13.6,33.6h-4.6L586.7,281.4z M578.9,261.2l-6.4,16.5h12.7
		L578.9,261.2z"/>
	<path fill="#DCAD88" d="M256.7,311.3h3.1v26.2h-3.1v-2.8h-0.1c-1.3,1.9-3.6,3.2-6.7,3.2c-5,0-9.5-3.9-9.5-9.6
		c0-5.2,4.3-9.2,9.3-9.2c2.7,0,5.4,1.1,6.8,3.2h0.1v-11H256.7z M250.3,322c-4.2,0-6.6,3.3-6.6,6.3c0,4.1,3.2,6.7,6.5,6.7
		c3.6,0,6.4-2.9,6.4-6.5C256.7,324.9,253.7,322,250.3,322z"/>
	<path fill="#DCAD88" d="M281.8,334c-2.4,2.7-4.9,3.9-8.1,3.9c-6.4,0-9.8-4.6-9.8-9.4c0-5.1,3.7-9.4,9.2-9.4s9.4,4.2,9.4,10.6h-15.3
		c0.5,3.1,3,5.3,6.4,5.3c2.2,0,4.2-1,5.8-2.9L281.8,334z M279,327.1c-0.3-3-2.7-5.1-5.9-5.1c-3.8,0-5.6,2.7-5.9,5.1H279z"/>
	<path fill="#DCAD88" d="M288.3,332.2c0.2,1.9,1.8,2.9,3.7,2.9c2.8,0,3.6-1.5,3.6-2.6c0-1.2-0.7-1.9-3.2-2.5l-3.1-0.9
		c-2.7-0.7-3.7-2.5-3.7-4.6c0-3,2.2-5.4,6.4-5.4c4.6,0,6.2,2.9,6.2,5.6h-2.9c-0.2-2-1.3-3-3.3-3c-1.9,0-3.2,1.2-3.2,2.6
		c0,1,0.6,1.8,2,2.2l4.2,1.2c2.8,0.8,3.7,2.4,3.7,4.7c0,3.7-3.2,5.6-6.5,5.6c-4.2,0-6.7-2.2-6.7-5.7h2.8V332.2z"/>
	<path fill="#DCAD88" d="M304.1,311.7c1.2,0,2.2,1,2.2,2.2s-1,2.2-2.2,2.2s-2.2-1-2.2-2.2S302.9,311.7,304.1,311.7z M302.6,319.5
		h3.1v17.9h-3.1V319.5z"/>
	<path fill="#DCAD88" d="M325.9,319.5h3.1V335c0,6.6-3.2,10.1-10.1,10.1c-3.2,0-6-1.2-8.4-3.9l2.5-1.9c1.9,2.4,4.1,3.1,6,3.1
		c4.8,0,7-2.4,7-6.4v-1.3h-0.1c-1.7,2-3.4,3-6.9,3c-6,0-9.2-5.2-9.2-9.3c0-5.2,4.3-9.2,9.3-9.2c2.7,0,5.4,1.1,6.8,3.2h0.1
		L325.9,319.5L325.9,319.5z M319.5,322c-4.2,0-6.6,3.3-6.6,6.3c0,4.1,3.2,6.6,6.5,6.6c3.6,0,6.4-2.8,6.4-6.4
		C325.9,324.9,322.9,322,319.5,322z"/>
	<path fill="#DCAD88" d="M346.1,327c0-2.7-1.1-5-4.2-5c-2.9,0-4.6,1.9-4.6,5.4v10.1h-3.1v-17.9h3.1v2.1h0.1c0.9-1.6,2.9-2.5,4.9-2.5
		c3.5,0,6.9,1.9,6.9,6.7v11.6h-3.1L346.1,327L346.1,327z"/>
	<path fill="#DCAD88" d="M371,334c-2.4,2.7-4.9,3.9-8.1,3.9c-6.4,0-9.8-4.6-9.8-9.4c0-5.1,3.7-9.4,9.2-9.4s9.4,4.2,9.4,10.6h-15.3
		c0.5,3.1,3,5.3,6.4,5.3c2.2,0,4.2-1,5.8-2.9L371,334z M368.3,327.1c-0.3-3-2.7-5.1-5.9-5.1c-3.8,0-5.6,2.7-5.9,5.1H368.3z"/>
	<path fill="#DCAD88" d="M375.9,319.5h3.1v2.5h0.1c1.5-2.8,3-3,5.7-3v3.3c-0.4-0.1-0.9-0.2-1.4-0.2c-2.6,0-4.3,1.8-4.3,5.1v10.2H376
		v-17.9H375.9z"/>
	<path fill="#DCAD88" d="M403,320.9c3.6,0,6.6,2.9,6.6,6.6c0,3.6-2.9,6.6-6.6,6.6s-6.6-2.9-6.6-6.6S399.3,320.9,403,320.9z"/>
	<path fill="#DCAD88" d="M438.4,311.3h3.1v26.2h-3.1v-2.8h-0.1c-1.3,1.9-3.6,3.2-6.7,3.2c-5,0-9.5-3.9-9.5-9.6
		c0-5.2,4.3-9.2,9.3-9.2c2.7,0,5.4,1.1,6.8,3.2h0.1L438.4,311.3L438.4,311.3z M432.1,322c-4.2,0-6.6,3.3-6.6,6.3
		c0,4.1,3.2,6.7,6.5,6.7c3.6,0,6.4-2.9,6.4-6.5C438.4,324.9,435.4,322,432.1,322z"/>
	<path fill="#DCAD88" d="M463.5,334c-2.4,2.7-4.9,3.9-8.1,3.9c-6.4,0-9.8-4.6-9.8-9.4c0-5.1,3.7-9.4,9.2-9.4s9.4,4.2,9.4,10.6h-15.3
		c0.5,3.1,3,5.3,6.4,5.3c2.2,0,4.2-1,5.8-2.9L463.5,334z M460.8,327.1c-0.3-3-2.7-5.1-5.9-5.1c-3.8,0-5.6,2.7-5.9,5.1H460.8z"/>
	<path fill="#DCAD88" d="M480.7,319.5h3.5l-7.7,17.9h-2.9l-7.7-17.9h3.5l5.7,13.8L480.7,319.5z"/>
	<path fill="#DCAD88" d="M504,334c-2.4,2.7-4.9,3.9-8.1,3.9c-6.4,0-9.8-4.6-9.8-9.4c0-5.1,3.7-9.4,9.2-9.4s9.4,4.2,9.4,10.6h-15.3
		c0.5,3.1,3,5.3,6.4,5.3c2.2,0,4.2-1,5.8-2.9L504,334z M501.3,327.1c-0.3-3-2.7-5.1-5.9-5.1c-3.8,0-5.6,2.7-5.9,5.1H501.3z"/>
	<path fill="#DCAD88" d="M511.5,311.3v20.5c0,2,1,2.7,2,2.7h0.9v2.9h-1.3c-2.8,0-4.8-1.6-4.8-5.4v-20.7H511.5L511.5,311.3z"/>
	<path fill="#DCAD88" d="M526.3,319.1c5.7,0,9.7,4.3,9.7,9.4c0,5.1-3.9,9.4-9.7,9.4s-9.7-4.2-9.7-9.4
		C516.6,323.5,520.6,319.1,526.3,319.1z M519.9,328.5c0,3.4,3,6.5,6.4,6.5s6.4-3,6.4-6.5c0-3.7-3-6.5-6.4-6.5
		S519.9,324.8,519.9,328.5z"/>
	<path fill="#DCAD88" d="M540.7,319.5h3.1v2.8h0.1c1.5-2.1,4.2-3.2,6.8-3.2c5.1,0,9.3,4,9.3,9.2c0,5.7-4.5,9.6-9.5,9.6
		c-3.1,0-5.4-1.3-6.7-3.2h-0.1V345h-3.1v-25.5H540.7z M550.1,322c-3.4,0-6.3,2.9-6.3,6.5c0,3.6,2.9,6.5,6.4,6.5
		c3.3,0,6.5-2.5,6.5-6.7C556.7,325.3,554.3,322,550.1,322z"/>
	<path fill="#DCAD88" d="M581.1,334c-2.4,2.7-4.9,3.9-8.1,3.9c-6.4,0-9.8-4.6-9.8-9.4c0-5.1,3.7-9.4,9.2-9.4s9.4,4.2,9.4,10.6h-15.3
		c0.5,3.1,3,5.3,6.4,5.3c2.2,0,4.2-1,5.8-2.9L581.1,334z M578.3,327.1c-0.3-3-2.7-5.1-5.9-5.1c-3.8,0-5.6,2.7-5.9,5.1H578.3z"/>
	<path fill="#DCAD88" d="M585.9,319.5h3.1v2.5h0.1c1.5-2.8,3-3,5.7-3v3.3c-0.4-0.1-0.9-0.2-1.4-0.2c-2.6,0-4.3,1.8-4.3,5.1v10.2H586
		L585.9,319.5L585.9,319.5z"/>
</g>
</svg>
