<?xml version="1.0" encoding="utf-8"?>
<!-- Generator: Adobe Illustrator 18.1.1, SVG Export Plug-In . SVG Version: 6.00 Build 0)  -->
<!DOCTYPE svg PUBLIC "-//W3C//DTD SVG 1.1//EN" "http://www.w3.org/Graphics/SVG/1.1/DTD/svg11.dtd">
<svg version="1.1" id="Layer_1" xmlns="http://www.w3.org/2000/svg" xmlns:xlink="http://www.w3.org/1999/xlink" x="0px" y="0px"
	 viewBox="0 278 612 228" enable-background="new 0 278 612 228" xml:space="preserve">
<g>
	<g>
		<path fill="#A33153" d="M86.2,365c0.7,7.2,5.4,9.6,9.5,9.6c5.2,0,9.9-3.6,9.9-9c0-7.4-4.7-8.7-13.6-12.1c-5.5-2.1-17-5.5-17-20.6
			c0-11.4,8.9-20.4,21-20.4c8.3,0,20.5,5.8,21.2,20.4h-13.5c-0.6-6.4-4.5-8-8-8c-4.2,0-7.4,3-7.4,7.3c0,6.2,4.6,7.5,11.9,10
			c5.9,1.9,18.8,6.5,18.8,22.1c0,15.5-12,22.8-23.2,22.8c-9.2,0-22.5-6.2-23.3-22H86.2z"/>
		<path fill="none" stroke="#231F20" stroke-width="0.5" stroke-miterlimit="10" d="M87.6,357.7c0.7,7.2,5.4,9.6,9.5,9.6
			c5.2,0,9.9-3.6,9.9-9c0-7.4-4.7-8.7-13.6-12.1c-5.5-2.1-17-5.5-17-20.6c0-11.4,8.9-20.4,21-20.4c8.3,0,20.5,5.8,21.2,20.4h-13.5
			c-0.6-6.4-4.5-8-8-8c-4.2,0-7.4,3-7.4,7.3c0,6.2,4.6,7.5,11.9,10c5.9,1.9,18.8,6.5,18.8,22.1c0,15.5-12,22.8-23.2,22.8
			c-9.2,0-22.5-6.2-23.3-22H87.6z"/>
	</g>
	<g>
		<path fill="#A33153" d="M201.7,312.4c20.3,0,37.4,16.3,37.4,37.4c0,20.5-16.8,37.1-37.4,37.1s-37.4-16.5-37.4-37.1
			C164.2,328.7,181.3,312.4,201.7,312.4z M201.7,374.5c13.6,0,24.2-11.5,24.2-24.8c0-13.7-10.7-25-24.2-25s-24.2,11.2-24.2,25
			C177.5,363,188,374.5,201.7,374.5z"/>
		<path fill="none" stroke="#231F20" stroke-width="0.5" stroke-miterlimit="10" d="M203,305.2c20.3,0,37.4,16.3,37.4,37.4
			c0,20.5-16.8,37.1-37.4,37.1s-37.4-16.5-37.4-37.1C165.6,321.4,182.7,305.2,203,305.2z M203,367.3c13.6,0,24.2-11.5,24.2-24.8
			c0-13.7-10.7-25-24.2-25s-24.2,11.2-24.2,25C178.8,355.8,189.4,367.3,203,367.3z"/>
	</g>
	<g>
		<path fill="#A33153" d="M278.7,315.3h15.1l29.6,52h0.2v-52h13.3v71.6H322l-29.9-52h-0.2v52h-13.3V315.3z"/>
		<path fill="none" stroke="#231F20" stroke-width="0.5" stroke-miterlimit="10" d="M280,308.1h15.1l29.6,52h0.2v-52h13.3v71.6
			h-14.8l-29.9-52h-0.2v52H280V308.1z"/>
	</g>
	<g>
		<path fill="#A33153" d="M408.5,315.3h10.4l30,71.6h-14.6l-7.6-18.5H401l-7.6,18.5h-14.6L408.5,315.3z M405.4,356h16.4l-8.1-22
			h-0.2L405.4,356z"/>
		<path fill="none" stroke="#231F20" stroke-width="0.5" stroke-miterlimit="10" d="M409.9,308.1h10.4l30,71.6h-14.6l-7.6-18.5
			h-25.6l-7.6,18.5h-14.6L409.9,308.1z M406.8,348.7h16.4l-8.1-22h-0.2L406.8,348.7z"/>
	</g>
	<g>
		<path fill="#A33153" d="M502.3,315.3h13.3v59.2h21.9v12.4h-35.1V315.3z"/>
		<path fill="none" stroke="#231F20" stroke-width="0.5" stroke-miterlimit="10" d="M503.7,308.1h13.3v59.2h21.9v12.4h-35.1V308.1z"
			/>
	</g>
</g>
<g>
	<g>
		<path fill="#A33153" d="M34.1,465c0.7,7.2,5.4,9.6,9.5,9.6c5.2,0,9.9-3.6,9.9-9c0-7.4-4.7-8.7-13.6-12.1c-5.5-2.1-17-5.5-17-20.6
			c0-11.4,8.9-20.4,21-20.4c8.3,0,20.5,5.8,21.2,20.4H51.4c-0.6-6.4-4.5-8-8-8c-4.2,0-7.4,3-7.4,7.3c0,6.2,4.6,7.5,11.9,10
			c5.9,1.9,18.8,6.5,18.8,22.1c0,15.5-12,22.8-23.2,22.8c-9.2,0-22.5-6.2-23.3-22H34.1z"/>
		<path fill="none" stroke="#231F20" stroke-width="0.5" stroke-miterlimit="10" d="M35.4,457.7c0.7,7.2,5.4,9.6,9.5,9.6
			c5.2,0,9.9-3.6,9.9-9c0-7.4-4.7-8.7-13.6-12.1c-5.5-2.1-17-5.5-17-20.6c0-11.4,8.9-20.4,21-20.4c8.3,0,20.5,5.8,21.2,20.4H52.7
			c-0.6-6.4-4.5-8-8-8c-4.2,0-7.4,3-7.4,7.3c0,6.2,4.6,7.5,11.9,10c5.9,1.9,18.8,6.5,18.8,22.1c0,15.5-12,22.8-23.2,22.8
			c-9.2,0-22.5-6.2-23.3-22H35.4z"/>
	</g>
	<g>
		<path fill="#A33153" d="M116.9,415.4h13.3v29.1h25.6v-29.1H169V487h-13.3v-30.1h-25.6V487h-13.3V415.4z"/>
		<path fill="none" stroke="#231F20" stroke-width="0.5" stroke-miterlimit="10" d="M118.2,408.1h13.3v29.1h25.6v-29.1h13.3v71.6
			h-13.3v-30.1h-25.6v30.1h-13.3V408.1z"/>
	</g>
	<g>
		<path fill="#A33153" d="M242.6,415.4h10.4l30,71.6h-14.6l-7.6-18.5H235l-7.6,18.5h-14.6L242.6,415.4z M239.5,456h16.4l-8.1-22
			h-0.2L239.5,456z"/>
		<path fill="none" stroke="#231F20" stroke-width="0.5" stroke-miterlimit="10" d="M243.9,408.1h10.4l30,71.6h-14.6l-7.6-18.5
			h-25.6l-7.6,18.5h-14.6L243.9,408.1z M240.8,448.7h16.4l-8.1-22H249L240.8,448.7z"/>
	</g>
	<g>
		<path fill="#A33153" d="M325.9,415.4h22c8.2,0,13.4,1.5,17.4,4.8c4.1,3.3,8.4,9.1,8.4,17.3c0,4.7-1.7,12.2-6.9,17.1
			c-4.3,4.1-8.3,5-11.9,5.9l19.4,26.4h-16.1l-19-27.4h-0.2V487h-13.3V415.4z M339.1,449.6h8.5c10.9,0,12.8-7.3,12.8-11
			c0-4-2.4-10.8-12.8-10.8h-8.5V449.6z"/>
		<path fill="none" stroke="#231F20" stroke-width="0.5" stroke-miterlimit="10" d="M327.2,408.1h22c8.2,0,13.4,1.5,17.4,4.8
			c4.1,3.3,8.4,9.1,8.4,17.3c0,4.7-1.7,12.2-6.9,17.1c-4.3,4.1-8.3,5-11.9,5.9l19.4,26.4h-16.1l-19-27.4h-0.2v27.4h-13.3V408.1z
			 M340.5,442.4h8.5c10.9,0,12.8-7.3,12.8-11c0-4-2.4-10.8-12.8-10.8h-8.5V442.4z"/>
	</g>
	<g>
		<path fill="#A33153" d="M414.9,415.4h18.4l19.1,54.2h0.2l18.9-54.2h18.4V487h-13.3v-53.7h-0.1h-0.2L457.9,487h-11.2l-18.4-53.7
			h-0.2V487h-13.3V415.4z"/>
		<path fill="none" stroke="#231F20" stroke-width="0.5" stroke-miterlimit="10" d="M416.2,408.1h18.4l19.1,54.2h0.2l18.9-54.2h18.4
			v71.6h-13.3V426h-0.1h-0.2l-18.3,53.7h-11.2L429.7,426h-0.2v53.7h-13.3V408.1z"/>
	</g>
	<g>
		<path fill="#A33153" d="M549.3,415.4h10.4l30,71.6H575l-7.6-18.5h-25.6l-7.6,18.5h-14.6L549.3,415.4z M546.2,456h16.4l-8.1-22
			h-0.2L546.2,456z"/>
		<path fill="none" stroke="#231F20" stroke-width="0.5" stroke-miterlimit="10" d="M550.6,408.1H561l30,71.6h-14.6l-7.6-18.5h-25.6
			l-7.6,18.5h-14.6L550.6,408.1z M547.5,448.7H564l-8.1-22h-0.2L547.5,448.7z"/>
	</g>
</g>
</svg>
