<?xml version="1.0" encoding="utf-8"?>
<!-- Generator: Adobe Illustrator 18.0.0, SVG Export Plug-In . SVG Version: 6.00 Build 0)  -->
<!DOCTYPE svg PUBLIC "-//W3C//DTD SVG 1.1//EN" "http://www.w3.org/Graphics/SVG/1.1/DTD/svg11.dtd">
<svg version="1.1" id="Layer_1" xmlns="http://www.w3.org/2000/svg" xmlns:xlink="http://www.w3.org/1999/xlink" x="0px" y="0px"
	 viewBox="0 0 600 600" enable-background="new 0 0 600 600" xml:space="preserve">
<g id="Layer_1_1_" display="none">
	<g display="inline">
		<path d="M95.4,239.2l0.6,0.3l0.5-0.3c2.9,0,4.3,1.8,4.3,5.4v1.9c0,1.8-2.2,5.3-6.5,10.4c-1.8,3.4-2.6,6.1-2.6,8.3
			c0.3,0.7,0.5,1.3,0.5,1.6h0.6c5.5-3.9,10-5.9,13.4-5.9h1.4c4.3,1,6.4,3.1,6.4,6.4v0.5c0,4.4-2.2,7.1-6.7,8l-1.4,0.3
			c-2.8,0-5-1.6-6.7-4.8c-0.2,0-0.4,0.1-0.8,0.3c-2.1,0-4.4-0.6-7-1.9c-1.1,1.1-1.6,1.9-1.6,2.4h0.3c5.7,2,10,4.6,12.9,8
			c2.1,3,3.3,6,3.7,9.1c-0.8,5.5-1.7,8.3-2.7,8.3c0,0.4-3,3.1-8.8,8c-7,6.3-10.4,10.7-10.4,13.1h-0.6c0-2.5-1.8-5.4-5.4-8.8
			c-3.2-2.3-6.9-3.4-11.2-3.4c-5.9,0.9-8.8,3.8-8.8,8.6v2.1c0,2.9,1.5,5.3,4.6,7.2c2.8,1.6,4.9,2.4,6.1,2.4h2.1c1.8,0,3.2-0.3,4-0.8
			v0.8h0.2c0-0.8,0.7-1.7,2.2-2.7c0.9-1.2,1.3-3,1.3-5.1c0-2-1.1-3.8-3.2-5.4c-2.1-0.7-3.6-1-4.6-1c-2.5,0-4.2,1.3-5.1,4v1.6
			c1,1.8,2.4,2.7,4.3,2.7c1,0,1.8-0.5,2.4-1.6c-2.2-0.3-3.2-0.8-3.2-1.6v-1.4c0.3-0.7,0.9-1,1.9-1c1.7,0,2.7,0.9,3,2.7
			c0,2-1.2,3.4-3.5,4.3c-2.9,0-4.8-1.5-5.6-4.6V317c0-2.8,1.9-4.6,5.9-5.4H72c5.5,0.9,8.3,3.3,8.3,7.2c0,3.6-1.9,6.6-5.6,8.8
			c-1.1,0.4-2,0.6-2.7,0.6c-8,0-13.2-3.2-15.5-9.7c0-0.1-0.2-0.9-0.6-2.1V315c0-4.9,3.2-8.8,9.7-11.8c3-1.2,6.1-1.9,9.4-1.9h0.6
			l1.3,0.3c0-3.6,1.3-5.6,4-6.2l0.6-0.2c2.3,0.5,3.4,1.2,3.4,2.1v0.8c0,2.2-1,3.2-2.9,3.2c-1.3,0-2-0.5-2.1-1.6
			c0.3-0.9,0.8-1.4,1.6-1.4c0.7,0.1,1.1,0.7,1.1,1.9c1,0,1.6-0.8,1.6-2.4v-0.3c0-0.5-0.8-0.9-2.4-1.3c-2.1,0-3.3,1.3-3.7,4
			c0,1.5,1.3,2.6,4,3.2c0.7,0.9,1.5,1.3,2.4,1.3h0.3c4.3,0,7-2.1,8-6.1v-1.1c0-3.3-5.5-7.3-16.4-12.3h-1.3
			c-4.4,4.2-8.5,7.7-12.4,10.7c-2.6,1.8-4.9,2.7-7,2.7H55c-1.8,0-2.6-0.3-2.6-0.8c-0.2,0-0.3,0.1-0.3,0.3c-3.4-1.5-5.1-4.2-5.1-8
			v-0.6c0-3.4,2.5-5.8,7.5-7c1.9,0,2.9,0.4,2.9,1.3l0.6-0.2c1.8,1,2.7,2.1,2.7,3.4v1.1c0,2.7-1.9,4.3-5.7,5.1
			c-1.7-0.5-2.8-1.3-3.2-2.4V290c0-1.1,0.5-1.9,1.6-2.4h1.4c0.9,0.4,1.3,1,1.3,1.9v0.6l-0.8,1l0.6,0.3c2.7-0.3,4-1.5,4-3.7
			c-0.4-1.6-0.8-2.4-1.3-2.4l0.3-0.6v-0.3l-0.6,0.3H58c-1-0.7-2.3-1-4-1c-3.9,0.9-5.9,3.4-5.9,7.4c0,3.7,2.4,5.9,7.2,6.4
			c3.4-0.2,7.4-2.5,12.1-6.9c3.9-3.7,5.9-5.8,5.9-6.2c-13.4-5.6-20.1-12-20.1-19.2v-2.4c0-5.1,2.4-9.4,7.2-12.9
			c0.9-0.7,2.9-1.5,5.9-2.1c2.4-2.8,4.9-4.7,7.4-5.6c2.3-1.1,4-1.6,5.1-1.6v0.3c-2.8,1.8-4.3,3.5-4.3,5.1c0,2.7,2.8,4.8,8.6,6.1
			c0.2,0.2,0.9,0.3,2.1,0.3c2.7,0,6.1-1.2,10.2-3.7c1.5-1.8,2.3-3.5,2.4-5.1c-0.5-1.8-1.4-2.7-2.7-2.7h-1.6
			c-0.9,0.7-1.5,1.1-1.6,1.1v-0.2C92.6,240.7,93.7,239.9,95.4,239.2z M57.1,259.8c0,3.8,3.2,8.3,9.6,13.7c3.1,2.3,7,4.3,11.5,5.9
			c2.1-1.8,3.3-2.6,3.5-2.6v-0.6c-0.7,0-3.9-1.4-9.7-4.3c-4.9-2.7-8.1-5.9-9.7-9.7c-0.7-1.9-1-3.4-1-4.6c0-2.2,0.9-4.7,2.7-7.5h-0.6
			C59.2,251.6,57.1,254.8,57.1,259.8z M58.7,320.8v0.3c0.2,0.6,0.5,0.9,1,1.1v-0.3c-0.3,0-0.5-0.4-0.5-1.1H58.7z M65.4,254.2h0.3
			l-0.3,0.6c0,4.2,3.1,8.2,9.4,11.8l12.4,4.6c1.4-0.6,2.6-1.5,3.7-3c0-0.3-0.3-1.1-0.8-2.4c0-2.7,1-6,3-9.9c-3.8,1.9-7,2.9-9.7,2.9
			h-0.6c-7.4-0.1-12.2-3-14.4-8.8c-0.2-0.3-0.3-0.7-0.3-1.3h-0.3C66.7,249.5,65.9,251.3,65.4,254.2z M80.1,280.2
			c0.1,0,1.1,0.4,3.2,1.1c0.1-0.5,1.3-1.5,3.5-3c-1.8-0.7-2.9-1.1-3.2-1.1C82.3,278.1,81.2,279.1,80.1,280.2z M84.7,282v0.3
			c8.6,3,12.8,7.2,12.8,12.6c0,2.5-2.5,5.8-7.5,9.9c-2.4,0.7-3.7,1.1-4,1.1v0.3c1.4,1.8,2.1,2.9,2.1,3.2h0.3
			c7.3-5.3,11.5-10.4,12.5-15.5c0.2-0.3,0.3-0.6,0.3-1v-1.3c0-2.9-2.5-6.1-7.4-9.7c-2.4-1.4-4-2.1-5.1-2.1
			C86.6,280.2,85.3,280.9,84.7,282z M93.5,268.1c0.8,1.1,1.9,1.6,3.4,1.6h0.3c1.5,0,2.5-0.8,3-2.4c1.8-1.2,3.1-1.9,4-1.9h0.8
			c2.5,0,3.7,1.2,3.7,3.7c-0.2,1.6-1,2.4-2.4,2.4c-0.8-0.4-1.2-0.7-1.3-1.1v-1c0.4-0.8,1-1.3,1.9-1.6c-0.3-0.9-0.9-1.3-1.9-1.3h-0.6
			c-1.9,0-3.2,1.3-4,4c0,2.6,1.8,4.2,5.3,4.6c2.6,0,4.5-1.2,5.7-3.7c0.6-1.8,0.8-3.1,0.8-4c0-2-1.6-3.7-4.8-5.1V262
			C102.3,262,97.7,264,93.5,268.1z"/>
	</g>
</g>
<g id="Layer_2">
	<path fill="#DCAD88" d="M394.7,377c19.9-18,26.5-47.2,15.1-71.5c-0.2-1-0.7-1.7-1.2-2.7c-20.9-40.1-67.6-50.8-67.6-50.8
		c2.9-5.8,9.5-12.9,9.5-12.9c11.2,9.5,32.8,9,32.8,9c25.1,29.4,43.5,22.4,54,12.4c9-8.8,13.6-21.4,11.7-33.6
		c-3.9-27-34.3-25.8-34.3-25.8c-30.6,0-60.3,26.5-60.3,26.5c-11.2-10.7,5.4-39.6,10.7-48.4c1-1.5,2.2-2.9,3.2-4.4
		c32.4-36.7,20.7-59.4,20.7-59.4c-9-22.4-34.5-5.1-34.5-5.1c34.1-3.6,21.4,21.9,21.4,21.9c-11.9,29.9-40.6,28.2-40.6,28.2
		c-109.2-8.5-42.6-49.9-42.6-49.9c-40.9,3.9-56.7,31.4-56.7,31.4c-20.7,1.9-41.4,22.6-41.4,22.6c-14.8,15.6-17.8,36-17,52.5
		c1,21.4,10.9,41.4,27.2,55.2c26.5,22.9,62.5,35.3,62.5,35.3l-34.3,35c-14.8,14.6-27.7,20.9-37.9,23.1c-18,3.9-36.2-7.3-40.4-25.3
		c-1.5-5.8-0.7-11.2,0.7-15.3c2.4-7.5,8.3-13.4,15.8-16.5c19.7-8.3,28.7-1,32.8,5.6c2.9,5.1,3.4,11.2,0.7,16.3
		c-5.6,10.2-18,7.3-18,7.3l1.7-3.4c1.7-3.2,1.5-7.3-1-10c-2.2-2.4-4.9-2.4-7.3-1.9c-4.1,1-7.3,4.4-8.8,8.3c-2.2,6.3,1,10.5,5.1,13.1
		c5.1,3.4,11.9,4.1,17.8,2.2c0.2,0,0.7-0.2,1-0.2c10.9-3.6,17-15.3,14.4-26.5c-3.4-14.6-15.3-18.5-21.2-19.5
		c-1.7-0.2-3.4-0.2-5.1-0.2c-0.2,0-0.5,0-0.7,0c-22.9,2.7-38.2,26-30.9,47.9c5.6,17,20.7,21.9,20.7,21.9
		c34.3,9.5,63.7-23.1,63.7-23.1l38.7-34.5c34.1,10.5,57.2,27.5,67.9,37c6.6,5.8,10.7,14.1,10.5,22.9c-0.7,22.9-28.2,27.7-28.2,27.7
		c-24.1,0.5-36.2-12.6-36.2-12.6c0.7-19.7,9.7-25.8,16.3-25.1c4.4,0.5,8.5,3.2,10.2,7.5c3.2,8.3-6.6,10.2-6.6,10.2
		c0-8.8-4.9-8.3-4.9-8.3h-0.2c-5.1-0.2-7.8,5.8-4.4,9.5c4.4,4.6,9,3.9,12.6,1.9c4.4-2.2,7.5-6.6,7.8-11.4c0-4.1-1.7-7.1-3.6-9
		c-2.7-2.7-6.3-3.9-10.2-4.4c-22.1-1.7-22.6,27.7-22.6,27.7c-10.7-3.4-24.3-1.7-24.3-1.7c-35.5,2.2-59.6,28.7-65.4,47.2
		c-7.1,22.1,0,46.5,17.8,61.3c14.4,11.9,31.4,14.1,44,13.9c14.4-0.2,28-7.3,35.5-19.2c7.3-11.2,6.6-22.1,3.6-30.6
		c-4.6-13.4-16.8-22.9-31.1-24.3c-24.6-2.7-30.9,20.4-30.9,20.4c-4.1,14.1,6.1,20.9,14.8,23.8c11.7,4.1,24.1-3.6,25.1-15.8
		c0-0.2,0-0.5,0-0.7c0.2-3.4-1-7.1-3.4-9.5c-2.2-2.2-4.4-2.7-6.8-2.7c-10.7,0.2-11.2,16.3-0.7,17.8c2.7,0.2,4.6,0.2,4.6,0.2
		c-6.1,10.5-19.9,5.4-19.9,5.4c-8.3-2.7-10.5-8.8-10.2-13.9c0.2-5.8,3.2-11.2,8-14.6c10.5-7.8,20.4-7.3,28.2-4.4
		c10.7,3.9,18,13.4,19.9,24.6c2.7,15.6-4.4,24.8-11.4,29.9c-6.1,4.4-13.6,6.6-21.2,6.3c-57.2-1.9-58.6-46.7-58.6-46.7
		c-1.2-23.1,10.9-34.3,22.1-39.6c8.3-3.9,17.5-5.1,26.8-4.4c58.9,5.6,65.7,55,65.7,55c17.8-30.9,51.8-60.8,66.2-73.5L394.7,377z
		 M256.7,270.2c-16.8-8-37.9-28.9-37.9-28.9c-59.8-67.6,6.6-88.3,6.6-88.3c-20.4,25.5-8,52.5-8,52.5c18,44.8,87.6,66.9,87.6,66.9
		c-9.7,5.8-15.8,11.9-15.8,11.9C283.2,282.3,256.7,270.2,256.7,270.2z M311.9,293l-14.4-4.9c0,0,8-9,15.6-13.4l14.6,4.9
		C327.8,279.7,315.8,287.9,311.9,293z M392.7,336.1c0,0,8,23.6-38.7,68.1c-2.9,2.7-5.8,5.4-9.2,7.5l-11.2,8l-9.7-14.4
		c0,0,29.9-8.8,43.3-30.9c0,0,28.9-34.1-19.9-63.2L318,297.7c0,0,1.7-7.8,18-12.2C336.3,285.7,388.3,302.8,392.7,336.1z
		 M345.8,233.7c-5.4,8.5-16.8,13.4-16.8,13.4c-5.4-2.2-32.4-11.9-32.4-11.9c-14.4-2.9-34.8-15.8-34.8-15.8
		c-55-38.9-18.7-73.5-18.7-73.5c28.7,80,112.4,32.6,112.4,32.6C330.2,220.5,345.8,233.7,345.8,233.7z M440.1,243.7
		c0,0-7.5,25.3-34.1,19.9c0,0-26.3-7.5-11.4-30.4c0,0,12.9-15.1,23.8-0.7c0,0-15.8,7.3-4.1,16.3c0,0,11.9,3.6,12.4-12.6
		c0,0-1.9-20.9-20.4-16.1c0,0-10.2,1.7-19.2,13.6c0,0-5.4,8.5-14.6,7.8c-2.4-0.2-5.1-1.2-7.1-2.7l-7.1-5.1c0,0,28.7-34.3,67.6-24.1
		C425.8,209.6,448.2,216.4,440.1,243.7z"/>
	<path fill="#DCAD88" d="M299.3,34.7c-146.2,0-264.9,118.9-264.9,264.9s118.7,264.9,264.9,264.9s264.9-118.7,264.9-264.9
		S445.5,34.7,299.3,34.7z M292.5,537.5c-124.5-3.4-226-103.9-230.8-228.4c-3.9-102.4,57.2-191.2,145.2-228.4
		c27.2-11.4,57.7-12.2,84.9-1c8,3.2,16.8,7.5,25.8,12.6c0,0,8.5-13.4-3.4-29.9C438.4,70,537.2,173.6,537.2,299.8
		C537.2,433.1,426.8,541.4,292.5,537.5z"/>
</g>
</svg>
