<?xml version="1.0" encoding="utf-8"?>
<!-- Generator: Adobe Illustrator 18.1.1, SVG Export Plug-In . SVG Version: 6.00 Build 0)  -->
<!DOCTYPE svg PUBLIC "-//W3C//DTD SVG 1.1//EN" "http://www.w3.org/Graphics/SVG/1.1/DTD/svg11.dtd">
<svg version="1.1" xmlns="http://www.w3.org/2000/svg" xmlns:xlink="http://www.w3.org/1999/xlink" x="0px" y="0px"
	 viewBox="0 0 467 133" enable-background="new 0 0 467 133" xml:space="preserve">
<g id="Layer_1">
	<path fill="#FFFFFF" d="M39.1,89.9c-0.3,0.3-0.6,0.7-0.9,1.1c-2.3,2.8-5.1,6.1-8.6,8.8c-4.1,3.2-8.2,4.7-12.6,4.7
		c-0.1,0-0.2,0-0.3,0c-0.2,0-0.3,0-0.5,0c-1.9,0-4.2-0.3-6.7-1c-0.9-0.3-1.5-1.2-1.2-2.2c0.2-0.9,1.2-1.4,2.1-1.2
		c5.1,1.4,8.8,1.2,10.9-0.7c4.2-3.8,2.8-14.6,1.4-22.4c-0.1-0.6-0.2-1.2-0.3-1.9c-3.2,4.3-6.9,9.2-11.5,14.9
		c-0.6,0.8-1.7,0.9-2.4,0.3c-0.8-0.6-0.9-1.7-0.3-2.5c5.8-7.2,10.3-13.1,13.8-18c-0.1-4.7,0.5-8.4,1.2-10.9c1.2-4.7,3.3-8.2,5.7-9.5
		c1.6-0.9,3.4-0.8,4.6,0.3c1.4,1.2,1.7,3.3,0.9,6c-0.7,2.1-2,4.8-4.2,8.3c-1.2,2-2.8,4.3-4.6,6.9c0.1,1.7,0.3,3.7,0.6,5.6
		c1.1,6.4,1.6,11.4,1.4,15.3c-0.2,2.4-0.6,4.5-1.2,6.2c3.7-2.4,6.6-6,9.1-9c0.3-0.4,0.6-0.8,0.9-1.2c0.7-0.7,1.8-0.8,2.5-0.2
		C39.7,87.9,39.8,89.1,39.1,89.9z M25.7,64c0.6-0.7,1-1.5,1.5-2.2c5.1-8.3,4-9.7,3.9-9.7c0,0,0,0-0.1,0c-0.1,0-0.2,0-0.4,0.1
		C28.8,53.2,26.5,57.4,25.7,64z"/>
	<path fill="#FFFFFF" d="M119.7,89.8c-0.4,0.4-0.7,0.8-1,1.2c-6.2,7.5-11.4,13.2-15.7,13.2c-3.1,0-4.6-1.5-5.2-2.8
		c-1.3-2.1-1.2-5.4,0.3-9.9c1.2-4.1,3.6-8.9,6.9-14.5c3-5,4.2-9.1,3.4-11.2c-0.2-0.7-0.7-1.1-1.5-1.4c-3.4-1.1-8,1-13.2,6.2
		c-4.5,4.5-9.1,11.1-12,17.3c0,0,0,0.1-0.1,0.1c-3.7,8.6-6.1,14.7-6.2,14.9c-0.2,0.6-0.9,1.1-1.6,1.1c-0.2,0-0.4-0.1-0.6-0.2
		c-0.9-0.3-1.4-1.3-1-2.2c0-0.2,4.1-10.2,9.6-22.6c-0.3,0.3-0.6,0.5-0.9,0.8c-5.3,4.4-10.1,7-14.4,7.8c-3.6,6.1-11.1,16.8-20.8,16.8
		c-4.9,0-7.3-2.4-8.6-4.4c-1.4-2.4-1.8-5.9-1.1-9.8c0.7-3.8,2.3-7.9,4.8-12.2c1.8-3.3,5.3-8.2,9.6-12.3c3.4-3.3,8.4-7.1,13-7.1
		c1,0,1.8,0.8,1.8,1.8c0,0.9-0.8,1.7-1.8,1.7c-2.8,0-6.5,2.2-10.5,6.1c-4.1,3.9-7.3,8.5-9.1,11.5c-2.2,3.9-3.7,7.7-4.3,11.1
		c-0.6,3.1-0.3,5.6,0.7,7.3c0.9,1.7,2.9,2.6,5.4,2.6c5.6,0,10.6-5,13.9-9.2c1-1.3,1.8-2.6,2.6-3.9c-2.9-0.3-4.5-1.6-5.4-2.6
		c-1.4-1.6-2.1-3.8-2.1-6.4c0-3.1,1-6.5,2.9-9.2c2.1-3.2,4.9-4.9,7.6-4.9c2,0,3.9,0.9,5,2.8c2.1,3.4,1.7,9-1.3,15.8
		c7.4-3,15.1-11,17.1-13.2c1.3-3,2.8-5.9,4.2-8.8c0.4-0.9,1.5-1.2,2.4-0.8c0.8,0.4,1.2,1.5,0.8,2.3c-1.1,2.1-2.1,4.3-3.2,6.3
		c0.4-0.3,0.7-0.7,1.1-1c6.2-6.2,12-8.7,16.8-7c1.8,0.6,3.2,1.8,3.8,3.6c1.2,3.3,0,8-3.7,14.3c-7.1,12.1-8.5,18.6-7.2,20.8
		c0.1,0.2,0.5,0.9,2.1,0.9c0.6,0,2.2-0.5,5.6-3.8c2.5-2.4,5.1-5.5,7.3-8.2c0.3-0.4,0.7-0.8,1-1.2c0.6-0.7,1.7-0.8,2.4-0.2
		C120.2,87.9,120.3,89.1,119.7,89.8z M67,69.5c-0.5-0.8-1.2-1.1-2-1.1c-3.3,0-6.9,5.5-6.9,10.5c0,1.2,0.2,2.9,1.2,4.1
		c0.9,1,2.3,1.5,4.3,1.5c0.2,0,0.3,0,0.5,0c0.7-1.3,1.1-2.1,1.2-2.2C69.1,73.8,67.6,70.3,67,69.5z"/>
	<path fill="#FFFFFF" d="M161,89.9c-0.3,0.3-0.6,0.7-1,1.1c-6.2,7.5-11.3,13.2-15.7,13.2c-3.1,0-4.5-1.4-5.2-2.6c-0.7-1.3-1-3-0.8-5
		c-4.7,5.4-9.3,8.2-13.6,8.2c-4.7,0-7-2.3-8-4.3c-1.3-2.4-1.6-5.8-0.7-9.7c0.8-3.8,2.6-7.8,5.2-11.9c3.6-5.6,7.8-10.3,12.4-13.6
		c4.1-2.9,7.9-4.5,11.1-4.5c3.6,0,5.4,1.5,6.3,2.9c0.7,0.9,1.2,2,1.4,3.4c2-3.3,3.3-5.2,3.3-5.2c0.5-0.8,1.6-1,2.4-0.5
		c0.8,0.5,1.1,1.6,0.5,2.4c0,0.1-4,6.1-9.3,15.2c-7.1,12.2-8.4,18.7-7.1,20.8c0.1,0.3,0.4,0.9,2,0.9c0.7,0,2.3-0.5,5.7-3.8
		c2.4-2.3,5-5.5,7.2-8.2c0.4-0.4,0.7-0.8,1-1.2c0.6-0.7,1.7-0.8,2.5-0.2C161.5,87.9,161.6,89.1,161,89.9z M141.9,85.4
		c0-0.1,0.1-0.1,0.1-0.2c1.1-2.4,2.5-5.1,4.3-8c0.7-1.2,1.4-2.4,2.1-3.6c0-0.1,0-0.1,0-0.2c0.4-1.4,1.2-5.5-0.3-7.5
		c-0.7-0.9-1.8-1.4-3.5-1.4c-3.9,0-12.8,4.5-20.6,16.4c-2.3,3.7-4,7.4-4.7,10.7c-0.6,3.1-0.5,5.6,0.4,7.2c0.8,1.6,2.4,2.4,4.9,2.4
		c3.3,0,7.3-2.6,11.5-7.6C139.6,89.5,141.8,85.5,141.9,85.4z"/>
	<path fill="#FFFFFF" d="M219.5,15.9c-1.1,2.5-3.4,5.4-6.5,8.4c-3.3,3-7.3,5.9-11.7,8.5c-3.3,1.8-6.5,3.5-9.8,4.8
		c-2.2,3.3-4.3,6.6-6.2,10.1c-0.1,0-0.1,0-0.1,0c-0.1,0.2-13,22.2-18.3,31.4c-7.1,12.1-8.5,18.7-7.2,20.8c0.1,0.2,0.5,0.9,2.1,0.9
		c0.6,0,2.2-0.5,5.6-3.8c2.5-2.4,5.1-5.5,7.3-8.2c0.3-0.5,0.6-0.8,1-1.2c0.6-0.8,1.7-0.9,2.4-0.2c0.8,0.6,0.9,1.7,0.2,2.4
		c-0.3,0.4-0.6,0.8-0.9,1.2c-6.3,7.4-11.4,13.2-15.7,13.2c-3.1,0-4.6-1.5-5.2-2.8c-1.3-2.1-1.2-5.4,0.3-9.9c1.3-4,3.6-8.9,6.8-14.5
		c5.4-9.2,18.2-31,18.4-31.4c1.2-2.1,2.5-4.2,3.8-6.3c-5.7,1.7-11.4,2.8-16.7,2.8c-10.7,0-18.8-4.2-26.2-7.9
		c-11.3-5.7-21.2-10.7-37.8,0.7c-0.8,0.5-1.9,0.3-2.4-0.5c-0.6-0.8-0.4-1.8,0.4-2.4c4.4-3,8.5-5,12.4-6.2c3.7-1.1,7.2-1.5,10.8-1.2
		c6.6,0.6,12.2,3.5,18.2,6.5c7.2,3.7,14.7,7.5,24.6,7.5c6.3,0,13.1-1.4,20-4c3.5-5.3,7.1-10.1,10.7-14.3c3.1-3.6,5.8-6.4,8.4-8.5
		c2.9-2.3,5.2-3.6,7.1-3.8c1.9-0.2,3.1,0.6,3.8,1.3C220.1,10.6,221,12.6,219.5,15.9z M216.4,11.9c-0.1-0.1-0.2-0.2-0.5-0.2
		c-0.1,0-0.2,0-0.2,0c-1,0.1-4.8,1.2-13.1,10.9c-2.3,2.8-4.8,5.9-7.2,9.2c1.4-0.6,2.8-1.4,4.1-2.1c9.5-5.5,15.3-11.5,16.8-15.2
		C216.5,13.8,217,12.5,216.4,11.9z"/>
	<path fill="#FFFFFF" d="M234.2,89.9c-0.3,0.3-0.6,0.7-0.9,1.1c-2.3,2.8-5.1,6.1-8.6,8.8c-4.1,3.2-8.2,4.7-12.6,4.7
		c-0.1,0-0.2,0-0.3,0c-0.2,0-0.3,0-0.5,0c-1.9,0-4.2-0.3-6.7-1c-0.9-0.3-1.5-1.2-1.2-2.2c0.2-0.9,1.2-1.4,2.1-1.2
		c5.1,1.4,8.8,1.2,10.9-0.7c4.2-3.8,2.8-14.6,1.4-22.4c-0.1-0.6-0.2-1.2-0.3-1.9c-3.2,4.3-6.9,9.2-11.5,14.9
		c-0.6,0.8-1.7,0.9-2.4,0.3c-0.8-0.6-0.9-1.7-0.3-2.5c5.8-7.2,10.3-13.1,13.8-18c-0.1-4.7,0.5-8.4,1.2-10.9c1.2-4.7,3.3-8.2,5.7-9.5
		c1.6-0.9,3.4-0.8,4.6,0.3c1.4,1.2,1.7,3.3,0.9,6c-0.7,2.1-2,4.8-4.2,8.3c-1.2,2-2.8,4.3-4.6,6.9c0.1,1.7,0.3,3.7,0.6,5.6
		c1.1,6.4,1.6,11.4,1.4,15.3c-0.2,2.4-0.6,4.5-1.2,6.2c3.7-2.4,6.6-6,9.1-9c0.3-0.4,0.6-0.8,0.9-1.2c0.7-0.7,1.8-0.8,2.5-0.2
		C234.8,87.9,234.9,89.1,234.2,89.9z M220.8,64c0.6-0.7,1-1.5,1.5-2.2c5.1-8.3,4-9.7,3.9-9.7c0,0,0,0-0.1,0s-0.2,0-0.4,0.1
		C223.9,53.2,221.6,57.4,220.8,64z"/>
	<path fill="#FFFFFF" d="M272.5,89.9c-0.3,0.3-0.6,0.7-1,1.1c-6.2,7.5-11.3,13.2-15.7,13.2c-3.1,0-4.5-1.4-5.2-2.6
		c-1.2-2.2-1.1-5.5,0.3-10c1.3-4,3.7-8.9,6.9-14.5c3-5,4.2-9.1,3.5-11.2c-0.3-0.7-0.8-1.1-1.6-1.4c-3.5-1.1-8.8,2.2-14.7,9.4
		c-3.4,4.1-6.6,9.1-9.9,14.8c-2.9,5.7-5.4,10.8-6.9,14.4c-0.1,0.1-0.1,0.1-0.1,0.2c-0.1,0-0.1,0.1-0.1,0.1c-0.1,0.1-0.1,0.1-0.1,0.1
		v0.1c-0.1,0-0.1,0-0.1,0.1c0,0,0,0-0.1,0v0.1c-0.1,0-0.1,0-0.1,0l-0.1,0.1c0,0-0.1,0-0.1,0.1h-0.1c0,0,0,0-0.1,0c0,0,0,0,0,0.1
		c-0.1,0-0.2,0-0.3,0c-0.1,0.1-0.1,0.1-0.2,0.1c-0.1,0-0.1,0-0.2,0c0,0,0,0-0.1,0c0,0,0,0-0.1,0l-0.1-0.1c0,0,0,0-0.1,0
		c0,0,0,0-0.1,0c-0.1,0-0.1-0.1-0.1-0.1h-0.1c-0.1,0-0.1,0-0.1,0c0-0.1-0.1-0.1-0.1-0.1s0,0-0.1,0c0-0.1,0-0.1,0-0.1h-0.1
		c0-0.1,0-0.1-0.1-0.1c0,0,0,0,0-0.1h-0.1c0-0.1,0-0.1,0-0.1s-0.1,0-0.1-0.1s-0.1-0.1-0.1-0.1v-0.1c0,0,0,0,0-0.1
		c-0.1,0-0.1,0-0.1,0c0-0.1,0-0.1,0-0.1v-0.1c0,0,0,0-0.1-0.1c0,0,0,0,0-0.1c0-0.1,0-0.1,0-0.1v-0.1v-0.1c0,0,0,0,0-0.1
		c0,0,0,0,0-0.1c0-0.1,0-0.1,0-0.1c0-0.1,0-0.1,0.1-0.1v-0.1v-0.1c0,0,0,0,0-0.1c2.2-5.1,4.6-9.9,7-14.5c9.1-17.4,21.8-40,22.5-41.3
		c0.4-0.9,1.5-1.2,2.3-0.7c0.9,0.5,1.2,1.5,0.7,2.4c-0.1,0.2-4.8,8.6-10.5,19c5.2-4.9,10-6.7,13.9-5.4c1.8,0.6,3.2,1.8,3.8,3.6
		c1.2,3.3,0,8-3.7,14.3c-7.1,12.1-8.5,18.6-7.2,20.8c0.2,0.3,0.5,0.9,2.1,0.9c0.7,0,2.3-0.5,5.7-3.8c2.4-2.3,5-5.5,7.2-8.2
		c0.4-0.4,0.7-0.8,1-1.2c0.6-0.7,1.7-0.8,2.5-0.2C273,87.9,273.1,89.1,272.5,89.9z"/>
	<path fill="#FFFFFF" d="M313.8,89.9c-0.3,0.3-0.6,0.7-1,1.1c-6.2,7.5-11.3,13.2-15.7,13.2c-3.1,0-4.5-1.4-5.2-2.6
		c-0.7-1.3-1-3-0.8-5c-4.7,5.4-9.3,8.2-13.6,8.2c-4.7,0-7-2.3-8-4.3c-1.3-2.4-1.6-5.8-0.7-9.7c0.8-3.8,2.6-7.8,5.2-11.9
		c3.6-5.6,7.8-10.3,12.4-13.6c4.1-2.9,7.9-4.5,11.1-4.5c3.6,0,5.4,1.5,6.3,2.9c0.7,0.9,1.2,2,1.4,3.4c2-3.3,3.3-5.2,3.3-5.2
		c0.5-0.8,1.6-1,2.4-0.5c0.8,0.5,1.1,1.6,0.5,2.4c0,0.1-4,6.1-9.3,15.2c-7.1,12.2-8.4,18.7-7.1,20.8c0.1,0.3,0.4,0.9,2,0.9
		c0.7,0,2.3-0.5,5.7-3.8c2.4-2.3,5-5.5,7.2-8.2c0.4-0.4,0.7-0.8,1-1.2c0.6-0.7,1.7-0.8,2.5-0.2C314.3,87.9,314.4,89.1,313.8,89.9z
		 M294.7,85.4c0-0.1,0.1-0.1,0.1-0.2c1.1-2.4,2.5-5.1,4.3-8c0.7-1.2,1.4-2.4,2.1-3.6c0-0.1,0-0.1,0-0.2c0.4-1.4,1.2-5.5-0.3-7.5
		c-0.7-0.9-1.8-1.4-3.5-1.4c-3.9,0-12.8,4.5-20.6,16.4c-2.3,3.7-4,7.4-4.7,10.7c-0.6,3.1-0.5,5.6,0.4,7.2c0.8,1.6,2.4,2.4,4.9,2.4
		c3.3,0,7.3-2.6,11.5-7.6C292.4,89.5,294.6,85.5,294.7,85.4z"/>
	<path fill="#FFFFFF" d="M346.5,89.9c-0.3,0.3-0.7,0.7-1,1.1c-6.2,7.5-11.4,13.2-15.7,13.2c-1.9,0-3.4-0.8-4.2-2.2
		c-0.9-1.6-0.9-4,0-7.1c0.9-3.2,2.9-7.2,5.7-12.2c1.1-1.9,0.1-6.4-2.8-12.2c-3.7,5.2-8.5,11.5-14.8,19.4c-0.6,0.8-1.7,0.9-2.4,0.3
		c-0.8-0.6-0.9-1.7-0.3-2.5c6.8-8.6,11.9-15.3,15.6-20.6c-1.2-2.5-0.2-6.7,0.4-9.1c0.5-1.4,2-6.2,4.7-8.4c1.5-1.2,3.3-1.3,4.6-0.1
		c1.4,1.2,1.7,3.3,0.9,6c-0.7,2.1-2,4.8-4.2,8.3c-0.6,1-1.4,2.2-2.2,3.5c4.4,8,5.5,14,3.6,17.3c-7,12.2-6,15.3-5.7,15.8
		c0.1,0.1,0.3,0.4,1.1,0.4c0.6,0,2.3-0.5,5.6-3.8c2.5-2.3,5.1-5.5,7.3-8.2c0.3-0.4,0.7-0.8,1-1.2c0.6-0.7,1.7-0.8,2.5-0.2
		C347,87.9,347.1,89.1,346.5,89.9z M330.1,61.8c4.3-7,4.2-9.1,4-9.6c-0.5,0.4-1.6,1.6-2.8,4.4c-0.8,2-1.3,4.1-1.5,5.7
		C329.9,62.1,330,62,330.1,61.8z"/>
	<path fill="#FFFFFF" d="M407,89.9c-0.3,0.3-0.7,0.7-1,1.1c-6.2,7.5-11.4,13.2-15.7,13.2c-3.1,0-4.5-1.4-5.2-2.6
		c-1.3-2.2-1.2-5.5,0.3-10c1.3-4,3.6-8.9,6.9-14.5c3-5,4.2-9.1,3.4-11.2c-0.2-0.7-0.7-1.1-1.5-1.4c-3.4-1.1-8,1-13.1,6.2
		c-4.2,4.1-8.4,10.1-11.3,15.8c-3.5,6.8-5.2,12.2-5.1,15.9c0.1,1-0.7,1.8-1.7,1.8s-1.7-0.8-1.8-1.7c-0.1-4,1.4-9.3,4.6-15.9
		c0-0.1,0.1-0.1,0.1-0.1c0.2-0.5,0.4-1,0.7-1.5c1.2-2.4,2.6-5,4.3-7.8c3-5,4.2-9.1,3.5-11.2c-0.3-0.7-0.8-1.1-1.6-1.4
		c-3.4-1.1-8,1-13.1,6.2c-4.5,4.5-9.2,11.1-12,17.3c-0.1,0-0.1,0.1-0.1,0.1c-3.8,8.7-6.2,14.8-6.2,14.9c-0.3,0.7-1,1.1-1.7,1.1
		c-0.2,0-0.4-0.1-0.6-0.2c-0.9-0.3-1.3-1.3-1-2.2c0.1-0.2,8.6-21.3,18-40.3c0.4-0.9,1.4-1.2,2.3-0.8c0.9,0.4,1.2,1.5,0.8,2.3
		c-1,2.1-2,4.3-3.1,6.4c0.3-0.4,0.7-0.8,1-1.1c6.2-6.2,12-8.7,16.8-7c1.8,0.6,3.2,1.8,3.8,3.6c0.5,1.1,0.6,2.5,0.4,4.1
		c0.2-0.2,0.4-0.4,0.6-0.6c6.2-6.2,12-8.7,16.8-7c1.8,0.6,3.2,1.8,3.8,3.6c1.2,3.3,0,8-3.7,14.3c-7.1,12.1-8.5,18.6-7.2,20.8
		c0.1,0.3,0.5,0.9,2.1,0.9c0.6,0,2.3-0.5,5.6-3.8c2.5-2.3,5.1-5.5,7.3-8.2c0.3-0.4,0.7-0.8,1-1.2c0.6-0.7,1.7-0.8,2.5-0.2
		C407.5,87.9,407.6,89.1,407,89.9z"/>
	<path fill="#FFFFFF" d="M460,93.7c-0.7,3.4-2.2,6.7-4.4,10c-2.3,3.7-5.4,7-9,9.9c-4.1,3.2-8.8,5.7-14,7.4c-5.9,2-12.4,3.1-19.5,3.1
		c-21.8,0-38.9-1.3-55.5-2.4c-25.3-1.8-43.2-2.5-73.9,1.1c-1,0.2-1.8-0.5-2-1.5c-0.1-1,0.6-1.8,1.6-1.9c31.1-3.7,49.1-3.1,74.7-1.2
		c16.5,1.1,33.5,2.4,55.2,2.4c12.4,0,23.2-3.4,31.3-9.8c8.7-6.8,11.3-14.8,12-17.8c1.1-4.4,0.4-7.3-0.8-7.9c-1-0.5-3.6,0.4-7.3,4.7
		c0,0.1,0,0.1-0.1,0.1c-0.3,0.4-0.6,0.8-0.9,1.2c-6.3,7.4-11.4,13.2-15.7,13.2c-3.1,0-4.6-1.5-5.2-2.8c-0.8-1.2-1-2.9-0.8-5
		c-4.8,5.4-9.4,8.2-13.7,8.2c-4.7,0-6.9-2.3-8-4.3c-1.3-2.4-1.5-5.8-0.7-9.7c0.8-3.7,2.6-7.7,5.2-11.8c3.7-5.6,7.9-10.3,12.4-13.6
		c4.1-3,8-4.5,11.1-4.5c3.6,0,5.4,1.5,6.4,2.9c0.6,0.9,1.1,2,1.3,3.3c2-3.3,3.3-5.1,3.3-5.1c0.6-0.8,1.7-1.1,2.5-0.5
		c0.8,0.5,1,1.6,0.5,2.4c-0.1,0-4,6-9.3,15.2c-7.1,12.1-8.5,18.7-7.2,20.8c0.1,0.2,0.5,0.9,2.1,0.9c0.6,0,2.2-0.5,5.6-3.8
		c2.4-2.4,5.1-5.5,7.3-8.2c0.3-0.4,0.6-0.7,0.8-1.1c0.1,0,0.1-0.1,0.2-0.1c2.1-2.5,4.2-4.4,6.1-5.4c2.6-1.3,4.5-0.9,5.6-0.3
		C460.4,83.3,461.4,87.9,460,93.7z M429.2,85.4c0-0.1,0.1-0.2,0.1-0.2c1.2-2.4,2.6-5.2,4.3-8c0.8-1.2,1.5-2.4,2.1-3.6
		c0-0.1,0-0.2,0.1-0.2c0.4-1.4,1.2-5.5-0.3-7.6c-0.7-0.9-1.8-1.3-3.6-1.3c-3.9,0-12.8,4.4-20.5,16.4c-2.3,3.7-4,7.3-4.8,10.7
		c-0.6,3-0.5,5.5,0.4,7.2c0.9,1.5,2.5,2.3,4.9,2.3c3.4,0,7.3-2.6,11.5-7.6C426.9,89.5,429.2,85.4,429.2,85.4z"/>
</g>
<g id="Layer_2">
</g>
</svg>
