<?xml version="1.0" encoding="utf-8"?>
<!-- Generator: Adobe Illustrator 18.0.0, SVG Export Plug-In . SVG Version: 6.00 Build 0)  -->
<!DOCTYPE svg PUBLIC "-//W3C//DTD SVG 1.1//EN" "http://www.w3.org/Graphics/SVG/1.1/DTD/svg11.dtd">
<svg version="1.1" id="Layer_1" xmlns="http://www.w3.org/2000/svg" xmlns:xlink="http://www.w3.org/1999/xlink" x="0px" y="0px"
	 viewBox="0 0 471.5 118.4" enable-background="new 0 0 471.5 118.4" xml:space="preserve">
<path fill="#FFFFFF" d="M198.6,63.2c3.8,3.7,7.6,7.7,10.6,12.1c3.5,5.1,5.9,10.8,3.6,16.5c-5.5,3.4-10,5.9-14.1,8.9
	c-3.6,2.6-6.6,5.4-7.7,9.9c-1.1,4.2,0.6,7.1,4.1,7.8c1.8,0.4,3.6,0,5.2-0.9c8.1-4.5,12.1-12.9,16.3-20.7c0,0,17.8-6.1,23.1-12.9
	c-0.4,3.8-3.3,11.7-3.8,14.6c-0.7,3.7,4.1,5.9,6.4,2.9c1.1-1.5,2-3.1,2.9-4.7c4.4-7.6,8.6-15.3,13-22.9c0.8-1.3,1.5-2.7,2.5-3.9
	c1.4-1.9,4.4-0.6,4,1.7c-0.2,1.1-0.5,2.2-0.9,3.4c-1.6,4.6-2.2,9.4-2.6,14.3c-0.2,2.6-1,5.6-1,8.4c0,5.1,6.1,8,9.9,4.6
	c2.7-2.4,4.2-6.3,7-8.6c0.9,0.7,1.8,1.4,2.7,2c2.4,1.8,5.7,2,8.1,0.4c2.1-1.4,3.9-3.2,5.6-5.2c-0.3,0.1-0.8-0.1-0.2-0.7
	c0.3,0.2,0.4,0.4,0.3,0.5c1.7-2,3.4-4.1,5.4-6.2c-0.1,4.3-0.5,7.7-0.2,11c0.1,0.8,0.2,1.7,0.3,2.6c0.7,4.3,5.8,6.5,9.3,3.9
	c1.5-1.1,2.7-2.5,3.7-4c4.4-6.9,8.5-14.1,12.5-21.4c1.2-2.2,2.2-4.5,3.2-7c0.8-1.9,2.9-2.9,5-2.3c1.1,0.4,2.3,0.7,3.4,1
	c2.1,0.6,3.2,2.9,2.4,4.9c-0.7,1.9-1.4,3.6-1.9,5.3c-1.1,4-2.4,8-2.8,12.1c-0.1,1.2-0.1,2.5,0.1,3.6c0.9,4.3,6,5.9,9.4,3
	c6.7-5.7,9.5-14.4,14.4-21.7c0.5-0.7,1.6-0.3,1.5,0.6c-0.4,2.4-0.9,4.7-1,7c0,2-1.1,4.2-1.1,6.4c0,2.3,2.9,3.3,4.4,1.6
	c8.3-9.4,12.3-21.7,20.8-31.9c0.9-1,2.6-0.3,2.4,1.1c-1,9.7-4.6,18.3-4.6,27.9c0,2.1,2.5,3.2,4.1,1.8c8.2-7.4,11.4-18.1,20.9-24.6
	c-0.7,4.8-1.3,8.1-1.7,11.5c-0.5,3.6-1.3,7.3-1,10.9c0.1,2.1,1.6,4.7,3.2,6c2.2,1.8,4.7,0,6.5-1.6c1.6-1.4,3-3.2,4.3-4.9
	c1.6-2.1,3-4.4,4.5-6.6c1.2,1.2,2.4,2.3,3.5,3.5c2,2,5.2,2.4,7.6,1c4.6-2.8,7.2-7.7,11.6-11.4c-0.1,4.2-0.6,7.4-0.3,10.5
	c0,0.3,0,0.5,0.1,0.8c0.5,5,6.3,7.5,10.1,4.3c6-5,11.8-13.7,13.6-20.7c0.3-1.3-1.5-2-2.2-0.8c-1.5,2.8-2.8,5.3-4.4,7.8
	c-2.1,3.1-3.4,7.2-7.3,9.1c-1.6,0.8-3.4,0-3.9-1.7c-2.5-9.1,1.3-17.6,3.4-26.4c0.5-2.3-1.3-4.5-3.7-4.3l-1,0.1
	c-4.3-5.1-6.6-5.7-11.7-1.2c-3.8,3.3-7,7.5-9.7,11.8c-3.9,6.2-6.8,12.9-10.5,19.2c-1.5,2.6-3.9,4.6-5.8,6.9
	c-0.8-0.2-0.9-0.2-1.6-0.5c-0.3-1.7-0.9-3.5-0.7-5.2c0.4-4.1,1.4-8.2,1.9-12.3c0.3-2.6,0.5-5.4,0-8c-1-5.3-5-6.8-9.1-3.4
	c-2.2,1.8-4.1,4.2-5.8,6.5c-1.9,2.4-3.5,5-6,8.7c-0.2-6.6,2.6-12.9,1.7-18.8c-0.6-4.2-5.8-5.7-8.8-2.8c-7.4,7.2-11,17.1-17.3,25.7
	c-0.2-6.8,2.4-12.9,1.6-19.7c-0.3-2.3-3.3-2.9-4.5-0.9c-1.8,3.2-3.1,5.7-4.6,8.9c-3.4,7.2-7.1,14.2-11,21.1c-1.4,2.4-3,4.8-6.2,5.6
	c-2.1-2.9-1.4-5.7-0.4-8.5c1.4-3.6,3.1-7.1,4.5-10.8c1.8-5,0.4-7.9-4.7-9.6c-2.7-0.9-5.4-1.5-8.4-2.3c1.3-3.9,3.1-7.4,3.5-10.9
	c0.5-4.5-3.5-8.6-8-7.6c-2.7,0.6-4.1,3.1-3.8,7.3c0.3,4.2,2,8.3,3.5,14c-4,7.7-8.5,16.8-13.4,25.8c-0.9,1.6-1.9,3.4-3.7,4.3
	c-1.8,0.9-3.9-0.1-4.5-2c-2.4-8.9,1.5-17.3,3.5-26.2c0.5-2.2-1.2-4.2-3.4-4l-1.1,0.1c-4.4-5.1-6.3-5.4-11.8-1.4
	c-1.6,1.1-3.2,2.4-4.2,4c-3.3,5.4-6.3,10.9-9.4,16.4c-2.5,4.4-4.7,9-7.3,13.4c-0.5,0.8-1.2,1.4-2.2,2.1c-1.3,0.9-3.1,0-3.1-1.6
	c0.1-2.4,0.2-4.3,0.5-6.1c0.7-4.3,1.9-8.6,2.8-12.9c0.8-4.1,1.5-8.2,1.8-12.3c0,0,0-0.1,0-0.1c0.3-4.4-4.8-6.9-8.1-4
	c-7.5,6.6-11.1,17.1-17.8,26.4c0.7-9.1,2.8-16,6.1-22.6c5.7-11.9,10.5-24.2,13.1-37.2c0.5-2.7,0.9-5.3,0.3-7.8
	c-0.5-2.1-2.3-3.8-4.4-3.6c-1.8,0.1-3.2,1.3-4.2,3.1c-1.8,3.1-3.7,6.4-4.7,9.8c-2.6,8.9-5.4,17.8-6.9,26.9c-0.7,4-1.1,7.2-1.6,10
	c-2.1,12.6-11.8,22.6-24.3,25.3c-0.1,0-0.2,0.1-0.4,0.1c0.2-9.5-3.7-16.9-9.3-23.5c0,0.1-0.1,0.2-0.6,0.1c0-0.3,0.2-0.4,0.4-0.3
	c-0.6-0.7-1.2-1.3-1.8-2c-2.3-2.5-4.8-4.9-6.7-7.7c-1.7-2.6-3.3-5.5-3.8-8.5c-1.9-10.8,7.9-21.8,19.8-22.5c8-0.5,13.2,4.8,12.1,12.6
	c-0.1,0.7-0.3,1.3-0.6,2c-0.9,1.9,1.5,3.9,3.1,2.5c0.8-0.7,1.3-1.6,1.8-2.7c2.1-4.8,1-9.2-2.3-12.9c-5.2-5.9-12-7.6-19.3-6
	c-9.6,2.1-15.9,8.4-18.8,17.7C189,49.1,191.9,56.6,198.6,63.2z M199.1,101.8C199.8,100.6,199.5,102.7,199.1,101.8L199.1,101.8z
	 M192.9,114.7c-0.5,0.2,0.7-0.3,0.9-0.3C193.7,114.4,193.5,114.5,192.9,114.7z M203.7,113.6C203.8,112.7,205,113.9,203.7,113.6
	L203.7,113.6z M205.8,110.9C205.8,110.9,205.8,110.9,205.8,110.9c-0.1,0.2-0.2,0.3-0.2,0.4C205.7,111.2,205.7,111.1,205.8,110.9
	C205.8,110.9,205.8,110.9,205.8,110.9C205.8,110.9,205.8,110.9,205.8,110.9c0.1-0.2,0.2-0.4,0.2-0.4
	C206,110.5,205.9,110.7,205.8,110.9z M207.3,105.3C206.5,104.4,208.3,106.1,207.3,105.3L207.3,105.3z M198,115.1
	c-1.9,1.3-4.7,0-4.5-2.4c0,0-0.5-6.6,15.4-12.5C205.9,105.6,203.5,111.2,198,115.1z M262.5,92.3C263.5,91.6,261.7,93.3,262.5,92.3
	L262.5,92.3z M336.8,96.5C337.7,95.7,336,97.4,336.8,96.5L336.8,96.5z M437.9,56.8c2.1-2.2,5.3-2.9,8.2-1.9c0,0,0,0,0.1,0
	c1,0.4,1.5,1.4,1.2,2.4c-3.3,10.2-8.5,18.2-14.1,21.8c-2.2,1.4-5-0.3-4.9-2.9C428.6,70.2,432.2,62.8,437.9,56.8z M423.8,81.7
	C424.6,80.6,424.3,82.7,423.8,81.7L423.8,81.7z M417.4,83.8C417.5,82.9,418.7,84.1,417.4,83.8L417.4,83.8z M388.3,55.2
	C388.7,54.3,389.9,55.5,388.3,55.2L388.3,55.2z M372.7,69.3C372.7,68.5,374,69.6,372.7,69.3L372.7,69.3z M360.1,63.2
	C361.1,62.3,359.3,64.1,360.1,63.2L360.1,63.2z M355.8,72.9C355.7,72.8,356,73.1,355.8,72.9L355.8,72.9z M293.2,67.7
	c2-2,5-2.7,7.7-1.9c0,0,0,0,0.1,0c1.3,0.4,2.1,1.7,1.9,3c-0.8,5.7-8.8,17-15.8,21.9c-1.5,1.1-3.6-0.1-3.6-1.9
	C283.5,82,287.3,73.9,293.2,67.7z M262.1,65.2C262.5,64.3,263.8,65.5,262.1,65.2L262.1,65.2z M257,25.6c0.5-1.2,2.3-0.7,2.2,0.6
	c-1.2,11.1-5.5,21.2-10.3,31.2C250.4,46.4,252.4,35.6,257,25.6z M242.6,92.9C242.6,92,243.8,93.2,242.6,92.9L242.6,92.9z
	 M228.2,90.3C228.2,89.4,229.4,90.6,228.2,90.3L228.2,90.3z M213.2,96.2C213.2,95.3,214.4,96.5,213.2,96.2L213.2,96.2z"/>
<line fill="#FFFFFF" stroke="#000000" stroke-width="0" stroke-linecap="round" stroke-linejoin="round" x1="55.7" y1="59.7" x2="55.5" y2="59.7"/>
<path fill="#FFFFFF" d="M11.9,99.5c-3.6,2.6-6.6,5.4-7.7,9.9c-1.1,4.2,0.6,7.1,4.1,7.8c1.8,0.4,3.6,0,5.2-0.9
	c8.1-4.5,12.1-12.9,16.3-20.7c0,0,9.8-6.2,13.7-12.8c0,0.3,0.1,0.6,0.1,0.8c0.8,4,2.7,7.6,7.1,8.8c1.4,0.4,3,0.2,4.3-0.4
	c7.9-3.4,8.2-12.3,11.1-19.5c6.2,2.8,10.9-0.5,16.1-3.3C82,76,79.6,81.8,79.5,87.9c0,2.1,2.4,3.4,4,2.1c1.3-1,2.1-2.6,3-4
	c4.4-7,8.5-14.3,12.8-21.4c1.2-2,2.4-4.2,4.2-6.1c1.3-1.5,3.8-0.3,3.5,1.6c-0.3,1.8-0.5,3.5-0.8,5.1c-1.1,6.5-2.5,12.9-3.4,19.4
	c-0.2,1.3-0.3,2.6-0.2,3.8c0.4,4.4,5.5,6.6,9,3.8c3.6-2.9,5.6-7.3,8.5-10.9c0.9,0.8,1.8,1.6,2.6,2.4c2.7,2.5,6.7,2.8,9.6,0.7
	c3.9-2.8,6.3-7.1,9.9-10.5c0.8,4.1-0.3,8.6,0.4,12.6c0.8,4.6,6.4,6.6,10,3.7c5.6-4.5,8.6-11.5,13.4-18.3c-0.8,5.3-1.7,8.8-1.8,12.4
	c0,0.8-0.1,1.6-0.2,2.4c-0.3,4.8,5.3,7.6,9.1,4.5c3.4-2.8,6.6-7,10.3-13.2c3.3-5.5,4.9-8.5,5.5-11.1c0.3-1.5-1.7-2.2-2.4-0.9
	c-1.9,3.5-3.7,6.8-5.8,9.9c-2.2,3.3-4.2,7.2-8,9.6c-1.8,1.1-4.1-0.4-3.8-2.5c1.8-10.9,4-21.1,8-30.9c4-9.7,8.1-19.4,11.6-29.2
	c1.9-5.2,2.7-10.8,3.7-16.4c0.2-1.1,0.2-2.2,0-3.2c-0.7-3.3-4.8-4.6-7.5-2.4c-3.3,2.7-4.7,6.9-5.8,10.8c-3.4,11.7-6.7,23.5-8.7,35.4
	c-2.2,12.7-8.5,23.2-14.5,34c-0.5,0.9-1.1,1.8-1.8,2.6c-1.9,2-5.4,1.2-6.3-1.5c-0.6-1.7-0.5-3.5-0.2-5.2c1.4-7.2,3.2-14.2,4.7-21.4
	c0.1-0.5,0.1-1,0.1-1.5c0-1.2-1-2.3-2.2-2.4c-0.1,0-0.2,0-0.3,0c-0.9,0.1-1.7,0.6-2.5,0.9c-4.5-5.3-6.4-5.6-11.5-1.9
	c-2,1.4-3.9,3.1-5.2,5.1c-3.2,4.9-5.9,10-8.9,15.1c-3,5-5.8,10.1-9,15c-0.5,0.8-1.4,1.3-2.7,2c-0.9,0.5-2.1-0.2-2-1.2
	c0.1-2.6,0.1-4.6,0.5-6.6c0.9-5,2.3-10,3.2-15c0.7-3.8,1-7.7,1.2-11.6c0,0,0-0.1,0-0.1c0.2-4-4.6-6.1-7.6-3.4
	c-7.9,7-11.8,17.5-18.2,27.1c-0.7-6.7,2.4-13,1.4-19.9c-0.3-2.4-3.6-3-4.7-0.8c-0.9,1.8-1.6,3.3-2.4,4.9c-3.8,7.8-8,8.9-15.8,4
	c-0.7-2.3-1.4-4.6-2.2-7.4c2.5-3.4,3-5.3,1.5-7.1c-1.8-2.1-4.1-2.8-6.6-1.6c-2.2,1.1-4.4,2.2-6.1,3.9C45.3,60,42.6,68,42.9,76.7
	c-2.1,4-5.2,8.4-10.3,11.2c-0.1,0.1-1.6,0.7-1.8,0.8c0.3-10.6-4.5-17.1-11.2-24.2c-2.3-2.5-4.8-4.9-6.7-7.7
	c-1.7-2.6-3.3-5.5-3.8-8.5C7.3,37.4,17.1,26.5,29,25.7c8-0.5,13.2,4.8,12.1,12.6c-0.1,0.7-0.3,1.3-0.6,2c-0.9,1.9,1.5,3.9,3.1,2.5
	c0.8-0.7,1.3-1.6,1.8-2.7c2.1-4.8,1-9.2-2.3-12.9c-5.2-5.9-12-7.6-19.3-6C14.2,23.3,7.9,29.6,5,38.9C2.1,48,5,55.6,11.8,62.1
	c3.8,3.7,7.6,7.7,10.6,12.1c3.5,5.1,5.9,10.8,3.6,16.5C20.5,94.1,16,96.5,11.9,99.5z M11.1,114c-1.9,1.3-4.7,0-4.5-2.4
	c0,0-0.5-5.5,15.4-12.5C19.1,104.5,16.6,110.2,11.1,114z M183.5,76.4C184.5,75.6,182.8,77.3,183.5,76.4L183.5,76.4z M173.7,87.6
	C173.8,86.7,175,87.8,173.7,87.6L173.7,87.6z M185.5,7.7c0.7-1.3,2.7-0.6,2.5,0.9c-1.8,11.7-6.3,21.8-10.6,31.8
	C177.6,29.6,181.3,15.4,185.5,7.7z M150.1,54.5C151.2,53.8,149.4,55.5,150.1,54.5L150.1,54.5z M143.7,53.7
	C144.1,52.8,145.3,54,143.7,53.7L143.7,53.7z M136.2,57.3c1.8-2.2,4.9-3.2,7.6-2.3c0,0,0,0,0.1,0c1.5,0.5,2.4,2.1,1.9,3.6
	c-2.9,8.7-7.5,16.1-15.5,22.1c-1.5,1.1-3.6,0-3.5-1.9C127.1,69.9,131.2,63.4,136.2,57.3z M118.3,79.9
	C119.3,79.2,117.6,80.9,118.3,79.9L118.3,79.9z M102.1,54.5C102.1,53.7,103.3,54.8,102.1,54.5L102.1,54.5z M101.8,58.7
	C101.8,57.8,103,59,101.8,58.7L101.8,58.7z M97.5,66C96.5,67.1,96.4,65.1,97.5,66L97.5,66z M91,72.8C91.1,71.9,92.3,73.1,91,72.8
	L91,72.8z M85.9,60.6c0,0.1-0.1,0.1-0.1,0.2c0,0,0,0,0,0C85.9,60.7,85.9,60.6,85.9,60.6z M84.9,56.6C85.3,55.6,85.6,57.8,84.9,56.6
	L84.9,56.6z M77,70.7C77.1,69.8,78.3,71,77,70.7L77,70.7z M73.3,70.7C73.4,69.8,74.6,71,73.3,70.7L73.3,70.7z M71.1,69.6
	C71.2,68.7,72.4,69.9,71.1,69.6L71.1,69.6z M67.5,70.4C67.6,69.5,68.8,70.7,67.5,70.4L67.5,70.4z M47.6,84.6
	C48,83.6,48.3,85.8,47.6,84.6L47.6,84.6z M62.3,66.6C63.7,66.8,62,68.4,62.3,66.6L62.3,66.6z M59.6,64.8c0,0,0.4,0.7,0.9,1.4
	c0.7,1.2,1.2,2.6,1.2,4.1c0,4.3-2.4,9.3-4.9,13.1c-1.7,2.6-5.7,2-6.6-0.9c-0.4-1.2-0.6-2.5-0.8-3.7c-0.2-1.4,0.2-2.8,1.1-3.8
	c1.9-2.4,5.1-6.6,6.9-9.3C58.3,64.1,59,63,59.6,64.8z M52.3,60c1.1-1.7,3.3-3.8,4.5-2.5c1.3,1.3-7,9.7-9.9,14
	C48.3,67.4,50.1,63.6,52.3,60z M44.5,66C44.9,65.1,46.1,66.4,44.5,66L44.5,66z M43.9,81.7C43.8,81.6,44.1,81.9,43.9,81.7L43.9,81.7z
	 M35.3,89.1C35.4,88.2,36.6,89.3,35.3,89.1L35.3,89.1z M9.3,52.8C9.4,51.9,10.6,53.1,9.3,52.8L9.3,52.8z M12.4,59.6
	C11.9,61.6,10.6,60.4,12.4,59.6L12.4,59.6z M15.1,61.9C16.5,60.8,16.3,62.7,15.1,61.9L15.1,61.9z"/>
<path fill="#FFFFFF" d="M9.3,52.8C10.6,53.1,9.4,51.9,9.3,52.8L9.3,52.8z"/>
<path fill="#FFFFFF" d="M143.7,53.7C145.3,54,144.1,52.8,143.7,53.7L143.7,53.7z"/>
<path fill="#FFFFFF" d="M102.1,54.5C103.3,54.8,102.1,53.7,102.1,54.5L102.1,54.5z"/>
<path fill="#FFFFFF" d="M150.1,54.5C149.4,55.5,151.2,53.8,150.1,54.5L150.1,54.5z"/>
<path fill="#FFFFFF" d="M84.9,56.6C85.6,57.8,85.3,55.6,84.9,56.6L84.9,56.6z"/>
<path fill="#FFFFFF" d="M101.8,58.7C103,59,101.8,57.8,101.8,58.7L101.8,58.7z"/>
<path fill="#FFFFFF" d="M15.1,61.9C16.3,62.7,16.5,60.8,15.1,61.9L15.1,61.9z"/>
<path fill="#FFFFFF" d="M85.9,60.6c0,0.1-0.1,0.1-0.1,0.2c0,0,0,0,0,0C85.9,60.7,85.9,60.6,85.9,60.6z"/>
<path fill="#FFFFFF" d="M67.5,70.4C68.8,70.7,67.6,69.5,67.5,70.4L67.5,70.4z"/>
<path fill="#FFFFFF" d="M73.3,70.7C74.6,71,73.4,69.8,73.3,70.7L73.3,70.7z"/>
<path fill="#FFFFFF" d="M77,70.7C78.3,71,77.1,69.8,77,70.7L77,70.7z"/>
<path fill="#FFFFFF" d="M44.5,66C46.1,66.4,44.9,65.1,44.5,66L44.5,66z"/>
<path fill="#FFFFFF" d="M97.5,66C96.4,65.1,96.5,67.1,97.5,66L97.5,66z"/>
<path fill="#FFFFFF" d="M62.3,66.6C62,68.4,63.7,66.8,62.3,66.6L62.3,66.6z"/>
<path fill="#FFFFFF" d="M388.3,55.2C389.9,55.5,388.7,54.3,388.3,55.2L388.3,55.2z"/>
<path fill="#FFFFFF" d="M71.1,69.6C72.4,69.9,71.2,68.7,71.1,69.6L71.1,69.6z"/>
<path fill="#FFFFFF" d="M91,72.8C92.3,73.1,91.1,71.9,91,72.8L91,72.8z"/>
<path fill="#FFFFFF" d="M183.5,76.4C182.8,77.3,184.5,75.6,183.5,76.4L183.5,76.4z"/>
<path fill="#FFFFFF" d="M262.1,65.2C263.8,65.5,262.5,64.3,262.1,65.2L262.1,65.2z"/>
<path fill="#FFFFFF" d="M208,67.9c0.4,0.1,0.6,0,0.6-0.1c0-0.1-0.1-0.2-0.2-0.2C208.2,67.5,208,67.5,208,67.9z"/>
<path fill="#FFFFFF" d="M118.3,79.9C117.6,80.9,119.3,79.2,118.3,79.9L118.3,79.9z"/>
<path fill="#FFFFFF" d="M372.7,69.3C374,69.6,372.7,68.5,372.7,69.3L372.7,69.3z"/>
<path fill="#FFFFFF" d="M43.9,81.7C44.1,81.9,43.8,81.6,43.9,81.7L43.9,81.7z"/>
<path fill="#FFFFFF" d="M47.6,84.6C48.3,85.8,48,83.6,47.6,84.6L47.6,84.6z"/>
<path fill="#FFFFFF" d="M355.8,72.9C356,73.1,355.7,72.8,355.8,72.9L355.8,72.9z"/>
<path fill="#FFFFFF" d="M173.7,87.6C175,87.8,173.8,86.7,173.7,87.6L173.7,87.6z"/>
<path fill="#FFFFFF" d="M35.3,89.1C36.6,89.3,35.4,88.2,35.3,89.1L35.3,89.1z"/>
<path fill="#FFFFFF" d="M423.8,81.7C424.3,82.7,424.6,80.6,423.8,81.7L423.8,81.7z"/>
<path fill="#FFFFFF" d="M417.4,83.8C418.7,84.1,417.5,82.9,417.4,83.8L417.4,83.8z"/>
<path fill="#FFFFFF" d="M293.4,90c-0.6,0.6,0,0.8,0.2,0.7c0.1,0,0.1-0.1,0.1-0.1C293.8,90.4,293.7,90.2,293.4,90z"/>
<path fill="#FFFFFF" d="M228.2,90.3C229.4,90.6,228.2,89.4,228.2,90.3L228.2,90.3z"/>
<path fill="#FFFFFF" d="M262.5,92.3C261.7,93.3,263.5,91.6,262.5,92.3L262.5,92.3z"/>
<path fill="#FFFFFF" d="M242.6,92.9C243.8,93.2,242.6,92,242.6,92.9L242.6,92.9z"/>
<path fill="#FFFFFF" d="M213.2,96.2C214.4,96.5,213.2,95.3,213.2,96.2L213.2,96.2z"/>
<path fill="#FFFFFF" d="M199.1,101.8C199.5,102.7,199.8,100.6,199.1,101.8L199.1,101.8z"/>
<path fill="#FFFFFF" d="M205.8,110.9c-0.1,0.2-0.1,0.3-0.2,0.4C205.7,111.3,205.7,111.1,205.8,110.9z"/>
<path fill="#FFFFFF" d="M206,110.5c0,0.1-0.1,0.2-0.2,0.4C205.9,110.7,206,110.5,206,110.5z"/>
<path fill="#FFFFFF" d="M205.8,110.9C205.8,110.9,205.8,110.9,205.8,110.9C205.8,110.9,205.8,110.9,205.8,110.9
	C205.8,110.9,205.8,110.9,205.8,110.9z"/>
<path fill="#FFFFFF" d="M203.7,113.6C205,113.9,203.8,112.7,203.7,113.6L203.7,113.6z"/>
<path fill="#FFFFFF" d="M12.4,59.6C10.6,60.4,11.9,61.6,12.4,59.6L12.4,59.6z"/>
<path fill="#FFFFFF" d="M360.1,63.2C359.3,64.1,361.1,62.3,360.1,63.2L360.1,63.2z"/>
<path fill="#FFFFFF" d="M336.8,96.5C336,97.4,337.7,95.7,336.8,96.5L336.8,96.5z"/>
<path fill="#FFFFFF" d="M207.3,105.3C208.3,106.1,206.5,104.4,207.3,105.3L207.3,105.3z"/>
<path fill="#FFFFFF" d="M192.9,114.7c0.5-0.2,0.8-0.3,0.9-0.3C193.6,114.5,192.5,114.9,192.9,114.7z"/>
</svg>
