<?xml version="1.0" encoding="utf-8"?>
<!-- Generator: Adobe Illustrator 18.0.0, SVG Export Plug-In . SVG Version: 6.00 Build 0)  -->
<!DOCTYPE svg PUBLIC "-//W3C//DTD SVG 1.1//EN" "http://www.w3.org/Graphics/SVG/1.1/DTD/svg11.dtd">
<svg version="1.1" id="Layer_1" xmlns="http://www.w3.org/2000/svg" xmlns:xlink="http://www.w3.org/1999/xlink" x="0px" y="0px"
	 viewBox="0 0 300 300" enable-background="new 0 0 300 300" xml:space="preserve">
<circle fill="#28374F" cx="149.9" cy="150" r="147.4"/>
<polygon opacity="0.2" fill="#010101" enable-background="new    " points="98,103.3 91.3,105.3 91.3,129.7 145.3,144 91.3,163.3 
	91.3,186 155,197.7 117,216.7 123.2,226.3 114,251.3 196,208.3 196,173.9 113,165 175.7,148.7 176.7,127.1 "/>
<path opacity="0.19" fill="#384A68" enable-background="new    " d="M150.3,2.6v294.8l-0.8,0.1c0.3,0,0.6,0,0.8,0
	c81.4,0,147.4-66,147.4-147.4S231.7,2.6,150.3,2.6z"/>
<polygon fill="#61778D" points="208.5,61.2 96.3,98 96.3,122.6 208.5,90.2 200.7,78.2 "/>
<polygon fill="#61778D" points="200.1,120.8 96.3,155.1 96.3,179.6 200.1,149.8 "/>
<polygon fill="#94D6DC" points="200.1,120.3 96.3,98 96.3,122.6 200.1,149.4 "/>
<polygon fill="#61778D" points="120.6,208.7 128.6,221.9 121.4,240 200.1,198.4 200.1,169.4 "/>
<polygon fill="#94D6DC" points="200.1,169.5 96.3,154.7 96.3,179.3 200.1,198.5 "/>
<rect x="249.3" y="104.4" transform="matrix(-0.4531 -0.8915 0.8915 -0.4531 254.921 400.4763)" fill="#C9D7EE" width="2" height="35.3"/>
<rect x="252.3" y="131.2" transform="matrix(-1.367066e-02 -0.9999 0.9999 -1.367066e-02 107.9596 404.1926)" fill="#C9D7EE" width="2" height="35.3"/>
<rect x="232.6" y="171.6" transform="matrix(-0.9507 -0.3102 0.3102 -0.9507 434.6387 414.2674)" fill="#C9D7EE" width="35.3" height="2"/>
<rect x="32.8" y="123.1" transform="matrix(-0.8916 -0.4529 0.4529 -0.8916 39.217 257.6304)" fill="#C9D7EE" width="35.3" height="2"/>
<rect x="29.8" y="149.9" transform="matrix(-0.9999 -1.406901e-02 1.406901e-02 -0.9999 92.7733 302.4532)" fill="#C9D7EE" width="35.3" height="2"/>
<rect x="49.4" y="157" transform="matrix(-0.3102 -0.9507 0.9507 -0.3102 -99.9861 276.695)" fill="#C9D7EE" width="2" height="35.3"/>
</svg>
