<?xml version="1.0" encoding="utf-8"?>
<!-- Generator: Adobe Illustrator 18.0.0, SVG Export Plug-In . SVG Version: 6.00 Build 0)  -->
<!DOCTYPE svg PUBLIC "-//W3C//DTD SVG 1.1//EN" "http://www.w3.org/Graphics/SVG/1.1/DTD/svg11.dtd">
<svg version="1.1" id="Layer_1" xmlns="http://www.w3.org/2000/svg" xmlns:xlink="http://www.w3.org/1999/xlink" x="0px" y="0px"
	 viewBox="0 0 600 600" enable-background="new 0 0 600 600" xml:space="preserve">
<circle fill="#65BFB4" cx="301.7" cy="300" r="280.3"/>
<g id="text">
</g>
<rect x="356.9" y="280.1" fill="#65BFB4" width="81.8" height="119.9"/>
<path fill="#5EB2A9" d="M246.7,421.5l110.2,153.4c0,0,164.1-26.9,216.6-206.3L406.4,171.4L341,412.8l-76.9-25.3L253,405.3
	L246.7,421.5z"/>
<path fill="#5EB2A9" d="M159.9,337.7L329,577.9c0,0,18.9-2.1,27.9-4l-138-205.7L159.9,337.7z"/>
<path fill="#FFFFFF" d="M405.8,170.5c-2.5-2.7-6.5-3.3-9.6-1.2L165,329.4c-2.1,1.5-3.3,3.9-3.1,6.4s1.7,4.8,4,5.9l52.9,26.5
	l20.6,48.1c1,2.3,3.1,3.9,5.6,4.3c0.3,0.1,0.7,0.1,1,0.1c2.1,0,4.2-0.9,5.6-2.6l21.6-26.1l59.8,29c1,0.5,2.1,0.7,3.1,0.7
	s2-0.2,3-0.7c2-0.9,3.4-2.6,4-4.7l64.1-238.2C407.8,176.2,408.1,173,405.8,170.5z M348.8,219.7L222.9,354.1l-39.6-19.8L348.8,219.7z
	 M248.1,399.7L233,364.4l124.8-133.2l-90,145.2c-0.5,0.3-0.9,0.7-1.3,1.2L248.1,399.7z M331.5,404.2l-49.3-23.9l98.3-158.6
	L331.5,404.2z"/>
</svg>
