<?xml version="1.0" encoding="utf-8"?>
<!-- Generator: Adobe Illustrator 18.0.0, SVG Export Plug-In . SVG Version: 6.00 Build 0)  -->
<!DOCTYPE svg PUBLIC "-//W3C//DTD SVG 1.1//EN" "http://www.w3.org/Graphics/SVG/1.1/DTD/svg11.dtd">
<svg version="1.1" id="Layer_1" xmlns="http://www.w3.org/2000/svg" xmlns:xlink="http://www.w3.org/1999/xlink" x="0px" y="0px"
	 viewBox="0 0 300 300" enable-background="new 0 0 300 300" xml:space="preserve">
<circle fill="#27364F" cx="151.4" cy="150" r="146.6"/>
<path opacity="0.19" fill="#374967" enable-background="new    " d="M151.7,3.3v293.1l-0.8,0.1c0.3,0,0.6,0,0.8,0
	c81,0,146.6-65.6,146.6-146.6S232.6,3.3,151.7,3.3z"/>
<path opacity="0.2" fill="#010101" enable-background="new    " d="M245.2,208.5c0-4.2-35.8-7.6-40-7.6l-93.8-0.6h94.1
	c8.3,0,15,0.7,15-7.5v-92.4c0-8.3-6.7-6.6-15-6.6H75.8c-8.3,0-15-1.7-15,6.6v92.4c0,4.9,6.1,6.6,9.7,7.2H59.2
	c-4.2,0-27.8,4.3-27.8,8.5c0,2.2,0.9,3.9,2.4,5c1.2,1.1,2.7,1.7,3.7,2.1c0.8,0.3,1.6,0.4,2.4,0.4h150.8v1.4v9.1c0,0,1,6.4,10,6.4h39
	c0,0,6.1,0.4,7.3-5.3c1-4.8-15.9-11.6-15.9-11.6C247.4,216,245.2,208.5,245.2,208.5z"/>
<path fill="#95979A" d="M250.3,209.2H51.5c-4.2,0-7.6-2.5-7.6-6.6l0,0c0-4.2,35.8-7.6,40-7.6h134c4.2,0,40,3.4,40,7.6l0,0
	C257.8,206.7,254.4,209.2,250.3,209.2z"/>
<path fill="#616264" d="M43.9,202.5h213.9c0,0,2.2,7.6-14,7.6H52.5c-0.8,0-1.6-0.1-2.4-0.4C47.9,208.9,43.9,206.8,43.9,202.5z"/>
<g>
	<path d="M217.2,191.7H83.7c-8.3,0-15,0.7-15-7.5V91.8c0-8.3,6.7-6.6,15-6.6h133.5c8.3,0,15-1.7,15,6.6v92.4
		C232.2,192.4,225.4,191.7,217.2,191.7z"/>
</g>
<rect x="76.9" y="92.7" fill="#4D6D83" width="146.5" height="91.2"/>
<path fill="#EBEBEC" d="M213.8,174H85.5c-1.5,0-2.8-1.3-2.8-2.8V102c0-1.5,1.3-2.8,2.8-2.8h128.3c1.5,0,2.8,1.3,2.8,2.8v69.1
	C216.6,172.7,215.4,174,213.8,174z"/>
<path fill="#696A6D" d="M81,196.4c0,0-20.1,2.8-27.6,4.8h194.9c0,0,0.3-1.7-30.4-4.8H81z"/>
<path fill="#BEC0C2" d="M135.4,202.5h29.4C164.8,202.5,151.8,209.6,135.4,202.5z"/>
<circle fill="#4A4B4C" cx="150.4" cy="89.2" r="1.5"/>
<path fill="#C2C1B5" d="M82.7,103.9h133.9c0,0,0.6-4.7-2.8-4.7H85.5C85.5,99.2,81.9,99.2,82.7,103.9z"/>
<circle fill="#BE5226" cx="86" cy="101.6" r="1.1"/>
<circle fill="#F4B333" stroke="#320A3F" stroke-width="5.000000e-02" stroke-miterlimit="10" stroke-opacity="0.34" cx="90.7" cy="101.6" r="1.1"/>
<circle fill="#588D4E" stroke="#320A3F" stroke-width="5.000000e-02" stroke-miterlimit="10" stroke-opacity="0.34" cx="95.8" cy="101.6" r="1.1"/>
<rect x="87.1" y="108.1" fill="#706E6D" width="91.1" height="22.9"/>
<rect x="87.1" y="136.8" fill="#3B3C46" width="72.2" height="2.6"/>
<rect x="92.9" y="142.9" fill="#3B3C46" width="85.2" height="0.8"/>
<rect x="87.1" y="146.1" fill="#3B3C46" width="91.1" height="0.8"/>
<rect x="87.1" y="149.2" fill="#3B3C46" width="91.1" height="0.8"/>
<rect x="87.1" y="152.4" fill="#3B3C46" width="91.1" height="0.8"/>
<rect x="87.1" y="155.6" fill="#3B3C46" width="91.1" height="0.8"/>
<rect x="87.1" y="158.8" fill="#3B3C46" width="91.1" height="0.8"/>
<rect x="87.1" y="161.9" fill="#3B3C46" width="84.5" height="0.8"/>
<rect x="183.5" y="108.1" fill="#706E6D" width="27.1" height="22.9"/>
<rect x="183.3" y="136.8" fill="#706E6D" width="27.3" height="26.3"/>
<path opacity="0.2" fill="#010101" enable-background="new    " d="M204.5,137.5h-8c-2.1,0-4.1,1.2-5.1,3.1l0,0
	c-0.8,1.5-1.2,3.1-1.1,4.8l0.4,64.7l12-0.1L204.5,137.5z"/>
<path opacity="0.14" fill="#FFFFFF" enable-background="new    " d="M183.5,85.2L130,191.7H78.1c0,0-9.3-0.2-9.3-6.5V91.8
	c0,0,0.2-6.5,6.3-6.6H183.5z"/>
<g>
	<path fill="#FFFFFF" d="M244.1,228.2h-41.2c-5.9,0-6.7-4.8-6.7-10.7v-76.4c0-5.9,2.2-8,8-8h38.6c5.9,0,8,2.2,8,8v76.4
		C250.8,223.4,249.9,228.2,244.1,228.2z"/>
</g>
<rect x="200.7" y="140.5" fill="#85AEAE" width="45.6" height="77"/>
<circle fill="#DEDFE0" cx="223.5" cy="136.6" r="0.9"/>
<circle fill="#737577" cx="223.5" cy="223" r="3.6"/>
<rect x="221.8" y="221.4" fill="none" stroke="#A7A9AC" stroke-width="0.25" stroke-miterlimit="10" width="3.3" height="3.3"/>
<rect x="204.5" y="146.1" fill="#414140" width="37.9" height="23.6"/>
<rect x="204.5" y="175.2" fill="#32323C" width="38" height="2.6"/>
<rect x="207" y="181.5" fill="#32323C" width="35.5" height="0.9"/>
<rect x="204.5" y="186" fill="#32323C" width="37.9" height="0.9"/>
<rect x="204.5" y="191.5" fill="#32323C" width="37.9" height="0.9"/>
<rect x="204.5" y="197.1" fill="#32323C" width="35.2" height="0.9"/>
<rect x="204.5" y="204.2" fill="#414140" width="14.8" height="7.5"/>
<rect x="227.4" y="204.2" fill="#414140" width="14.8" height="7.5"/>
<path opacity="0.14" fill="#FFFFFF" enable-background="new    " d="M236,133.2l-25.4,95.1h-9.9c0,0-4.6-1.1-4.6-10.7l0.2-79.1
	c0,0,0.9-4.5,4.3-4.9L236,133.2z"/>
</svg>
