<?xml version="1.0" encoding="utf-8"?>
<!-- Generator: Adobe Illustrator 18.0.0, SVG Export Plug-In . SVG Version: 6.00 Build 0)  -->
<!DOCTYPE svg PUBLIC "-//W3C//DTD SVG 1.1//EN" "http://www.w3.org/Graphics/SVG/1.1/DTD/svg11.dtd">
<svg version="1.1" id="Layer_1" xmlns="http://www.w3.org/2000/svg" xmlns:xlink="http://www.w3.org/1999/xlink" x="0px" y="0px"
	 viewBox="0 0 600 600" enable-background="new 0 0 600 600" xml:space="preserve">
<circle fill="#65BFB4" cx="301.7" cy="300" r="280.3"/>
<g id="text">
</g>
<path fill="#5EB2A9" d="M150.1,428L273,578.9c0,0,146.2,26.2,257.1-116.4l-202.3-301V420L150.1,428z"/>
<path fill="#FFFFFF" d="M340.2,264.6v152.3c0,6.1,5,11.1,11.1,11.1h92.9c6.1,0,11.1-5,11.1-11.1V264.6c0-6.1-5-11.1-11.1-11.1h-92.9
	C345.2,253.5,340.2,258.5,340.2,264.6z M400.1,260.7c1.4,0,2.5,1.1,2.5,2.5s-1.1,2.5-2.5,2.5s-2.5-1.1-2.5-2.5
	C397.6,261.8,398.7,260.7,400.1,260.7z M385.2,269.1H415v2.4h-29.8V269.1z M399.1,420.5c-3.3,0-6-2.7-6-6s2.7-6,6-6s6,2.7,6,6
	S402.4,420.5,399.1,420.5z M438.7,399.9c-26.9,0.1-68.5,0.3-81.8,0.1V280h81.8V399.9z"/>
<path fill="#5EB2A9" d="M455.3,253.5l108.3,146.4c0,0-38.7,110.1-151.7,157.1l-71.8-129h115.1V253.5H455.3z"/>
<rect x="356.9" y="280.1" fill="#65BFB4" width="81.8" height="119.9"/>
<path fill="#FFFFFF" d="M161.2,428h155.5c6.1,0,11.1-5,11.1-11.1V172.6c0-6.1-5-11.1-11.1-11.1H161.2c-6.1,0-11.1,5-11.1,11.1v244.3
	C150.1,423,155.1,428,161.2,428z M242.7,414.6c-4.7,0-8.6-3.8-8.6-8.6c0-4.7,3.8-8.6,8.6-8.6c4.7,0,8.6,3.8,8.6,8.6
	S247.4,414.6,242.7,414.6z M175.8,187.2h126.3v196.6H175.8V187.2z"/>
</svg>
