<?xml version="1.0" encoding="utf-8"?>
<!-- Generator: Adobe Illustrator 18.0.0, SVG Export Plug-In . SVG Version: 6.00 Build 0)  -->
<!DOCTYPE svg PUBLIC "-//W3C//DTD SVG 1.1//EN" "http://www.w3.org/Graphics/SVG/1.1/DTD/svg11.dtd">
<svg version="1.1" id="Capa_1" xmlns="http://www.w3.org/2000/svg" xmlns:xlink="http://www.w3.org/1999/xlink" x="0px" y="0px"
	 viewBox="0 0 100 100" enable-background="new 0 0 100 100" xml:space="preserve">
<g>
	<path fill="#FFFFFF" d="M42.8,33.1c-3.1,0-3.1,4.8,0,4.8S45.9,33.1,42.8,33.1z"/>
	<path fill="#FFFFFF" d="M58.7,37.3c3.1,0,3.1-4.8,0-4.8S55.6,37.3,58.7,37.3z"/>
	<path fill="#FFFFFF" d="M61.4,40.9c-6-0.3-11.8,0.1-17.7,1c-3.1,0.5-1.8,5.1,1.3,4.6c5.5-0.8,10.9-1.1,16.5-0.8
		C64.5,45.9,64.5,41.1,61.4,40.9z"/>
	<path fill="#FFFFFF" d="M92.7,60.6c-0.2-1.1-0.9-2.1-2.2-2.3c-3.9-0.5-7.8-0.8-11.8-0.9c0-1.6-0.1-3.2-0.1-4.8
		c-0.1-2-2.1-2.7-3.5-2.1c-0.1,0-0.1,0-0.2,0c-0.9-8.9-1.5-17.8-2-26.7c-0.1-1.4-1.2-2.2-2.3-2.3c-0.2-0.1-0.4-0.1-0.7-0.1
		c-2.3,0-4.6-0.1-6.8-0.1v-2.6c0.1-0.2,0.2-0.5,0.2-0.8c0-0.8-0.1-1.5-0.2-2.3c0.7-0.3,1.4-0.7,1.9-1.3c3.5-3.9-1.7-10.2-6.1-9
		c-2.8,0.7-5.2,4.2-4.4,7c0.6,1.9,2.7,3.1,4.6,3.5c0,0.1,0,0.2,0,0.3c0,0,0,0.2,0.1,0.3c0,0.1,0,0.3,0,0.4c0,0.1,0,0.3,0,0.5
		c-0.1,0.2-0.2,0.5-0.2,0.8v3.2c-6.5,0.1-13,0.3-19.5,0.8c0,0,0-6.4,0-6.5c0.3-0.8,2.1-1.9,2.6-2.9c0.7-1.2,0.9-2.5,0.7-3.9
		c-0.4-2.7-2.6-4.7-5.3-4.8c-0.1,0-0.1,0-0.2,0c-1.3-0.1-2.4,0.1-3.6,0.8c-0.3,0.2-0.6,0.4-0.7,0.8c-1.2,1-2.3,2.2-2.5,3.8
		c-0.3,1.9,0.5,3.6,1.7,5c0.1,0.1,0.2,0.2,0.4,0.3c0.2,0.2,0.4,0.3,0.7,0.4c0.7,0.2,1.5,0.4,2.2,0.6v6.7c-1.4,0.1-2.8,0.3-4.2,0.4
		c-1.2,0.1-1.9,1-2.2,1.9c-0.1,0.3-0.2,0.7-0.2,1.1c0.3,8.5,0.5,16.9,0.1,25.3c-1.3,0.2-2.7,0.3-4,0.5c-1.4,0.2-1.9,1.3-1.7,2.4
		c0,0.2-0.1,0.4-0.1,0.6c0,0.9,0,1.8,0,2.8c-0.2,0-0.4-0.1-0.6-0.1c-4.3,0-8.6,0.3-12.9,0.9c-1.3,0.2-2.1,1.2-2.2,2.3
		c-0.1,0.2-0.1,0.5-0.2,0.7C6.5,71.9,6.2,82.5,5.6,93.1c-0.2,3.1,4.6,3.1,4.8,0c0.5-10.1,0.9-20.2,1.4-30.3c3.5-0.4,7-0.6,10.6-0.6
		c0.2,0,0.4,0,0.6-0.1c-0.1,9.9-0.1,19.8,0.3,29.8c0.1,3.1,4.9,3.1,4.8,0c-0.5-11.9-0.3-23.8-0.3-35.7c15.2-2.1,30.6-1.2,46-0.9
		c0.3,11.5,0.8,23,1.1,34.5c0.1,3.1,4.9,3.1,4.8,0c-0.2-9.2-0.6-18.4-0.9-27.6c3.1,0.1,6.2,0.3,9.3,0.6C88.6,72.9,89,83,89.5,93.1
		c0.2,3.1,5,3.1,4.8,0c-0.6-10.6-0.9-21.2-1.5-31.8C92.8,61.1,92.7,60.8,92.7,60.6z M58.7,10.9c-0.8-1.3,1.8-2,3.1-0.4
		c1.3,1.7-1.5,1.8-2.5,1.1C59,11.4,58.8,11.2,58.7,10.9z M34.8,11.5c-0.8-1.1-0.4-1.9,0.7-2.7c0.2-0.1,0.4-0.3,0.5-0.5
		c0.1,0,0.2-0.1,0.4-0.1c0,0,0,0,0,0c0,0,0.1,0,0.1,0c0.1,0,0.6,0.1,0.1,0c0.2,0,0.3,0,0.5,0c0.1,0,0.1,0,0.2,0c0,0,0.1,0,0.1,0
		c0,0,0.2,0,0.3,0c0,0,0.1,0,0.2,0.1c0.1,0,0.1,0.1,0.2,0.1c-0.2-0.1,0.2,0.3,0.2,0.3c0,0.1,0.1,0.1,0.1,0.2c0,0,0,0.1,0.1,0.2v1.8
		c0,0.1,0,0.1,0,0.2c0,0-0.1,0.1-0.1,0.1c0,0.1-0.1,0.1-0.1,0.2c0,0.1-0.2,0.3-0.3,0.3c0,0-0.1,0.1-0.1,0.1c0,0,0,0-0.1,0
		c0,0,0,0,0,0C36.8,12,35.8,11.8,34.8,11.5z M33.6,50.8c0.4-7.8,0.2-15.5,0-23.3c11.5-1.2,23-1.5,34.6-1.3
		c0.5,8.1,1.1,16.1,1.9,24.2C57.9,50.1,45.7,49.7,33.6,50.8z"/>
	<path fill="#FFFFFF" d="M44.8,72.5c0-0.2,0-0.3-0.1-0.4c0-1-0.6-2.1-1.9-2.1h-8.2c-0.9,0-1.4,0.4-1.7,1c-0.6,0.3-1,0.9-1,1.7
		c0,3.4,0,6.8-0.2,10.2c0,0.5,0.1,0.9,0.3,1.2c0.1,0.6,0.6,1.1,1.4,1.2c3.3,0.5,6.7,0.6,10,0.6c0.2,0,0.4,0,0.6-0.1
		c1,0,2-0.6,1.9-1.9C45.3,80.2,45,76.3,44.8,72.5z M35.6,81.7c0.1-2.6,0.2-5.1,0.2-7.7h5.1c0.2,2.7,0.4,5.3,0.7,8
		C39.5,82,37.5,81.9,35.6,81.7z"/>
	<path fill="#FFFFFF" d="M65.8,69.8C61.2,70,56.6,70,52,70c-2.6,0-2.6,4,0,4c4.6,0,9.2,0,13.8-0.2C68.3,73.6,68.3,69.6,65.8,69.8z"
		/>
	<path fill="#FFFFFF" d="M65.8,78.2c-4.7,0.2-9.5,0.5-14.2,0.5c-2.6,0-2.6,4,0,4c4.8,0,9.5-0.3,14.2-0.5
		C68.3,82.1,68.3,78.1,65.8,78.2z"/>
	<path fill="#FFFFFF" d="M36.8,59.8c-2.6,0-2.6,4,0,4S39.3,59.8,36.8,59.8z"/>
	<path fill="#FFFFFF" d="M46.2,59.5c-2.6,0-2.6,4,0,4S48.8,59.5,46.2,59.5z"/>
	<path fill="#FFFFFF" d="M57.5,59.5c-2.6,0-2.6,4,0,4S60.1,59.5,57.5,59.5z"/>
</g>
</svg>
